<svg width="572" height="479" viewBox="0 0 572 479" fill="none" xmlns="http://www.w3.org/2000/svg">
<g filter="url(#filter0_d_216_27)">
<path d="M281.944 471C435.448 471 559.888 463.127 559.888 453.414C559.888 443.702 435.448 435.829 281.944 435.829C128.44 435.829 4 443.702 4 453.414C4 463.127 128.44 471 281.944 471Z" fill="#DBE6F7"/>
<path d="M174.499 26.9709C174.499 28.2849 173.964 29.4821 173.092 30.3489C172.23 31.2207 171.033 31.7571 169.719 31.7571H67.4081C64.7801 31.7571 62.627 29.6039 62.627 26.9709C62.627 25.6569 63.1621 24.4597 64.0352 23.593C64.8957 22.7199 66.0941 22.1847 67.4081 22.1847H72.2433C74.1527 17.7465 78.5633 14.6449 83.6974 14.6449C87.1533 14.6449 90.2775 16.0519 92.5412 18.3206C95.5548 13.2091 101.114 9.77586 107.479 9.77586C109.229 9.77586 110.912 10.0409 112.502 10.5208C115.831 4.26108 122.411 0 129.996 0C139.105 0 146.767 6.14917 149.08 14.5181C150.758 13.6789 152.651 13.199 154.661 13.199C160.342 13.199 165.133 16.9915 166.64 22.186H169.72C172.346 22.1847 174.499 24.3379 174.499 26.9709Z" fill="#DBE6F7"/>
<path d="M567.032 90.5467C567.032 91.8607 566.497 93.0579 565.623 93.9246C564.762 94.7965 563.564 95.3329 562.25 95.3329H459.939C457.311 95.3329 455.158 93.1797 455.158 90.5467C455.158 89.2327 455.693 88.0355 456.566 87.1687C457.427 86.2969 458.625 85.7605 459.939 85.7605H464.775C466.684 81.3223 471.095 78.2195 476.229 78.2195C479.685 78.2195 482.809 79.6264 485.072 81.8951C488.086 76.7836 493.645 73.3504 500.01 73.3504C501.76 73.3504 503.443 73.6154 505.034 74.0953C508.363 67.8356 514.943 63.5732 522.528 63.5732C531.637 63.5732 539.298 69.7224 541.611 78.0913C543.289 77.2522 545.182 76.7723 547.192 76.7723C552.873 76.7723 557.664 80.5648 559.172 85.7593H562.252C564.879 85.7605 567.032 87.9137 567.032 90.5467Z" fill="#DBE6F7"/>
<path d="M379.125 38.9878C379.125 40.3018 378.59 41.5003 377.717 42.3658C376.855 43.2389 375.658 43.774 374.344 43.774H272.033C269.405 43.774 267.253 41.6209 267.253 38.9878C267.253 37.6738 267.788 36.4767 268.661 35.6099C269.522 34.7368 270.72 34.2017 272.034 34.2017H276.87C278.78 29.7635 283.191 26.6606 288.325 26.6606C291.781 26.6606 294.905 28.0676 297.168 30.3363C300.182 25.2248 305.741 21.7915 312.106 21.7915C313.856 21.7915 315.539 22.0566 317.13 22.5365C320.459 16.2767 327.039 12.0144 334.624 12.0144C343.733 12.0144 351.394 18.1648 353.707 26.5325C355.385 25.6933 357.278 25.2135 359.288 25.2135C364.969 25.2135 369.76 29.006 371.267 34.2004H374.348C376.972 34.2017 379.125 36.3548 379.125 38.9878Z" fill="#DBE6F7"/>
<path d="M51.5951 151.717C55.7444 165.665 69.6745 165.23 69.3781 176.553C69.0816 187.874 76.1968 196.471 85.9752 194.397C95.7573 192.32 102.839 190.246 107.302 201.509C111.761 212.773 125.989 218.403 131.62 209.51C133.023 207.298 134.538 204.9 136.019 202.546C136.424 201.903 136.828 201.263 137.225 200.633C137.318 200.487 137.411 200.341 137.501 200.195C143.463 190.73 141.495 178.186 132.705 171.267C129.146 168.467 124.89 166.893 120.063 168.314C104.947 172.758 110.393 157.556 101.388 151.124C91.0151 143.712 82.1173 152.101 75.0109 145.787C65.1245 137.008 47.4471 137.769 51.5951 151.717Z" fill="#BBD4F2"/>
<path d="M69.6273 157.747L136.017 202.547C136.422 201.904 136.826 201.264 137.223 200.634L70.8936 155.874C70.376 155.524 69.6726 155.66 69.3246 156.178C68.9741 156.694 69.1098 157.397 69.6273 157.747Z" fill="#A4C8F2"/>
<path d="M380.023 84.5307C395.654 78.0184 409.255 68.9712 401.709 63.5506C394.157 58.1238 371.047 74.1355 360.352 92.9975L355.179 98.5437C363.214 84.9339 365.565 65.2704 358.615 61.5369C351.708 57.826 351.331 71.0565 353.002 83.1991C354.274 92.441 352.988 98.7837 352.017 101.934L327.586 128.13C340.247 106.541 343.928 75.501 332.93 69.593C321.971 63.7051 321.373 84.699 324.023 103.964C326.027 118.524 324.031 128.553 322.495 133.588L317.623 138.812C318.396 139.798 319.174 140.78 319.96 141.758L349.025 110.592C352.503 109.711 357.529 108.988 364.077 109.428C376.306 110.249 389.477 108.951 385.295 102.32C381.666 96.5652 366.701 98.5349 354.302 104.934L364.353 94.1558C368.032 91.3532 373.276 87.3408 380.023 84.5307Z" fill="#DBE6F7"/>
<path d="M69.155 95.417C67.5207 108.905 79.613 113.713 75.1484 123.3C70.6851 132.885 73.5807 142.893 82.7272 144.752C91.8762 146.612 98.7125 147.468 98.3457 158.773C97.9763 170.078 108.066 180.19 116.195 174.668C118.22 173.295 120.409 171.804 122.553 170.34C123.138 169.939 123.722 169.542 124.297 169.149C124.431 169.059 124.564 168.968 124.696 168.878C133.321 162.989 136.3 151.515 131.345 142.32C129.339 138.599 126.279 135.667 121.617 135.09C107.019 133.276 117.337 122.28 112.017 113.424C105.89 103.221 95.1511 107.095 91.4126 99.0449C86.2106 87.8508 70.7881 81.929 69.155 95.417Z" fill="#DBE6F7"/>
<path d="M82.3575 107.287L122.554 170.341C123.139 169.941 123.723 169.544 124.298 169.151L84.1388 106.154C83.8261 105.663 83.1728 105.517 82.6816 105.831C82.1892 106.143 82.0447 106.796 82.3575 107.287Z" fill="#BBD4F2"/>
<path d="M393.147 367.418C388.897 381.705 374.628 381.26 374.932 392.86C375.236 404.456 367.947 413.262 357.93 411.136C347.911 409.01 340.656 406.884 336.085 418.421C331.516 429.958 316.944 435.726 311.175 426.617C309.737 424.351 308.187 421.893 306.668 419.484C306.253 418.826 305.84 418.17 305.433 417.524C305.338 417.375 305.242 417.225 305.15 417.077C299.044 407.382 301.06 394.532 310.063 387.445C313.709 384.578 318.068 382.965 323.012 384.421C338.497 388.974 332.917 373.4 342.141 366.812C352.765 359.221 361.879 367.813 369.16 361.345C379.288 352.351 397.397 353.129 393.147 367.418Z" fill="#BBD4F2"/>
<path d="M374.676 373.593L306.67 419.483C306.256 418.824 305.843 418.169 305.436 417.523L373.378 371.675C373.908 371.317 374.628 371.456 374.986 371.987C375.344 372.515 375.206 373.236 374.676 373.593Z" fill="#A4C8F2"/>
<path d="M368.482 314.663C370.155 328.479 357.77 333.403 362.343 343.224C366.916 353.043 363.948 363.293 354.58 365.198C345.208 367.102 338.205 367.98 338.58 379.56C338.959 391.14 328.622 401.497 320.296 395.842C318.222 394.436 315.98 392.909 313.784 391.409C313.185 390.999 312.586 390.591 311.998 390.189C311.861 390.096 311.724 390.004 311.588 389.911C302.753 383.879 299.702 372.126 304.777 362.708C306.832 358.897 309.966 355.893 314.741 355.301C329.694 353.443 319.124 342.181 324.575 333.109C330.851 322.657 341.85 326.626 345.681 318.381C351.012 306.913 366.809 300.847 368.482 314.663Z" fill="#DBE6F7"/>
<path d="M354.961 326.822L313.787 391.41C313.188 391 312.589 390.592 312.001 390.19L353.137 325.661C353.457 325.157 354.127 325.009 354.629 325.329C355.133 325.65 355.283 326.318 354.961 326.822Z" fill="#BBD4F2"/>
<path d="M557.414 276.296C561.201 276.296 564.281 279.376 564.281 283.162C564.281 286.948 561.201 290.028 557.414 290.028C553.628 290.028 550.548 286.948 550.548 283.162C550.548 279.376 553.628 276.296 557.414 276.296ZM557.414 278.449C554.816 278.449 552.702 280.563 552.702 283.161C552.702 285.759 554.816 287.873 557.414 287.873C560.013 287.873 562.126 285.759 562.126 283.161C562.128 280.563 560.013 278.449 557.414 278.449Z" fill="#75BBFB"/>
<path d="M550.431 241.396C554.217 241.396 557.297 244.476 557.297 248.262C557.297 252.048 554.217 255.128 550.431 255.128C546.645 255.128 543.564 252.048 543.564 248.262C543.563 244.477 546.645 241.396 550.431 241.396ZM550.431 243.55C547.832 243.55 545.719 245.664 545.719 248.262C545.719 250.86 547.833 252.974 550.431 252.974C553.03 252.974 555.143 250.86 555.143 248.262C555.143 245.664 553.029 243.55 550.431 243.55Z" fill="#205CE1"/>
<path d="M529.544 231.726C529.544 232.321 530.026 232.803 530.621 232.803H535.37C535.966 232.803 536.447 232.321 536.447 231.726C536.447 231.132 535.964 230.65 535.37 230.65H530.621C530.025 230.649 529.544 231.131 529.544 231.726Z" fill="#1D38C8"/>
<path d="M521.232 231.726C521.232 232.321 521.715 232.803 522.309 232.803H527.059C527.654 232.803 528.135 232.321 528.135 231.726C528.135 231.132 527.653 230.65 527.059 230.65H522.309C521.715 230.649 521.232 231.131 521.232 231.726Z" fill="#1D38C8"/>
<path d="M527.757 225.058V229.326C527.757 229.921 528.239 230.404 528.835 230.404C529.43 230.404 529.911 229.921 529.911 229.326V225.058C529.911 224.464 529.429 223.982 528.835 223.982C528.239 223.982 527.757 224.464 527.757 225.058Z" fill="#1D38C8"/>
<path d="M527.757 234.127V238.394C527.757 238.989 528.239 239.471 528.835 239.471C529.43 239.471 529.911 238.989 529.911 238.394V234.127C529.911 233.532 529.429 233.05 528.835 233.05C528.239 233.049 527.757 233.532 527.757 234.127Z" fill="#1D38C8"/>
<path d="M537.291 268.402C537.291 268.996 537.773 269.478 538.368 269.478H543.117C543.713 269.478 544.194 268.996 544.194 268.402C544.194 267.806 543.712 267.324 543.117 267.324H538.368C537.773 267.324 537.291 267.806 537.291 268.402Z" fill="#205CE1"/>
<path d="M528.978 268.402C528.978 268.996 529.46 269.478 530.055 269.478H534.805C535.401 269.478 535.883 268.996 535.883 268.402C535.883 267.806 535.401 267.324 534.805 267.324H530.055C529.46 267.324 528.978 267.806 528.978 268.402Z" fill="#205CE1"/>
<path d="M535.506 261.734V266.001C535.506 266.595 535.988 267.077 536.582 267.077C537.178 267.077 537.659 266.595 537.659 266.001V261.734C537.659 261.139 537.177 260.657 536.582 260.657C535.988 260.657 535.506 261.139 535.506 261.734Z" fill="#205CE1"/>
<path d="M535.506 270.801V275.068C535.506 275.662 535.988 276.145 536.582 276.145C537.178 276.145 537.659 275.662 537.659 275.068V270.801C537.659 270.207 537.177 269.724 536.582 269.724C535.988 269.724 535.506 270.207 535.506 270.801Z" fill="#205CE1"/>
<path d="M36.8638 110.146C36.8638 113.932 33.7836 117.013 29.9973 117.013C26.2111 117.013 23.1309 113.932 23.1309 110.146C23.1309 106.36 26.2111 103.28 29.9973 103.28C33.7836 103.28 36.8638 106.36 36.8638 110.146ZM25.2853 110.146C25.2853 112.744 27.3995 114.858 29.9973 114.858C32.5964 114.858 34.7094 112.744 34.7094 110.146C34.7094 107.548 32.5952 105.434 29.9973 105.434C27.3995 105.434 25.2853 107.547 25.2853 110.146Z" fill="#75BBFB"/>
<path d="M43.855 75.2472C43.855 79.0334 40.7748 82.1137 36.9885 82.1137C33.2023 82.1137 30.1221 79.0334 30.1221 75.2472C30.1221 71.461 33.2023 68.3807 36.9885 68.3807C40.7748 68.3807 43.855 71.461 43.855 75.2472ZM32.2765 75.2472C32.2765 77.8451 34.3907 79.9593 36.9885 79.9593C39.5876 79.9593 41.7006 77.8451 41.7006 75.2472C41.7006 72.6494 39.5864 70.5351 36.9885 70.5351C34.3907 70.5339 32.2765 72.6481 32.2765 75.2472Z" fill="#1D38C8"/>
<path d="M57.8707 58.7105C57.8707 59.3047 57.3883 59.7871 56.7941 59.7871H52.0444C51.4502 59.7871 50.9678 59.3047 50.9678 58.7105C50.9678 58.115 51.4502 57.6339 52.0444 57.6339H56.7941C57.3883 57.6339 57.8707 58.1163 57.8707 58.7105Z" fill="#75BBFB"/>
<path d="M66.1842 58.7105C66.1842 59.3047 65.7018 59.7871 65.1076 59.7871H60.3578C59.7624 59.7871 59.2812 59.3047 59.2812 58.7105C59.2812 58.115 59.7636 57.6339 60.3578 57.6339H65.1076C65.7018 57.6339 66.1842 58.1163 66.1842 58.7105Z" fill="#75BBFB"/>
<path d="M59.6502 52.0437V56.3111C59.6502 56.9065 59.1678 57.3889 58.5736 57.3889C57.9782 57.3889 57.4971 56.9065 57.4971 56.3111V52.0437C57.4971 51.4495 57.9795 50.9672 58.5736 50.9672C59.1678 50.9659 59.6502 51.4483 59.6502 52.0437Z" fill="#75BBFB"/>
<path d="M59.6502 61.1111V65.3785C59.6502 65.9727 59.1678 66.4551 58.5736 66.4551C57.9782 66.4551 57.4971 65.9727 57.4971 65.3785V61.1111C57.4971 60.5157 57.9795 60.0345 58.5736 60.0345C59.1678 60.0345 59.6502 60.5157 59.6502 61.1111Z" fill="#75BBFB"/>
<path d="M50.1256 95.3857C50.1256 95.9798 49.6432 96.4622 49.049 96.4622H44.2992C43.7038 96.4622 43.2227 95.9798 43.2227 95.3857C43.2227 94.7902 43.705 94.3091 44.2992 94.3091H49.049C49.6432 94.3078 50.1256 94.7902 50.1256 95.3857Z" fill="#205CE1"/>
<path d="M58.4376 95.3857C58.4376 95.9798 57.9553 96.4622 57.3598 96.4622H52.6101C52.0146 96.4622 51.5322 95.9798 51.5322 95.3857C51.5322 94.7902 52.0146 94.3091 52.6101 94.3091H57.3598C57.9553 94.3078 58.4376 94.7902 58.4376 95.3857Z" fill="#205CE1"/>
<path d="M51.9051 88.7177V92.985C51.9051 93.5792 51.4227 94.0616 50.8285 94.0616C50.2331 94.0616 49.752 93.5792 49.752 92.985V88.7177C49.752 88.1235 50.2343 87.6411 50.8285 87.6411C51.4227 87.6411 51.9051 88.1235 51.9051 88.7177Z" fill="#205CE1"/>
<path d="M51.9051 97.7863V102.054C51.9051 102.648 51.4227 103.13 50.8285 103.13C50.2331 103.13 49.752 102.648 49.752 102.054V97.7863C49.752 97.1921 50.2343 96.7097 50.8285 96.7097C51.4227 96.7085 51.9051 97.1909 51.9051 97.7863Z" fill="#205CE1"/>
<path d="M457.158 112.329V129.661C457.158 131.953 459.017 133.811 461.307 133.811H492.778L502.279 137.22C503.255 137.571 504.188 136.611 503.814 135.646L500.22 126.365V112.329C500.22 110.038 498.361 108.18 496.068 108.18H461.307C459.016 108.18 457.158 110.038 457.158 112.329Z" fill="#B6D8F2" stroke="black"/>
<g opacity="0.5">
<path d="M484.499 121.489C484.499 123.147 485.843 124.491 487.501 124.491C489.16 124.491 490.504 123.147 490.504 121.489C490.504 119.83 489.16 118.486 487.501 118.486C485.843 118.487 484.499 119.83 484.499 121.489Z" fill="#205CE1" stroke="black"/>
<path d="M474.997 121.489C474.997 123.147 476.341 124.491 477.999 124.491C479.658 124.491 481.002 123.147 481.002 121.489C481.002 119.83 479.658 118.486 477.999 118.486C476.341 118.487 474.997 119.83 474.997 121.489Z" fill="#205CE1" stroke="black"/>
<path d="M465.494 121.489C465.494 123.147 466.838 124.491 468.497 124.491C470.155 124.491 471.499 123.147 471.499 121.489C471.499 119.83 470.155 118.486 468.497 118.486C466.838 118.486 465.494 119.83 465.494 121.489Z" fill="#205CE1" stroke="black"/>
</g>
<path d="M118.217 109.382V433.379C118.217 443.536 126.448 451.766 136.604 451.766H297.947C303.05 451.766 307.663 449.69 310.997 446.337C314.296 443.01 316.334 438.434 316.334 433.379V109.382C316.334 99.2259 308.104 90.9952 297.947 90.9952H136.604C133.602 90.9952 130.768 91.7138 128.264 92.9914C122.298 96.0302 118.217 102.228 118.217 109.382Z" fill="#6A6664"/>
<path d="M125.066 109.382V433.379C125.066 443.536 133.297 451.766 143.454 451.766H304.797C309.9 451.766 314.512 449.69 317.845 446.337C321.144 443.01 323.184 438.434 323.184 433.379V109.382C323.184 99.2259 314.953 90.9952 304.797 90.9952H143.454C140.451 90.9952 137.617 91.7138 135.114 92.9914C129.148 96.0302 125.066 102.228 125.066 109.382Z" fill="black"/>
<path d="M121.583 170.679H119.495C116.869 170.679 114.741 168.551 114.741 165.926V146.172C114.741 143.546 116.869 141.418 119.495 141.418H121.583V170.679Z" fill="black"/>
<path d="M121.583 208.948H119.495C116.869 208.948 114.741 206.819 114.741 204.194V184.44C114.741 181.815 116.869 179.687 119.495 179.687H121.583V208.948Z" fill="black"/>
<path d="M323.189 170.679H324.825C326.883 170.679 328.55 169.011 328.55 166.955V145.143C328.55 143.087 326.883 141.418 324.825 141.418H323.189V170.679Z" fill="#205CE1"/>
<path d="M314.009 108.268V434.488C314.009 435.613 313.78 436.683 313.366 437.656C312.128 440.562 309.258 442.587 305.91 442.587H142.341C137.873 442.587 134.242 438.969 134.242 434.487V108.268C134.242 107.816 134.276 107.37 134.351 106.937C134.807 104.182 136.663 101.893 139.159 100.813C139.68 100.593 140.223 100.423 140.79 100.316C141.29 100.216 141.811 100.166 142.341 100.166H305.91C310.382 100.166 314.009 103.796 314.009 108.268Z" fill="white"/>
<path d="M314.012 108.268V124.995H134.245V108.268C134.245 107.816 134.279 107.37 134.354 106.937C134.81 104.182 136.666 101.893 139.162 100.813C139.683 100.593 140.226 100.423 140.792 100.316C141.292 100.216 141.814 100.166 142.344 100.166H305.913C310.385 100.166 314.012 103.796 314.012 108.268Z" fill="#DBE6F7"/>
<path d="M285.629 100.157L277.288 112.848C274.962 116.388 271.01 118.521 266.772 118.521H186.16C181.923 118.521 177.971 116.39 175.644 112.848L167.303 100.157C167.303 98.8415 168.378 97.7637 169.697 97.7637H283.236C284.551 97.7637 285.629 98.8428 285.629 100.157Z" fill="black"/>
<path opacity="0.3" d="M255.067 109.332H185.082C183.93 109.332 182.986 108.389 182.986 107.237V106.324C182.986 105.172 183.93 104.228 185.082 104.228H255.067C256.219 104.228 257.162 105.172 257.162 106.324V107.237C257.163 108.39 256.22 109.332 255.067 109.332Z" fill="#DBE6F7"/>
<path opacity="0.3" d="M270.702 106.611C270.702 108.302 269.332 109.674 267.64 109.674C265.948 109.674 264.577 108.303 264.577 106.611C264.577 104.92 265.948 103.549 267.64 103.549C269.332 103.549 270.702 104.919 270.702 106.611Z" fill="#DBE6F7"/>
<path d="M149.611 325.921C149.611 327.416 150.822 328.627 152.317 328.627H216.988C218.482 328.627 219.694 327.416 219.694 325.921C219.694 324.427 218.483 323.215 216.988 323.215H152.317C150.822 323.216 149.611 324.427 149.611 325.921Z" fill="#DBE6F7"/>
<path d="M231.641 325.921C231.641 327.416 232.852 328.627 234.347 328.627H299.019C300.513 328.627 301.725 327.416 301.725 325.921C301.725 324.427 300.514 323.215 299.019 323.215H234.347C232.852 323.216 231.641 324.427 231.641 325.921Z" fill="#DBE6F7"/>
<path d="M149.611 341.006C149.611 342.501 150.822 343.712 152.317 343.712H216.988C218.482 343.712 219.694 342.501 219.694 341.006C219.694 339.512 218.483 338.3 216.988 338.3H152.317C150.822 338.301 149.611 339.512 149.611 341.006Z" fill="#DBE6F7"/>
<path d="M231.641 341.006C231.641 342.501 232.852 343.712 234.347 343.712H299.019C300.513 343.712 301.725 342.501 301.725 341.006C301.725 339.512 300.514 338.3 299.019 338.3H234.347C232.852 338.301 231.641 339.512 231.641 341.006Z" fill="#DBE6F7"/>
<path d="M149.611 356.09C149.611 357.584 150.822 358.796 152.317 358.796H216.988C218.482 358.796 219.694 357.585 219.694 356.09C219.694 354.597 218.483 353.385 216.988 353.385H152.317C150.822 353.386 149.611 354.597 149.611 356.09Z" fill="#DBE6F7"/>
<path d="M231.641 356.09C231.641 357.584 232.852 358.796 234.347 358.796H299.019C300.513 358.796 301.725 357.585 301.725 356.09C301.725 354.597 300.514 353.385 299.019 353.385H234.347C232.852 353.386 231.641 354.597 231.641 356.09Z" fill="#DBE6F7"/>
<path d="M149.611 371.175C149.611 372.669 150.822 373.881 152.317 373.881H216.988C218.482 373.881 219.694 372.67 219.694 371.175C219.694 369.681 218.483 368.469 216.988 368.469H152.317C150.822 368.469 149.611 369.681 149.611 371.175Z" fill="#DBE6F7"/>
<path d="M231.641 371.175C231.641 372.669 232.852 373.881 234.347 373.881H299.019C300.513 373.881 301.725 372.67 301.725 371.175C301.725 369.681 300.514 368.469 299.019 368.469H234.347C232.852 368.469 231.641 369.681 231.641 371.175Z" fill="#DBE6F7"/>
<path d="M190.985 406.348H154.229C151.69 406.348 149.634 404.29 149.634 401.753V397.259C149.634 394.72 151.691 392.663 154.229 392.663H190.983C193.522 392.663 195.58 394.72 195.58 397.259V401.753C195.58 404.29 193.522 406.348 190.985 406.348Z" fill="#DBE6F7"/>
<path d="M244.466 406.348H207.712C205.173 406.348 203.115 404.29 203.115 401.753V397.259C203.115 394.72 205.173 392.663 207.712 392.663H244.466C247.005 392.663 249.061 394.72 249.061 397.259V401.753C249.063 404.29 247.005 406.348 244.466 406.348Z" fill="#DBE6F7"/>
<path d="M297.123 406.348H260.368C257.83 406.348 255.772 404.29 255.772 401.753V397.259C255.772 394.72 257.83 392.663 260.368 392.663H297.123C299.661 392.663 301.719 394.72 301.719 397.259V401.753C301.719 404.29 299.661 406.348 297.123 406.348Z" fill="#DBE6F7"/>
<path d="M314.008 173.629V296.815H159.28V173.629H166.395L166.33 173.56L166.408 173.629H314.008Z" fill="#DBE6F7"/>
<path d="M346.24 164.111H167.906V287.298H346.24V164.111Z" fill="#1D38C8"/>
<path d="M353.378 164.111H175.045V287.298H353.378V164.111Z" fill="#75BBFB"/>
<path d="M174.957 164.04L257.532 249.994C261.153 253.764 267.185 253.764 270.806 249.994L353.381 164.04L270.289 237.995C266.8 241.099 261.539 241.099 258.051 237.995L174.957 164.04Z" fill="#1D38C8"/>
<path d="M247.03 227.862L180.209 287.298H175.044V284.157L243.189 223.546L247.03 227.862Z" fill="#1D38C8"/>
<path d="M353.38 284.574V287.298H347.748L280.926 227.862L284.767 223.546L353.38 284.574Z" fill="#1D38C8"/>
<path d="M175.04 164.109L258.33 238.185C261.681 241.166 266.734 241.166 270.085 238.185L353.375 164.109H175.04Z" fill="#205CE1"/>
<g opacity="0.5">
<path d="M262.053 175.643H200.327C198.273 175.643 196.608 173.978 196.608 171.924C196.608 169.87 198.273 168.206 200.327 168.206H262.053C264.107 168.206 265.772 169.87 265.772 171.924C265.772 173.978 264.107 175.643 262.053 175.643Z" fill="#205CE1"/>
</g>
<g opacity="0.5">
<path d="M280.94 175.643H274.693C272.639 175.643 270.975 173.978 270.975 171.924C270.975 169.87 272.639 168.206 274.693 168.206H280.94C282.994 168.206 284.659 169.87 284.659 171.924C284.659 173.978 282.994 175.643 280.94 175.643Z" fill="#205CE1"/>
</g>
<path d="M325.402 174.486H306.586C301.599 174.486 297.557 170.443 297.557 165.456V146.64C297.557 141.654 301.599 137.612 306.585 137.612H325.402C330.389 137.612 334.43 141.654 334.43 146.64V165.456C334.43 170.444 330.388 174.486 325.402 174.486Z" fill="#900B13"/>
<path d="M328.663 174.486H309.847C304.86 174.486 300.817 170.443 300.817 165.456V146.64C300.817 141.655 304.86 137.612 309.846 137.612H328.661C333.649 137.612 337.691 141.655 337.691 146.64V165.456C337.691 170.444 333.649 174.486 328.663 174.486Z" fill="#E71C1C"/>
<path d="M319.02 143.023L318.85 155.478H316.887L316.718 143.023H319.02ZM317.869 160.488C317.451 160.488 317.093 160.338 316.794 160.039C316.495 159.74 316.346 159.382 316.346 158.965C316.346 158.547 316.495 158.189 316.794 157.89C317.093 157.591 317.451 157.441 317.869 157.441C318.286 157.441 318.644 157.591 318.943 157.89C319.242 158.189 319.392 158.547 319.392 158.965C319.392 159.241 319.321 159.495 319.18 159.726C319.045 159.957 318.862 160.144 318.63 160.285C318.405 160.42 318.151 160.488 317.869 160.488Z" fill="white"/>
<path d="M388.176 430.884L387.473 443.561L397.757 443.785L399.015 430.468L388.176 430.884Z" fill="#FDA893"/>
<path d="M391.551 441.779C391.551 441.779 396.846 440.58 398.294 440.662C399.742 440.747 409.04 451.971 412.284 452.735C418.169 454.119 417.826 463.376 414.2 463.699C403.714 464.632 386.032 459.547 386.032 459.547C386.032 459.547 384.837 447.607 385.694 443.906C386.548 440.208 388.593 442.765 391.551 441.779Z" fill="#205CE1"/>
<path d="M399.805 452.247C399.617 452.281 399.417 452.241 399.25 452.12C398.927 451.885 398.857 451.433 399.092 451.11C399.17 451.002 401.043 448.456 403.271 447.629C406.236 446.526 408.247 448.358 408.331 448.436C408.624 448.707 408.639 449.166 408.366 449.458C408.095 449.75 407.637 449.766 407.344 449.494C407.29 449.445 405.886 448.203 403.774 448.985C401.959 449.658 400.278 451.938 400.261 451.962C400.147 452.118 399.981 452.215 399.805 452.247Z" fill="#FEFDFF"/>
<path d="M397.891 449.984C397.704 450.017 397.503 449.977 397.336 449.857C397.013 449.622 396.941 449.17 397.177 448.847C397.255 448.739 399.128 446.192 401.357 445.366C404.324 444.263 406.333 446.093 406.417 446.173C406.71 446.445 406.725 446.903 406.452 447.195C406.181 447.487 405.722 447.504 405.429 447.23C405.374 447.181 403.97 445.94 401.859 446.721C400.035 447.398 398.363 449.675 398.347 449.698C398.233 449.854 398.067 449.951 397.891 449.984Z" fill="#FEFDFF"/>
<path d="M402.526 454.214C402.338 454.248 402.138 454.209 401.97 454.088C401.648 453.853 401.576 453.4 401.812 453.076C401.89 452.968 403.763 450.422 405.992 449.595C408.959 448.491 410.967 450.324 411.052 450.402C411.344 450.674 411.359 451.132 411.087 451.424C410.815 451.717 410.357 451.733 410.064 451.46C410.009 451.411 408.604 450.169 406.494 450.951C404.67 451.628 402.998 453.904 402.982 453.927C402.867 454.085 402.703 454.183 402.526 454.214Z" fill="#FEFDFF"/>
<path d="M425.994 276.411C425.994 276.411 425.781 279.388 425.391 284.325C425.291 285.632 425.178 287.076 425.052 288.647C423.721 305.216 421.145 335.177 418.331 356.432C414.387 386.229 401.963 435.197 401.963 435.197L389.137 434.757L387.868 434.707L384.828 434.606C384.828 434.606 386.964 403.628 389.69 376.732C391.486 358.995 392.554 317.025 393.069 290.518C393.333 276.851 393.458 267.291 393.458 267.291L425.994 276.411Z" fill="#347EE7"/>
<path d="M425.996 276.411C425.996 276.411 425.782 279.388 425.393 284.325C425.292 285.632 425.179 287.076 425.054 288.647C419.137 289.752 402.869 290.518 393.07 290.518C393.334 276.851 393.46 267.291 393.46 267.291L425.996 276.411Z" fill="#205CE1"/>
<path d="M400.376 284.109C400.364 285.127 399.183 381.692 389.146 434.754L387.877 434.704C397.927 381.805 399.108 285.102 399.12 284.097L400.376 284.109Z" fill="#205CE1"/>
<path d="M468.611 433.319L468.19 444.754L457.736 444.201L457.5 432.057L468.611 433.319Z" fill="#FDA893"/>
<path d="M465.522 444.229C465.522 444.229 467.8 441.262 469.572 441.416C471.344 441.571 484.868 452.653 489.542 453.62C494.218 454.588 493.256 458.027 492.37 459.778C491.484 461.53 454.981 458.561 454.981 458.561C454.981 458.561 454.138 447.67 455.382 444.361C456.626 441.051 461.844 444.963 465.522 444.229Z" fill="#205CE1"/>
<path d="M472.971 451.933C472.804 451.98 472.62 451.962 472.459 451.867C472.146 451.682 472.043 451.28 472.227 450.967C472.288 450.863 473.757 448.397 475.699 447.455C478.281 446.197 480.259 447.677 480.342 447.74C480.629 447.96 480.685 448.373 480.464 448.661C480.244 448.949 479.832 449.004 479.543 448.783C479.489 448.743 478.112 447.745 476.272 448.637C474.69 449.405 473.371 451.613 473.358 451.636C473.269 451.786 473.129 451.888 472.971 451.933Z" fill="#FEFDFF"/>
<path d="M471.044 450.055C470.878 450.102 470.693 450.084 470.532 449.99C470.219 449.805 470.115 449.403 470.299 449.09C470.361 448.986 471.829 446.52 473.77 445.578C476.356 444.321 478.332 445.799 478.414 445.863C478.702 446.083 478.757 446.496 478.536 446.784C478.316 447.072 477.903 447.127 477.616 446.906C477.561 446.866 476.183 445.867 474.344 446.76C472.755 447.532 471.444 449.736 471.431 449.759C471.342 449.908 471.201 450.01 471.044 450.055Z" fill="#FEFDFF"/>
<path d="M475.603 453.473C475.436 453.521 475.251 453.502 475.09 453.408C474.778 453.223 474.673 452.821 474.858 452.509C474.919 452.404 476.388 449.938 478.33 448.996C480.915 447.739 482.891 449.217 482.974 449.281C483.262 449.501 483.316 449.915 483.096 450.202C482.876 450.49 482.463 450.545 482.175 450.324C482.121 450.284 480.742 449.286 478.904 450.178C477.315 450.95 476.004 453.154 475.991 453.177C475.901 453.327 475.76 453.43 475.603 453.473Z" fill="#FEFDFF"/>
<path d="M470.517 436.302L459.891 435.512L458.625 435.424L456.043 435.231C456.043 435.231 449.516 373.103 447.486 356.554C445.721 342.177 437.48 309.874 432.129 289.775C430.613 284.069 429.327 279.347 428.481 276.296C427.835 273.896 427.453 272.532 427.453 272.532L462.978 269.093C462.978 269.093 463.077 269.873 463.24 271.277C463.586 274.151 464.25 279.659 465.053 286.58C467.271 305.421 470.646 334.741 471.953 349.666C475.306 388.1 470.517 436.302 470.517 436.302Z" fill="#347EE7"/>
<path d="M465.053 286.582L432.129 289.775C430.612 284.069 429.327 279.347 428.48 276.296L463.24 271.278C463.585 274.153 464.25 279.66 465.053 286.582Z" fill="#205CE1"/>
<path d="M459.89 435.511L458.624 435.423C458.007 416.212 456.121 368.229 452.272 347.889C447.434 322.248 436.311 284.912 436.196 284.535L437.406 284.176C437.52 284.554 448.663 321.954 453.507 347.659C457.381 368.127 459.283 416.338 459.89 435.511Z" fill="#205CE1"/>
<path d="M464.74 181.514C465.294 186.357 465.88 191.002 466.395 194.895C467.225 201.174 467.867 205.488 467.867 205.488L472.957 221.888C474.7 227.498 481.045 230.211 486.307 227.601C486.396 227.559 486.489 227.512 486.581 227.466C495.666 222.808 489.999 204.879 489.999 204.879L488.25 204.798C487.479 202.84 485.399 197.846 482.755 191.575C482.434 190.805 482.1 190.012 481.763 189.21C481.201 187.877 480.619 186.499 480.026 185.091C479.183 183.095 478.313 181.037 477.433 178.964C470.956 163.652 464.057 147.447 464.057 147.447C461.592 148.713 462.987 166.099 464.74 181.514Z" fill="#FDA893"/>
<path d="M464.743 181.514C465.297 186.357 465.883 191.002 466.398 194.895C473.137 192.627 477.554 188.257 480.029 185.091C479.186 183.094 478.315 181.037 477.436 178.964L464.743 181.514Z" fill="#FD857D"/>
<path d="M478.938 211.034C478.977 211.038 479.011 211.038 479.05 211.036C479.404 211.028 479.708 210.763 479.753 210.402C480.826 201.782 481.979 195.403 482.757 191.575C482.437 190.806 482.1 190.014 481.765 189.211C481.03 192.586 479.609 199.773 478.306 210.221C478.257 210.618 478.539 210.981 478.938 211.034Z" fill="#FD857D"/>
<path d="M484.81 178.297C484.81 178.297 483.348 180.125 480.764 182.155C477.638 184.626 471.85 187.712 466.058 187.91C464.835 167.334 463.651 147.634 462.023 142.564C464.776 145.791 478.729 163.701 484.81 178.297Z" fill="#205CE1"/>
<path d="M480.273 211.411C480.273 211.411 480.88 190.759 485.138 186.234C489.394 181.709 493.356 179.907 497.485 179.924C501.614 179.94 505.51 180.327 505.311 182.032C505.311 182.032 514.739 180.294 519.049 182.615C523.359 184.934 506.668 187.622 501.697 187.912C496.725 188.201 494.187 191.066 494.08 194.039C493.975 197.011 491.735 216.745 491.735 216.745L480.273 211.411Z" fill="#FDA893"/>
<path d="M469.485 276.681C441.722 284.47 413.771 285.161 385.595 278.817C385.306 270.827 384.74 243.982 384.602 216.282C384.602 214.825 384.59 213.355 384.59 211.886V209.775C384.577 209.047 384.577 208.306 384.577 207.577C384.577 206.836 384.577 206.107 384.564 205.379C384.577 204.65 384.564 203.921 384.577 203.18C384.564 202.477 384.577 201.773 384.564 201.07C384.564 200.341 384.564 199.6 384.577 198.884C384.577 198.155 384.59 197.414 384.59 196.686C384.59 195.944 384.59 195.216 384.602 194.487C384.602 193.784 384.602 193.08 384.615 192.377C384.615 190.982 384.627 189.575 384.64 188.206V187.993C384.652 187.05 384.652 186.108 384.678 185.179C384.916 163.572 385.657 146.211 387.316 143.799C391.323 137.983 410.091 129.038 415.819 124.805L415.832 125.722C415.832 125.722 419.6 130.445 423.696 129.981C427.414 129.579 430.165 125.182 430.617 124.39C433.569 126.363 440.34 129.491 446.923 132.845C453.493 136.199 459.862 139.754 462.023 142.568C463.857 144.98 465.377 163.358 466.558 185.907V185.97C466.583 186.397 466.595 186.812 466.62 187.239V187.302C466.633 187.616 466.658 187.942 466.671 188.281C466.708 188.947 466.746 189.613 466.771 190.291C466.809 190.982 466.847 191.686 466.872 192.389C466.909 193.118 466.934 193.846 466.985 194.588C467.01 195.316 467.035 196.045 467.085 196.786C467.11 197.502 467.148 198.231 467.173 198.972C467.211 199.663 467.236 200.366 467.261 201.07C467.299 201.811 467.324 202.539 467.362 203.281C467.387 203.997 467.424 204.725 467.45 205.466C467.475 206.195 467.512 206.936 467.537 207.665C467.575 208.356 467.6 209.059 467.625 209.763C467.676 211.232 467.738 212.69 467.789 214.159C468.819 241.759 469.384 268.616 469.485 276.681Z" fill="#205CE1"/>
<path d="M411.67 145.923C411.39 145.867 411.172 145.628 411.153 145.329C411.13 144.972 411.401 144.663 411.758 144.64C428.158 143.585 433.787 131.208 433.842 131.083C433.987 130.756 434.37 130.606 434.697 130.751C435.025 130.894 435.174 131.276 435.031 131.604C434.972 131.739 433.532 134.975 429.947 138.376C426.647 141.505 420.827 145.357 411.842 145.934C411.782 145.938 411.724 145.934 411.67 145.923Z" fill="#75BBFB"/>
<path d="M467.089 196.782L384.578 198.884C384.583 198.149 384.588 197.415 384.594 196.68C384.599 195.946 384.593 195.212 384.611 194.49L466.882 192.394C466.912 193.115 466.943 193.849 466.986 194.583C467.015 195.316 467.046 196.049 467.089 196.782Z" fill="#75BBFB"/>
<path d="M467.455 205.464L384.584 207.574C384.577 206.841 384.582 206.106 384.576 205.384C384.581 204.649 384.575 203.915 384.58 203.18L467.272 201.073C467.303 201.807 467.333 202.541 467.363 203.274C467.393 203.997 467.424 204.73 467.455 205.464Z" fill="#75BBFB"/>
<path d="M467.796 214.158L384.612 216.277C384.61 214.821 384.598 213.353 384.597 211.884L467.625 209.769C467.685 211.236 467.747 212.691 467.796 214.158Z" fill="#75BBFB"/>
<path d="M457.83 174.429C460.316 177.617 464.014 184.89 465.676 188.251C465.903 188.712 466.09 189.1 466.234 189.394C466.422 189.78 466.526 190.004 466.535 190.02C466.589 190.134 466.671 190.226 466.771 190.289C466.74 189.616 466.706 188.946 466.672 188.279C466.658 187.949 466.638 187.618 466.622 187.293L466.621 187.239C466.28 186.554 465.878 185.749 465.428 184.866C463.543 181.175 460.858 176.203 458.853 173.631C458.634 173.349 458.225 173.3 457.943 173.52C457.659 173.739 457.612 174.149 457.83 174.429Z" fill="#75BBFB"/>
<path d="M443.758 255.557C444.097 255.548 444.374 255.278 444.388 254.935C444.402 254.577 444.125 254.275 443.766 254.26C425.486 253.529 414.365 244.557 408.253 237.162C401.609 229.12 399.269 221.138 399.246 221.059C399.147 220.714 398.789 220.515 398.445 220.614C398.101 220.712 397.901 221.071 398 221.415C398.096 221.749 400.42 229.699 407.219 237.946C413.501 245.565 424.931 254.804 443.715 255.557C443.729 255.558 443.744 255.558 443.758 255.557Z" fill="#75BBFB"/>
<path d="M433.665 244.218C433.951 244.211 434.207 244.013 434.278 243.722C434.362 243.374 434.148 243.023 433.8 242.938C417.833 239.055 414.434 225.889 414.402 225.756C414.316 225.408 413.965 225.194 413.618 225.279C413.27 225.364 413.056 225.714 413.142 226.062C413.177 226.207 414.033 229.642 416.975 233.614C419.682 237.269 424.746 242.071 433.494 244.199C433.552 244.213 433.608 244.219 433.665 244.218Z" fill="#75BBFB"/>
<path d="M393.123 172.164C390.711 175.418 387.206 182.779 385.623 186.183C385.41 186.648 385.234 187.05 385.096 187.339C384.92 187.729 384.819 187.955 384.819 187.98C384.782 188.068 384.719 188.143 384.644 188.206V187.992C384.656 187.05 384.656 186.108 384.681 185.178C384.983 184.488 385.372 183.671 385.787 182.792C387.583 179.061 390.146 174.023 392.08 171.398C392.294 171.109 392.696 171.046 392.985 171.26C393.274 171.473 393.337 171.888 393.123 172.164Z" fill="#75BBFB"/>
<path d="M473.006 184.397L529.258 182.964C530.862 182.922 532.13 181.59 532.089 179.984L532.047 178.323C532.005 176.719 530.672 175.452 529.067 175.492L472.815 176.925C471.211 176.967 469.943 178.3 469.983 179.905L470.026 181.566C470.068 183.171 471.402 184.439 473.006 184.397Z" fill="#263238"/>
<path d="M532.152 182.891L542.706 138.906C543.298 136.435 541.388 134.075 538.848 134.14L513.178 134.793C511.446 134.837 509.955 136.028 509.529 137.708L497.849 183.764L532.152 182.891Z" fill="#263238"/>
<path d="M509.526 137.707L497.942 183.385L495.009 183.459L506.592 137.782C507.022 136.102 508.509 134.91 510.243 134.865L513.176 134.789C511.444 134.836 509.955 136.028 509.526 137.707Z" fill="#263238"/>
<g opacity="0.5">
<path d="M516.722 160.95C516.129 163.849 517.983 166.139 520.865 166.065C523.747 165.992 526.563 163.583 527.157 160.684C527.75 157.786 525.896 155.495 523.014 155.568C520.132 155.642 517.316 158.052 516.722 160.95Z" fill="white"/>
</g>
<path d="M404.453 94.8857C404.453 94.8857 402.747 95.7625 402.258 92.4147C401.769 89.0669 403.125 88.4677 402.117 86.8811C401.11 85.2945 400.412 83.2154 401.987 81.7243C403.562 80.2319 400.227 76.5675 402.048 74.6669C403.871 72.7662 406.885 72.2964 408.039 70.1696C409.195 68.0441 411.004 63.9853 416.722 63.9212C422.439 63.8559 424.388 68.4135 427.379 67.1271C430.37 65.842 432.574 65.1398 436.143 67.5492C439.712 69.9586 436.087 73.4371 439.394 75.0463C442.701 76.6555 440.228 81.6376 444.025 84.444C446.886 86.5595 444.181 95.1645 438.466 94.0201C432.752 92.8745 404.453 94.8857 404.453 94.8857Z" fill="#263238"/>
<path d="M405.903 96.2198C405.903 96.2198 402.653 92.1094 400.405 95.6344C398.156 99.1593 401.721 109.31 407.379 106.665L405.903 96.2198Z" fill="#FD857D"/>
<path d="M406.046 103.533C405.835 103.539 405.638 103.404 405.572 103.192C404.604 100.055 401.298 98.8566 401.265 98.8453C401.014 98.7561 400.881 98.481 400.97 98.2285C401.058 97.976 401.334 97.8441 401.586 97.932C401.74 97.986 405.383 99.2937 406.497 102.907C406.577 103.162 406.433 103.433 406.177 103.511C406.134 103.526 406.09 103.532 406.046 103.533Z" fill="#F05B56"/>
<path d="M402.703 102.026C402.613 102.029 402.522 102.006 402.439 101.956C402.211 101.816 402.139 101.52 402.277 101.291C402.3 101.253 402.856 100.355 404.055 99.7824C404.295 99.6668 404.585 99.7686 404.699 100.01C404.815 100.251 404.713 100.539 404.472 100.654C403.546 101.098 403.108 101.787 403.104 101.794C403.015 101.941 402.861 102.022 402.703 102.026Z" fill="#F05B56"/>
<path d="M438.298 95.3945C438.298 95.3945 441.335 91.1233 443.76 94.5289C446.186 97.9345 443.142 108.253 437.357 105.901L438.298 95.3945Z" fill="#FD857D"/>
<path d="M438.525 102.707C438.736 102.702 438.927 102.557 438.981 102.343C439.788 99.1606 443.029 97.7964 443.061 97.7826C443.309 97.6808 443.427 97.3982 443.325 97.152C443.225 96.9045 442.942 96.7864 442.696 96.8869C442.544 96.9485 438.972 98.4408 438.044 102.105C437.979 102.364 438.136 102.627 438.395 102.693C438.439 102.703 438.483 102.708 438.525 102.707Z" fill="#F05B56"/>
<path d="M441.788 101.031C441.879 101.029 441.968 101.002 442.047 100.947C442.268 100.796 442.325 100.496 442.175 100.275C442.15 100.238 441.548 99.3692 440.324 98.8579C440.079 98.7549 439.794 98.8717 439.692 99.1179C439.589 99.3641 439.706 99.648 439.952 99.7498C440.899 100.146 441.373 100.811 441.376 100.818C441.472 100.961 441.63 101.035 441.788 101.031Z" fill="#F05B56"/>
<path d="M430.325 114.766L430.583 124.944C430.583 124.944 427.68 130.205 423.584 130.663C419.492 131.125 415.725 126.397 415.725 126.397L415.456 115.861L430.325 114.766Z" fill="#FDA893"/>
<path d="M430.322 114.766L430.438 119.283C427.761 122.409 422.889 123.297 415.623 122.413L415.456 115.862L430.322 114.766Z" fill="#FD857D"/>
<path d="M440.389 88.3546C440.301 92.3142 440.05 97.27 439.397 101.245C439.233 102.236 439.043 103.169 438.829 104.007C436.878 111.561 431.848 124.559 416.713 119.584C410.029 117.388 406.77 110.088 405.211 102.619C404.153 97.5464 403.882 92.4009 403.856 88.7189C403.833 84.9603 405.795 81.4756 409.016 79.5398C417.742 74.2951 427.131 75.9282 433.342 78.1366C437.652 79.6667 440.491 83.7895 440.389 88.3546Z" fill="#FDA893"/>
<path d="M416.164 97.2875C416.192 98.3742 415.654 99.2686 414.963 99.2862C414.272 99.3038 413.691 98.437 413.663 97.3503C413.635 96.2637 414.173 95.3693 414.864 95.3517C415.554 95.3341 416.137 96.2009 416.164 97.2875Z" fill="#396BB3"/>
<path d="M431.19 96.9044C431.217 97.991 430.68 98.8854 429.989 98.903C429.298 98.9206 428.716 98.0538 428.689 96.9672C428.661 95.8805 429.199 94.9861 429.889 94.9685C430.579 94.9509 431.162 95.8177 431.19 96.9044Z" fill="#396BB3"/>
<path d="M434.158 90.347C434.158 90.347 428.939 88.4363 425.003 90.2565L425.458 92.4599C425.458 92.4599 431.285 91.8168 434.259 92.9348C434.5 92.0755 434.516 91.2138 434.158 90.347Z" fill="#263238"/>
<path d="M409.58 90.9826C409.58 90.9826 414.735 88.793 418.787 90.4223L418.443 92.6621C418.443 92.6621 412.546 92.3141 409.613 93.5904C409.325 92.74 409.265 91.8732 409.58 90.9826Z" fill="#263238"/>
<path d="M422.905 105.134C422.098 105.246 421.252 105.043 421.12 105.009C420.861 104.943 420.706 104.68 420.772 104.422C420.838 104.163 421.101 104.006 421.36 104.072C421.817 104.188 422.894 104.32 423.307 103.987C423.386 103.923 423.491 103.804 423.481 103.508C423.422 101.811 422.185 96.2675 422.173 96.2109C422.115 95.9509 422.278 95.6921 422.54 95.6331C422.801 95.5741 423.059 95.7386 423.118 95.9999C423.169 96.231 424.385 101.688 424.448 103.474C424.472 104.146 424.17 104.535 423.914 104.741C423.631 104.967 423.272 105.084 422.905 105.134Z" fill="#FD857D"/>
<path d="M415.973 107.998C416.419 109.977 417.826 113.601 422.25 113.488C426.686 113.375 427.844 110 428.213 107.687L415.973 107.998Z" fill="white"/>
<path d="M422.269 116.486C423.521 116.455 424.566 115.794 424.61 115.765C424.835 115.621 424.9 115.322 424.755 115.097C424.611 114.872 424.312 114.807 424.087 114.95C424.08 114.955 423.219 115.494 422.244 115.518C421.35 115.54 420.481 115.049 420.472 115.044C420.241 114.91 419.945 114.988 419.811 115.219C419.677 115.45 419.754 115.745 419.986 115.88C420.03 115.907 421.089 116.516 422.269 116.486Z" fill="#FD857D"/>
<path d="M441.997 86.8981C441.903 91.3678 441.635 96.962 440.938 101.449L438.626 101.338C438.626 101.338 439.094 97.5533 439.293 95.0901C439.491 92.627 439.82 88.024 437.824 87.505C435.834 86.9903 436.868 81.7223 434.062 79.5257C431.256 77.3235 425.096 75.4857 421.104 78.2367C417.111 80.982 412.462 79.6491 410.605 80.1581C408.742 80.6616 406.268 83.4594 407.016 85.9891C407.769 88.5147 405.742 90.1199 405.305 92.7688C404.868 95.4177 406.64 102.471 406.64 102.471L404.447 103C403.318 97.2739 403.028 91.4656 403 87.3093C402.976 83.0666 405.071 79.1329 408.509 76.9477C417.823 71.0274 427.845 72.8708 434.475 75.3637C439.075 77.0909 442.106 81.7449 441.997 86.8981Z" fill="#263238"/>
<path d="M388.508 265.856L383.345 272.904C383.345 272.904 380.356 271.032 376.298 267.778C376.285 267.766 376.285 267.766 376.273 267.753C370.092 262.816 362.588 253.649 357.894 244.218C350.567 229.493 353.887 218.929 353.887 218.929C354.616 211.844 358.585 202.028 362.367 191.338C363.748 187.456 365.005 184.077 365.884 181.703L377.429 184.353L382.365 187.393L380.469 192.406C377.202 203.225 373.509 213.866 368.566 223.982C369.684 233.893 373.873 245.858 378.71 253.194C383.71 260.806 388.508 265.856 388.508 265.856Z" fill="#FDA893"/>
<path d="M388.509 265.856L383.346 272.904C383.346 272.904 380.356 271.032 376.299 267.778C376.286 267.766 376.286 267.766 376.274 267.753C375.382 262.427 375.922 254.902 378.711 253.194C383.71 260.807 388.509 265.856 388.509 265.856Z" fill="#FD857D"/>
<path d="M385.75 257.725C386.789 257.793 392.329 258.068 391.729 256.172C391.069 254.082 385.632 251.634 385.632 251.634C385.632 251.634 385.6 251.527 385.653 251.386L385.594 250.939L385.354 246.445C384.304 246.453 383.339 246.658 382.817 246.82C380.434 247.557 380.76 253.008 380.76 253.008C380.76 253.008 377.755 254.082 377.865 256.282C377.975 258.483 380.396 258.813 380.396 258.813C380.396 258.813 377.09 260.464 377.862 262.334C378.635 264.205 381.141 264.755 381.141 264.755C381.141 264.755 378.304 266.625 379.295 267.946C380.285 269.266 382.597 269.927 382.597 269.927C382.597 269.927 380.618 272.605 382.629 274.065C384.639 275.524 387.597 275.208 389.498 274.547C391.4 273.886 391.07 271.465 387.329 269.705C387.329 269.705 390.63 270.036 392.28 267.285C393.656 264.991 390.145 264 387.151 263.605C389.503 263.764 393.564 263.697 394.261 261.452C395.174 258.51 387.022 257.815 385.75 257.725Z" fill="#FDA893"/>
<path d="M382.366 187.393L380.469 192.406C376.638 192.644 369.779 192.757 362.367 191.338C363.749 187.456 365.005 184.077 365.885 181.703L377.429 184.353L382.366 187.393Z" fill="#FD857D"/>
<path d="M387.315 143.804C387.315 143.804 369.901 160.738 359.642 185.326C367.683 187.926 375.295 189.766 382.363 190.646C383.198 188.363 387.595 178.914 391.487 172.243L387.315 143.804Z" fill="#205CE1"/>
<path d="M518.65 405.225C518.65 405.225 517.625 406.227 515.524 406.382C514.89 406.433 514.161 406.404 513.321 406.235C512.429 406.073 511.419 405.755 510.298 405.225C510.298 405.225 510.785 384.571 502.433 370.345C494.082 356.118 483.025 336.467 491.87 326.39C500.715 316.314 514.964 330.319 519.63 353.906C524.304 377.495 518.65 405.225 518.65 405.225Z" fill="#AB8E00" stroke="black"/>
<path d="M515.525 406.382C514.891 406.433 514.162 406.404 513.322 406.235C516.005 369.571 499.36 341.251 499.192 340.963C498.875 340.439 499.045 339.762 499.567 339.444C500.091 339.134 500.77 339.304 501.086 339.827C501.262 340.115 518.26 368.996 515.525 406.382Z" fill="#263238"/>
<path d="M547.289 371.892C527.749 403.485 529.098 410.79 529.098 410.79L526.533 410.333L524.351 409.949L521.239 409.397C519.507 395.384 530.269 336.157 549.456 336.157C568.99 336.157 553.946 361.138 547.289 371.892Z" fill="#16B513" stroke="black"/>
<path d="M546.552 353.715C546.367 354.025 530.004 383.215 526.532 410.333L524.35 409.949C527.917 382.396 544.444 352.941 544.62 352.625C544.921 352.094 545.601 351.91 546.131 352.211C546.662 352.514 546.847 353.185 546.552 353.715Z" fill="#263238"/>
<path d="M510.118 408.026L507.87 408.63L505.718 409.213L504.428 409.56C504.508 409.28 503.528 406.862 489.781 388.493C484.106 380.901 468.965 360.483 482.846 357.055C495.575 353.915 510.486 397.448 510.118 408.026Z" fill="#2B691B" stroke="black"/>
<path d="M507.869 408.63L505.717 409.213C501.751 391.514 485.66 369.792 485.483 369.556C485.121 369.07 485.224 368.376 485.711 368.008C486.199 367.646 486.891 367.743 487.259 368.237C487.968 369.194 503.786 390.527 507.869 408.63Z" fill="#263238"/>
<path d="M537.345 454.762C537.345 458.299 493.64 458.299 493.64 454.762V402.795C493.64 402.258 494.076 401.822 494.613 401.822H536.37C536.907 401.822 537.343 402.258 537.343 402.795L537.345 454.762Z" fill="#87503D" stroke="black"/>
<path d="M83.8329 456.06H52.42C48.1476 456.06 44.3613 452.791 43.0411 447.964L29.7189 399.246C29.1737 397.253 30.3433 395.181 32.102 395.019C56.3569 392.786 80.3758 392.783 104.155 395.013C105.911 395.177 107.078 397.248 106.534 399.239L93.2105 447.962C91.8915 452.791 88.1052 456.06 83.8329 456.06Z" fill="#87503D" stroke="black"/>
<path d="M103.745 398.557C103.745 399.853 87.8944 400.903 68.3414 400.903C48.7884 400.903 32.9375 399.853 32.9375 398.557C32.9375 397.26 48.7884 396.21 68.3414 396.21C87.8944 396.21 103.745 397.262 103.745 398.557Z" fill="#C6AD4E" stroke="black"/>
<path d="M108.437 332.716C95.6965 329.359 76.2302 355.804 70.3185 381.586V344.022C73.2907 338.752 78.9562 330.823 89.2434 322.445C105.241 309.416 119.968 292.695 107.205 289.334C95.2443 286.183 77.3558 309.299 70.3185 333.473V285.234C72.3799 282.034 75.7566 277.836 81.1546 273.439C91.237 265.227 100.518 254.69 92.4743 252.571C85.4936 250.732 75.3094 263.089 70.3185 277.025V261.391C71.1438 256.554 72.3096 249.646 75.5092 242.584C82.9246 226.22 86.9307 209.361 77.1536 210.616C67.3676 211.871 61.0225 241.015 66.374 263.388V271.434C62.7586 255.061 50.3572 238.104 42.2622 240.236C34.2187 242.355 43.4996 252.892 53.5819 261.104C61.2562 267.355 64.8477 273.205 66.374 276.352V314.354C60.5766 288.442 40.9721 261.697 28.1637 265.071C15.4006 268.433 30.1272 285.154 46.1251 298.183C58.2136 308.029 63.9231 317.254 66.374 322.273V367.843C60.1771 342.405 41.0738 316.733 28.5104 320.043C15.7473 323.405 26.6927 335.625 44.6716 350.405C56.8896 360.449 63.4344 371.049 66.374 376.812V398.277C67.7998 398.676 69.1351 398.673 70.3185 398.277V389.736C72.8196 384.677 78.5341 375.557 90.477 365.831C106.474 352.799 121.2 336.078 108.437 332.716Z" fill="#2B691B" stroke="black"/>
</g>
<defs>
<filter id="filter0_d_216_27" x="0" y="0" width="571.031" height="479" filterUnits="userSpaceOnUse" color-interpolation-filters="sRGB">
<feFlood flood-opacity="0" result="BackgroundImageFix"/>
<feColorMatrix in="SourceAlpha" type="matrix" values="0 0 0 0 0 0 0 0 0 0 0 0 0 0 0 0 0 0 127 0" result="hardAlpha"/>
<feOffset dy="4"/>
<feGaussianBlur stdDeviation="2"/>
<feComposite in2="hardAlpha" operator="out"/>
<feColorMatrix type="matrix" values="0 0 0 0 0 0 0 0 0 0 0 0 0 0 0 0 0 0 0.25 0"/>
<feBlend mode="normal" in2="BackgroundImageFix" result="effect1_dropShadow_216_27"/>
<feBlend mode="normal" in="SourceGraphic" in2="effect1_dropShadow_216_27" result="shape"/>
</filter>
</defs>
</svg>
