<?xml version="1.0" encoding="utf-8"?>
<!-- Generator: Adobe Illustrator 27.5.0, SVG Export Plug-In . SVG Version: 6.00 Build 0)  -->
<svg version="1.1" id="Layer_1" xmlns="http://www.w3.org/2000/svg" xmlns:xlink="http://www.w3.org/1999/xlink" x="0px" y="0px"
	 viewBox="0 0 2128 2000" style="enable-background:new 0 0 2128 2000;" xml:space="preserve">
<g>
	<g>
		<g>
			<path style="fill:#FEE4CB;" d="M216.807,1084.006c7.872-131.937-50.331-225.518,30.805-325.57
				c50.246-61.961,243.891-140.525,294.137-202.486c16.869-20.803,34.019-41.872,55.489-57.126
				c58.783-41.768,135.725-32.055,206.305-28.37c52.101,2.721,104.684,1.213,155.813-9.797
				c129.719-27.934,240.743-114.256,362.843-168.632c56.043-24.958,114.704-43.244,174.537-54.406
				c55.203-10.299,113.279-14.299,166.21,5.32c52.93,19.619,99.624,67.319,106.433,126.567c3.808,33.13-4.769,66.313-6.847,99.618
				c-2.08,33.304,4.523,70.921,30.086,90.231c20.677,15.62,48.331,15.245,71.667,25.79c59.254,26.78,71.203,110.84,63.463,178.899
				c-7.741,68.059-25.439,141.483,5.003,201.889c8.438,16.743,20.242,31.458,27.735,48.703
				c8.976,20.655,11.294,43.815,12.578,66.533c7.17,126.839-14.59,255.425-62.882,371.616c-8.041,19.349-17.12,38.821-31.621,53.284
				c-17.98,17.931-42.441,26.369-62.657,41.357c-22.709,16.837-39.445,41.464-61.674,59.013
				c-41.418,32.7-96.151,37.024-147.624,40.146c-143.453,8.697-289.289,17.19-429.132-17.966
				c-158.293-39.794-308.037-135.006-470.461-126.021c-85.344,4.721-173.174,38.133-253.936,8.361
				c-39.918-14.716-74.474-45.2-96.29-83.639c-23.124-40.741-22.22-91.379-47.657-130.589c-16.94-26.114-44.704-40.245-62.21-65.651
				C219.292,1190.989,213.938,1132.1,216.807,1084.006z"/>
			<path style="opacity:0.2;fill:#FFFFFF;" d="M1956.223,1303.645c8.665-41.346,14.275-83.418,16.734-125.697
				c-81.422-12.553-164.655-18.709-242.354-43.092c-2.742-8.9,7.606-16.514,17.049-20.622c35.755-15.56,78.18-19.045,116.629-9.581
				c13.591,3.345,26.637,8.225,40.227,11.569c22.713,5.591,46.28,6.744,69.843,5.17c-0.115-13.415-0.529-26.828-1.286-40.223
				c-0.995-17.604-2.626-35.468-7.479-52.232c-37.367,0.618-74.969,1.025-111.759-4.641c-54.979-8.47-109.137-30.45-164.284-22.856
				c-33.754,4.648-64.207,20.058-96.939,28.625c-66.453,17.393-137.69,5.79-207.043,7.189c-26.04,0.525-53.052,3.203-75.253,15.105
				c-22.201,11.904-38.187,35.223-32.128,57.355c6.162,22.513,31.593,36.39,55.606,46.171
				c43.821,17.851,90.505,30.325,138.258,36.944c63.08,8.744,127.436,7.272,190.925,13.361c15.187,1.456,31.077,3.611,43.192,11.743
				c9.913,6.655,16.133,16.548,23.947,25.073c27.843,30.38,74.219,41.977,117.993,49.2
				C1883.803,1298.1,1919.926,1302.222,1956.223,1303.645z"/>
			<path style="opacity:0.5;fill:#FFFFFF;" d="M1022.876,644.529c6.757-25.697,33.079-44.869,64.542-44.869
				c5.776,0,11.379,0.648,16.72,1.863c15.529-29.013,49.231-49.117,88.313-49.117c10.104,0,19.849,1.344,29.013,3.837
				c21.038-30.437,59.261-50.788,102.928-50.788c51.952,0,96.202,28.807,112.968,69.135c11.868-5.781,25.531-9.087,40.084-9.087
				c45.537,0,82.453,32.251,82.453,72.036c0,2.359-0.14,4.689-0.394,6.99H1022.876z"/>
			<path style="opacity:0.5;fill:#FFFFFF;" d="M836.666,603.852c-1.864-7.086-9.123-12.373-17.799-12.373
				c-1.593,0-3.138,0.179-4.611,0.514c-4.283-8.001-13.576-13.545-24.353-13.545c-2.787,0-5.474,0.371-8,1.058
				c-5.803-8.393-16.343-14.005-28.385-14.005c-14.327,0-26.529,7.944-31.153,19.064c-3.273-1.594-7.041-2.505-11.054-2.505
				c-12.558,0-22.738,8.894-22.738,19.866c0,0.65,0.038,1.293,0.108,1.927H836.666z"/>
			<path style="opacity:0.5;fill:#FFFFFF;" d="M1711.272,362.306c-2.673-10.162-13.081-17.742-25.521-17.742
				c-2.284,0-4.499,0.257-6.611,0.737c-6.141-11.473-19.467-19.421-34.919-19.421c-3.996,0-7.849,0.532-11.474,1.518
				c-8.318-12.035-23.433-20.082-40.698-20.082c-20.542,0-38.039,11.391-44.669,27.336c-4.692-2.285-10.096-3.593-15.85-3.593
				c-18.006,0-32.603,12.752-32.603,28.484c0,0.932,0.055,1.853,0.154,2.764H1711.272z"/>
			<path style="opacity:0.5;fill:#FFFFFF;" d="M1925.923,680.004c-15.802-11.839-36.328-19.002-58.778-19.002
				c-32.838,0-61.582,15.305-77.403,38.194c-6.892-1.875-14.219-2.886-21.817-2.886c-29.39,0-54.734,15.119-66.413,36.937
				c-4.017-0.913-8.229-1.401-12.572-1.401c-23.663,0-43.457,14.417-48.538,33.743h287.169c0.06-0.515,0.12-1.031,0.179-1.544
				C1930.821,737.023,1930.785,707.482,1925.923,680.004z"/>
			<path style="opacity:0.5;fill:#FFFFFF;" d="M258.075,747.188h318.833c-5.007-19.041-24.509-33.245-47.822-33.245
				c-4.28,0-8.431,0.481-12.389,1.38c-11.506-21.497-36.477-36.392-65.434-36.392c-7.486,0-14.706,0.996-21.496,2.843
				c-7.644-11.058-18.355-20.313-31.096-26.88C343.65,686.602,288.006,718.383,258.075,747.188z"/>
			<path style="opacity:0.2;fill:#FFFFFF;" d="M1914.42,640.033c-10.332-24.326-26.452-44.184-50.135-54.888
				c-23.337-10.546-50.99-10.171-71.667-25.79c-12.681-9.579-20.69-23.664-25.295-39.492c-96.864-0.08-193.981,3.598-287.856-15.807
				c-7.828-1.617-15.938-3.541-21.931-8.229c-12.935-10.121-10.247-29.634,1.34-40.931c11.589-11.297,29.15-16.196,46.062-19.635
				c85.434-17.375,173.718-9.499,261.782-4.371c2.644-20.492,5.007-40.949,2.659-61.386c-0.77-6.696-2.073-13.235-3.813-19.612
				c-86.466,2.719-173.074-7.933-259.596-5.895c-9.902,0.233-20.559,0.873-28.235,6.343c-6.904,4.919-9.962,12.735-14.736,19.306
				c-14.369,19.769-42.887,26.958-68.895,32.625c-94.121,20.511-188.242,41.02-282.364,61.531
				c-25.594,5.578-52.48,11.766-71.348,27.874c-32.773,27.977-25.024,82.902,14.543,103.091
				c23.207,11.841,51.585,11.919,78.458,11.666c41.739-0.392,83.479-0.785,125.217-1.177c28.554-0.269,58.021-0.391,84.396,9.171
				c24.548,8.9,44.56,25.57,69.004,34.683c26.734,9.968,56.711,10.198,85.777,10.272c107.206,0.273,214.41,0.547,321.616,0.821
				c24.745,0.064,50.273-0.004,73.072-8.412C1900.44,648.854,1907.808,644.847,1914.42,640.033z"/>
		</g>
		<g>
			<path style="fill:#07085B;" d="M305.479,805.727c31.653-6.961,25.773,44.478,23.654,58.261
				c10.489,5.757,19.665,11.96,27.607,18.212c-3.789-16.537-16.664-26.022-16.004-37.132c0.74-12.458,9.333-24.919,23.209-7.267
				c10.995,13.987,0.642,37.646-4.134,46.874c13.548,11.118,23.301,22.185,29.878,30.901c-1.727-19.722-15.419-32.455-13.362-45
				c2.25-13.726,13.091-26.301,26.23-4.66c10.861,17.888-4.91,44.051-10.71,52.592c5.833,8.115,8.601,13.631,8.892,14.225
				c5.639,11.108,10.5,22.118,14.684,32.96c-1.141-17.408-10.702-30.764-7.438-41.892c3.916-13.356,16.118-24.205,26.319-0.51
				c8.07,18.747-8.746,41.213-16.125,49.784c8.239,22.857,13.493,44.869,16.676,65.372c4.21-15.804,0.015-41.149,8.365-54.312
				c5.478-8.636,12.073-8.87,16.672-7.524c3.93,1.151,6.997,4.265,8.497,8.487c8.477,23.863-23.128,49.843-32.952,57.205
				c3.642,25.287,4.149,48.148,3.241,67.269c2.24-8.155,5.572-20.481,7.049-26.955c2.328-10.206,10.166-22.912,18.704-26.175
				c0.355-0.136,0.706-0.256,1.049-0.359c6.588-2.006,13.053,2.015,15.506,8.887c9.598,26.882-33.353,47.674-42.726,51.846
				c-0.009,0.131-0.016,0.269-0.025,0.4c-3.362,48.131-15.226,78.741-15.728,80.02l-4.088-1.801
				c0.117-0.297,11.391-29.447,15.046-74.424c-37.757-18.786-40.197-48.559-31.706-56.344c8.775-8.046,25.277-6.323,26.165,14.865
				c0.514,12.289,3.603,24.888,6.107,33.31c1.098-19.235,0.768-42.62-2.921-68.644c-55.918-4.3-48.226-43.226-34.891-48.27
				c13.497-5.108,20.268,3.286,24.033,20.38c2.5,11.356,7.367,19.97,10.361,24.492c-3.056-20.122-8.148-41.758-16.148-64.241
				c-8.882,5.911-32.48,19.309-46.418,5.457c-17.418-17.313-5.166-28.089,7.101-29.046c11.28-0.878,20.891,16.238,38.14,20.329
				c-4.56-12.42-10-25.08-16.498-37.879c-0.102-0.21-5.654-11.28-18.319-25.732c-8.313,7.142-30.264,23.474-45.682,11.889
				c-19.363-14.549-8.322-26.901,3.837-29.593c10.851-2.401,22.035,12.098,38.871,14.387c-11.02-11.958-26.719-25.723-47.927-37.47
				c-8.671,7.344-30.072,22.816-45.183,11.462c-19.363-14.549-8.322-26.902,3.838-29.593c11.002-2.436,22.345,12.518,39.581,14.484
				l0.225-0.486c-4.677-4.712-14.632-14.671-19.629-19.145c-6.668-5.97-12.353-18.18-10.355-27.628
				C298.044,808.547,305.479,805.727,305.479,805.727z"/>
			<path style="fill:#06BFAD;" d="M254.858,1054.113l-63.135-24.186c-7.569-47.985-11.158-88.624-11.158-88.624
				c77.773,9.471,135.889,38.219,179.327,75.911l3.326,77.639l24.807-49.861c100.617,112.826,100.365,274.39,100.365,274.39
				s-212.517-103.661-251.481-142.438c-15.044-14.973-26.87-53.516-35.721-95.191
				C223.975,1071.764,254.858,1054.113,254.858,1054.113z"/>
			<path style="fill:#02CCC0;" d="M180.565,941.304c0,0,240.515,222.288,307.824,378.078c0,0-212.517-103.661-251.481-142.438
				c-15.044-14.973-26.87-53.516-35.721-95.191c22.787-9.988,53.67-27.639,53.67-27.639l-63.135-24.186
				C184.154,981.942,180.565,941.304,180.565,941.304z"/>
			<path style="fill:#FEB546;" d="M138.41,1010.312c19.445-15.654,33.025,21.842,36.289,32.073
				c9.207,0.375,17.664,1.507,25.285,3.098c-8.283-10.107-20.415-12.235-23.769-20.125c-3.761-8.846-2.106-20.387,13.516-12.969
				c12.379,5.877,13.35,25.745,13.219,33.747c13.157,3.023,23.677,7.313,31.203,11.069c-7.953-13.01-21.762-17.099-24.644-26.456
				c-3.154-10.238,0.012-22.627,16.494-12.207c13.624,8.614,11.715,32.066,10.644,39.945c6.805,3.598,10.606,6.454,11.01,6.763
				c7.698,5.729,14.825,11.656,21.428,17.699c-6.754-11.615-17.928-17.549-19.492-26.344c-1.879-10.554,2.819-22.221,17.979-9.375
				c11.993,10.164,8.097,31.424,5.945,39.866c13.519,12.939,24.689,26.321,33.914,39.371c-2.514-12.345-14.097-28.386-12.851-40.328
				c0.818-7.835,5.286-10.257,8.92-10.904c3.104-0.554,6.289,0.542,8.771,2.938c14.028,13.553,1.136,42.308-3.116,50.753
				c11.182,16.192,19.37,31.786,25.298,45.286c-1.25-6.394-3.178-16.037-4.379-21.008c-1.893-7.838-0.843-19.288,3.927-24.466
				c0.198-0.216,0.399-0.418,0.6-0.608c3.856-3.643,9.693-3.086,13.741,0.813c15.836,15.25-6.66,44.316-11.694,50.406
				c0.039,0.095,0.081,0.191,0.119,0.286c14.183,34.35,16.495,59.528,16.586,60.583l-3.436,0.159
				c-0.022-0.244-2.24-24.214-15.138-56.489c-32.482-0.013-44.373-19.71-41.185-27.992c3.294-8.557,15.266-13.027,23.143,1.282
				c4.568,8.301,11.017,15.932,15.632,20.881c-5.837-13.643-14.082-29.659-25.548-46.343c-40.042,16.206-48.082-13.28-40.614-21.332
				c7.559-8.149,15.106-4.682,23.563,5.818c5.618,6.975,11.928,11.248,15.543,13.34c-9.006-12.831-19.936-26.008-33.162-38.772
				c-4.1,7.123-15.782,24.453-30.144,19.678c-17.949-5.97-13.194-17.603-5.06-22.468c7.478-4.474,19.976,4.036,33.275,0.945
				c-7.402-7.002-15.495-13.869-24.365-20.47c-0.142-0.11-7.768-5.842-21.458-11.467c-3.285,7.774-12.826,26.565-27.431,23.861
				c-18.343-3.396-14.963-15.702-7.499-21.728c6.661-5.376,19.345,0.79,31.742-3.403c-11.7-4.471-27.247-8.582-45.902-9.412
				c-3.463,8.037-12.919,26.046-27.234,23.396c-18.343-3.396-14.963-15.701-7.498-21.727c6.754-5.451,19.704,0.975,32.266-3.58
				l-0.012-0.411c-4.842-1.646-15.122-5.104-20.102-6.477c-6.646-1.831-14.753-8.304-16.615-15.504
				C134.249,1014.805,138.41,1010.312,138.41,1010.312z"/>
			<path style="fill:#55769F;" d="M120.438,1135.468c46.648-9.419,89.712-7.899,128.823,0.655
				c6.006,17.561,13.636,38.414,13.636,38.414l12.968-31.359c145.511,45.362,229.364,184.265,229.364,184.265
				c-101.849,22.207-177.795,10.982-234.035-14.683c0.61-12.396,1.78-30.793,1.78-30.793l-19.516,21.898
				c-26.199-14.405-47.566-31.95-64.892-50.21c10.235-11.317,21.448-24.432,21.448-24.432l-37.205,6.342
				C132.566,1185.219,120.438,1135.468,120.438,1135.468z"/>
			<path style="fill:#07085B;" d="M271.194,1312.76c0.61-12.396,1.78-30.793,1.78-30.793l-19.516,21.898
				c-26.199-14.405-47.566-31.95-64.892-50.21c10.235-11.317,21.448-24.432,21.448-24.432l-37.205,6.342
				c-40.244-50.347-52.372-100.098-52.372-100.098c173.77,41.182,384.791,191.975,384.791,191.975
				C403.38,1349.649,327.435,1338.425,271.194,1312.76z"/>
		</g>
		<g>
			<path style="fill:#06BFAD;" d="M1795.078,1059.664l41.568-21.618c1.438-33.634,0.713-61.897,0.713-61.897
				c-52.805,12.636-76.803,23.341-103.748,52.708l-4.737,44.776l-17.936-25.885c-60.406,85.597-55.796,212.924-55.796,212.924
				s138.174-88.085,161.952-117.849c9.181-11.492,14.293-38.959,17.109-68.352
				C1817.729,1069.388,1795.078,1059.664,1795.078,1059.664z"/>
			<path style="fill:#02CCC0;" d="M1837.359,976.149c0,0-148.123,171.964-182.217,284.524c0,0,138.174-88.085,161.952-117.849
				c9.181-11.492,14.293-38.959,17.109-68.352c-16.475-5.085-39.126-14.809-39.126-14.809l41.568-21.618
				C1838.085,1004.412,1837.359,976.149,1837.359,976.149z"/>
			<path style="fill:#FF5B7E;" d="M1894.027,1105.109c-32.86-2.818-62.392,1.614-88.647,10.58
				c-2.755,12.563-6.368,27.522-6.368,27.522l-11.395-20.573c-96.623,42.676-143.436,144.908-143.436,144.908
				c71.872,7.281,123.281-6.419,159.986-28.513c-1.396-8.487-3.647-21.062-3.647-21.062l15.159,13.543
				c16.905-11.979,30.238-25.739,40.731-39.673c-7.938-6.989-16.688-15.137-16.688-15.137l26.115,1.441
				C1889.589,1140.317,1894.027,1105.109,1894.027,1105.109z"/>
			<path style="fill:#E03268;" d="M1804.168,1239.034c-1.396-8.487-3.647-21.062-3.647-21.062l15.159,13.543
				c16.905-11.979,30.238-25.739,40.731-39.673c-7.938-6.989-16.688-15.137-16.688-15.137l26.115,1.441
				c23.751-37.83,28.189-73.038,28.189-73.038c-116.408,42.019-249.846,162.438-249.846,162.438
				C1716.054,1274.828,1767.463,1261.128,1804.168,1239.034z"/>
		</g>
		<g>
			<polygon style="fill:#1C2072;" points="1689.752,776.288 1075.901,640.333 1075.901,1602.349 1689.752,1731.922 			"/>
			<polygon style="fill:#07085B;" points="1705.815,1731.683 1689.752,1731.922 1689.752,769.837 1705.815,769.599 			"/>
			<polygon style="fill:#4D5296;" points="1075.901,640.333 1082.944,635.009 1705.815,769.599 1689.752,776.288 			"/>
			<polygon style="fill:#1C2072;" points="462.051,776.288 1075.901,640.333 1075.901,1602.349 462.051,1731.922 			"/>
			<path style="fill:#EAF5F9;" d="M487.799,785.385l545.57-135.484c0,0,28.651,12.04,42.532,10.369l-259.29,216.714
				c0,0-179.658,23.28-184.232,15.532C627.805,884.769,487.799,785.385,487.799,785.385z"/>
			<polygon style="fill:#DAEEF7;" points="487.799,1727.396 557.32,1758.501 557.32,816.49 487.799,785.385 			"/>
			<g>
				<polygon style="fill:#CAE2EA;" points="1075.901,1602.349 557.32,1758.501 557.32,816.423 1075.901,660.271 				"/>
				<polygon style="opacity:0.5;fill:#CAE2EA;" points="1023.94,814.227 609.282,939.087 609.282,871.237 1023.94,746.377 				"/>
				<polygon style="opacity:0.5;fill:#CAE2EA;" points="1023.94,843.804 763.107,922.344 763.107,910.166 1023.94,831.625 				"/>
				<polygon style="opacity:0.5;fill:#CAE2EA;" points="1023.94,874.249 763.107,952.79 763.107,940.611 1023.94,862.071 				"/>
				<polygon style="opacity:0.5;fill:#CAE2EA;" points="1023.94,904.695 763.107,983.236 763.107,971.058 1023.94,892.517 				"/>
				<polygon style="opacity:0.5;fill:#CAE2EA;" points="1023.94,935.141 763.107,1013.682 763.107,1001.504 1023.94,922.962 				"/>
				<polygon style="opacity:0.5;fill:#CAE2EA;" points="1023.94,965.586 763.107,1044.127 763.107,1031.949 1023.94,953.408 				"/>
				<polygon style="opacity:0.5;fill:#CAE2EA;" points="1023.94,996.032 763.107,1074.572 763.107,1062.395 1023.94,983.854 				"/>
				<polygon style="opacity:0.5;fill:#CAE2EA;" points="1023.94,1026.479 763.107,1105.019 763.107,1092.84 1023.94,1014.3 				"/>
				<polygon style="opacity:0.5;fill:#CAE2EA;" points="1023.94,1056.924 763.107,1135.465 763.107,1123.286 1023.94,1044.746 				
					"/>
				<polygon style="opacity:0.5;fill:#CAE2EA;" points="1023.94,1087.369 763.107,1165.91 763.107,1153.732 1023.94,1075.19 				"/>
				<polygon style="opacity:0.5;fill:#CAE2EA;" points="1023.94,1117.814 763.107,1196.355 763.107,1184.178 1023.94,1105.637 				
					"/>
				<polygon style="opacity:0.5;fill:#CAE2EA;" points="1023.94,1148.261 609.282,1273.12 609.282,1260.942 1023.94,1136.082 				
					"/>
				<polygon style="opacity:0.5;fill:#CAE2EA;" points="816.611,1241.136 609.282,1303.566 609.282,1291.389 816.611,1228.959 				
					"/>
				<polygon style="opacity:0.5;fill:#CAE2EA;" points="816.611,1271.582 609.282,1334.012 609.282,1321.833 816.611,1259.403 				
					"/>
				<polygon style="opacity:0.5;fill:#CAE2EA;" points="816.611,1302.027 609.282,1364.458 609.282,1352.279 816.611,1289.85 				
					"/>
				<polygon style="opacity:0.5;fill:#CAE2EA;" points="816.611,1332.474 609.282,1394.903 609.282,1382.726 816.611,1320.295 				
					"/>
				<polygon style="opacity:0.5;fill:#CAE2EA;" points="816.611,1362.92 609.282,1425.349 609.282,1413.171 816.611,1350.741 				
					"/>
				<polygon style="opacity:0.5;fill:#CAE2EA;" points="816.611,1393.364 609.282,1455.795 609.282,1443.616 816.611,1381.187 				
					"/>
				<polygon style="opacity:0.5;fill:#CAE2EA;" points="816.611,1423.811 609.282,1486.24 609.282,1474.063 816.611,1411.632 				
					"/>
				<polygon style="opacity:0.5;fill:#CAE2EA;" points="816.611,1454.257 609.282,1516.687 609.282,1504.508 816.611,1442.078 				
					"/>
				<polygon style="opacity:0.5;fill:#CAE2EA;" points="816.611,1484.702 609.282,1547.133 609.282,1534.954 816.611,1472.523 				
					"/>
				<polygon style="opacity:0.5;fill:#CAE2EA;" points="1023.94,1452.719 609.282,1577.577 609.282,1565.399 1023.94,1440.54 				
					"/>
				<polygon style="opacity:0.5;fill:#CAE2EA;" points="1023.94,1483.164 609.282,1608.023 609.282,1595.845 1023.94,1470.985 				
					"/>
				<polygon style="opacity:0.5;fill:#CAE2EA;" points="1023.94,1513.609 609.282,1638.469 609.282,1626.291 1023.94,1501.432 				
					"/>
				<polygon style="opacity:0.5;fill:#CAE2EA;" points="609.282,1242.676 745.958,1201.52 745.958,915.33 609.282,956.485 				"/>
				<polygon style="opacity:0.5;fill:#CAE2EA;" points="831.245,1480.295 1023.94,1422.272 1023.94,1166.528 831.245,1224.552 				
					"/>
			</g>
			<path style="fill:#F3FCFF;" d="M1664.004,785.385l-545.57-135.484c0,0-28.651,12.04-42.532,10.369l259.291,216.714
				c0,0,179.658,23.28,184.231,15.532C1523.998,884.769,1664.004,785.385,1664.004,785.385z"/>
			<polygon style="fill:#B6D5E0;" points="1664.004,1727.396 1594.482,1758.501 1594.482,816.49 1664.004,785.385 			"/>
			<polygon style="fill:#DAEEF7;" points="1075.901,1602.349 1594.482,1758.501 1594.482,816.423 1075.901,660.271 			"/>
			<g>
				<polygon style="fill:#DFEEF2;" points="1076.211,1602.349 1594.792,1758.501 1594.792,816.423 1076.211,660.271 				"/>
				<polygon style="opacity:0.5;fill:#CAE2EA;" points="1128.172,814.227 1542.831,939.087 1542.831,871.237 1128.172,746.377 				
					"/>
				<polygon style="opacity:0.5;fill:#CAE2EA;" points="1128.172,843.804 1389.006,922.344 1389.006,910.166 1128.172,831.625 				
					"/>
				<polygon style="opacity:0.5;fill:#CAE2EA;" points="1128.172,874.249 1389.006,952.79 1389.006,940.611 1128.172,862.071 				
					"/>
				<polygon style="opacity:0.5;fill:#CAE2EA;" points="1128.172,904.695 1389.006,983.236 1389.006,971.058 1128.172,892.517 				
					"/>
				<polygon style="opacity:0.5;fill:#CAE2EA;" points="1128.172,935.141 1389.006,1013.682 1389.006,1001.504 1128.172,922.962 
									"/>
				<polygon style="opacity:0.5;fill:#CAE2EA;" points="1128.172,965.586 1389.006,1044.127 1389.006,1031.949 1128.172,953.408 
									"/>
				<polygon style="opacity:0.5;fill:#CAE2EA;" points="1128.172,996.032 1389.006,1074.572 1389.006,1062.395 1128.172,983.854 
									"/>
				<polygon style="opacity:0.5;fill:#CAE2EA;" points="1128.172,1026.479 1389.006,1105.019 1389.006,1092.84 1128.172,1014.3 				
					"/>
				<polygon style="opacity:0.5;fill:#CAE2EA;" points="1128.172,1056.924 1389.006,1135.465 1389.006,1123.286 1128.172,1044.746 
									"/>
				<polygon style="opacity:0.5;fill:#CAE2EA;" points="1128.172,1087.369 1389.006,1165.91 1389.006,1153.732 1128.172,1075.19 
									"/>
				<polygon style="opacity:0.5;fill:#CAE2EA;" points="1128.172,1117.814 1389.006,1196.355 1389.006,1184.178 1128.172,1105.637 
									"/>
				<polygon style="opacity:0.5;fill:#CAE2EA;" points="1128.172,1148.261 1542.831,1273.12 1542.831,1260.942 1128.172,1136.082 
									"/>
				<polygon style="opacity:0.5;fill:#CAE2EA;" points="1335.501,1241.136 1542.831,1303.566 1542.831,1291.389 1335.501,1228.959 
									"/>
				<polygon style="opacity:0.5;fill:#CAE2EA;" points="1335.501,1271.582 1542.831,1334.012 1542.831,1321.833 1335.501,1259.403 
									"/>
				<polygon style="opacity:0.5;fill:#CAE2EA;" points="1335.501,1302.027 1542.831,1364.458 1542.831,1352.279 1335.501,1289.85 
									"/>
				<polygon style="opacity:0.5;fill:#CAE2EA;" points="1335.501,1332.474 1542.831,1394.903 1542.831,1382.726 1335.501,1320.295 
									"/>
				<polygon style="opacity:0.5;fill:#CAE2EA;" points="1335.501,1362.92 1542.831,1425.349 1542.831,1413.171 1335.501,1350.741 
									"/>
				<polygon style="opacity:0.5;fill:#CAE2EA;" points="1335.501,1393.364 1542.831,1455.795 1542.831,1443.616 1335.501,1381.187 
									"/>
				<polygon style="opacity:0.5;fill:#CAE2EA;" points="1335.501,1423.811 1542.831,1486.24 1542.831,1474.063 1335.501,1411.632 
									"/>
				<polygon style="opacity:0.5;fill:#CAE2EA;" points="1335.501,1454.257 1542.831,1516.687 1542.831,1504.508 1335.501,1442.078 
									"/>
				<polygon style="opacity:0.5;fill:#CAE2EA;" points="1335.501,1484.702 1542.831,1547.133 1542.831,1534.954 1335.501,1472.523 
									"/>
				<polygon style="opacity:0.5;fill:#CAE2EA;" points="1128.172,1452.719 1542.831,1577.577 1542.831,1565.399 1128.172,1440.54 
									"/>
				<polygon style="opacity:0.5;fill:#CAE2EA;" points="1128.172,1483.164 1542.831,1608.023 1542.831,1595.845 1128.172,1470.985 
									"/>
				<polygon style="opacity:0.5;fill:#CAE2EA;" points="1128.172,1513.609 1542.831,1638.469 1542.831,1626.291 1128.172,1501.432 
									"/>
				<polygon style="opacity:0.5;fill:#CAE2EA;" points="1542.831,1242.676 1406.154,1201.52 1406.154,915.33 1542.831,956.485 				
					"/>
				<polygon style="opacity:0.5;fill:#CAE2EA;" points="1320.867,1480.295 1128.172,1422.272 1128.172,1166.528 1320.867,1224.552 
									"/>
			</g>
			<polygon style="fill:#07085B;" points="445.987,1731.683 462.051,1731.922 462.051,769.837 445.987,769.599 			"/>
			<polygon style="fill:#4D5296;" points="1075.901,640.333 1068.859,635.009 445.987,769.599 462.051,776.288 			"/>
			<path style="fill:#07085B;" d="M1126.276,644.449c-19.672-7.001-35.327-9.181-45.546-9.713
				c-6.197-0.572-25.234-1.073-54.585,9.372c0,0,1.767,1.88,5.354,4.325h0c0,0.001,0.001,0.001,0.001,0.001
				c5.155,3.515,14.076,8.195,26.955,10.161C1097.969,666.869,1126.276,644.449,1126.276,644.449z"/>
			<polygon style="fill:#B6D5E0;" points="1106.367,654.406 1638.613,796.745 1646.674,1735.149 1629.243,1748.933 
				1629.243,800.938 			"/>
		</g>
		<g>
			<g>
				<g>
					<path style="fill:#E03268;" d="M1494.874,1890.994l-413.642-145.009l327.613-180.736l423.096,151.273l-318.066,172.939
						C1508.041,1892.634,1501.14,1893.189,1494.874,1890.994z"/>
					<path style="fill:#DAEEF7;" d="M1113.401,1588.951c0,0,62.221,71.956-9.735,150.686l389.721,146.45
						c9.633,3.62,20.489,1.365,27.884-5.791l14.134-13.678c0,0,49.1-134.6,49.1-137.986s-98.199-82.962-98.199-82.962
						s-161.69-19.471-165.923-19.471C1316.148,1626.199,1113.401,1588.951,1113.401,1588.951z"/>
					<path style="fill:#DAEEF7;" d="M1537.097,1842.069c-2.539,0-289.519-94.813-289.519-94.813s286.133,104.02,286.979,101.479
						C1535.404,1846.196,1537.097,1842.069,1537.097,1842.069z"/>
					<path style="fill:#E03268;" d="M1091.391,1585.143v8.889l411.421,140.949c0,0,25.397,31.746,22.857,74.92
						s-11.892,77.285-25.43,77.758c0,0,8.554,0.705,12.865-1.967c4.311-2.671,14.363-11.666,14.363-11.666
						s17.036-76.823,17.884-78.729c0.846-1.904-8.89-64.55-15.45-69.205c-6.561-4.656-1.058-12.063-32.169-17.777
						c-31.11-5.715-276.185-115.766-282.11-114.283c-5.927,1.48-56.719-0.847-59.471,0
						C1153.4,1594.878,1091.391,1585.143,1091.391,1585.143z"/>
					<path style="fill:#E03268;" d="M1509.161,1731.171c0,0,52.38,88.9,0,160.222l348.776-189.004c0,0,41.059-84.231-11.851-137.14
						L1509.161,1731.171z"/>
					<polygon style="fill:#FF5B7E;" points="1509.161,1731.171 1091.391,1585.143 1468.527,1456.891 1846.087,1565.249 					"/>
					<path style="fill:#DAEEF7;" d="M1442.284,1759.953l-304.021-105.78c0.106,2.226,0.137,4.492,0.094,6.794L1442.284,1759.953z"/>
					<path style="fill:#DAEEF7;" d="M1134.812,1685.718c-0.841,3.106-1.853,6.257-3.036,9.44l223.103,72.838L1134.812,1685.718z"/>
				</g>
				<g>
					<path style="fill:#06BFAD;" d="M1442.603,1685.072l421.982-125.301l-317.216-156.176l-431.798,130.716l308.118,149.438
						C1429.34,1686.489,1436.21,1686.971,1442.603,1685.072z"/>
					<path style="fill:#DAEEF7;" d="M1841.45,1424.078c0,0-66.36,62.177,1.067,130.206l-398.146,126.549
						c-9.842,3.128-20.568,1.179-27.552-5.005l-13.346-11.818c0,0-41.357-116.308-41.162-119.234
						c0.194-2.926,102.972-71.687,102.972-71.687s162.81-16.824,167.043-16.824C1636.56,1456.265,1841.45,1424.078,1841.45,1424.078
						z"/>
					<path style="fill:#DAEEF7;" d="M1403.193,1642.797c2.539,0,294.973-81.929,294.973-81.929s-292.116,89.884-292.816,87.688
						C1404.649,1646.362,1403.193,1642.797,1403.193,1642.797z"/>
					<path style="fill:#06BFAD;" d="M1863.68,1420.786l-0.512,7.681l-419.529,121.794c0,0-27.223,27.432-27.166,64.738
						c0.056,37.307,7.445,66.782,20.956,67.19c0,0-8.595,0.61-12.752-1.699c-4.157-2.308-13.692-10.08-13.692-10.08
						s-12.617-66.383-13.354-68.029c-0.736-1.646,12.603-55.777,19.431-59.8c6.828-4.023,1.752-10.424,33.191-15.361
						s282.845-100.033,288.686-98.753c5.84,1.28,56.768-0.732,59.47,0S1863.68,1420.786,1863.68,1420.786z"/>
					<path style="fill:#06BFAD;" d="M1437.509,1546.97c0,0-57.494,76.819-9.217,138.447l-337.904-163.318
						c0,0-36.212-72.784,19.74-118.503L1437.509,1546.97z"/>
					<polygon style="fill:#02CCC0;" points="1437.509,1546.97 1863.68,1420.786 1493.921,1309.964 1110.128,1403.596 					"/>
					<path style="fill:#DAEEF7;" d="M1502.73,1571.841l310.105-91.405c-0.233,1.924-0.395,3.881-0.483,5.87L1502.73,1571.841z"/>
					<path style="fill:#DAEEF7;" d="M1814.474,1507.693c0.661,2.684,1.492,5.406,2.492,8.158l-227.293,62.938L1814.474,1507.693z"/>
				</g>
				<path style="opacity:0.3;fill:#06BFAD;" d="M1166.918,1428.467c0,0-56.888,59.34-12.422,124.724l25.167,12.059
					c0,0-32.363-78.212,15.722-124.315L1166.918,1428.467z"/>
				<g>
					<path style="fill:#F4A640;" d="M1539.766,1532.016l-351.496-119.274l255.922-148.009l359.754,124.422l-248.657,141.62
						C1550.729,1533.371,1545.09,1533.822,1539.766,1532.016z"/>
					<path style="fill:#DAEEF7;" d="M1202.811,1283.947c0,0,56.685,59.075,3.441,123.604l331.916,120.438
						c8.204,2.977,16.969,1.136,22.512-4.729l10.594-11.209c0,0,30.182-110.378,29.924-113.156
						c-0.257-2.777-87.135-68.131-87.135-68.131s-134.569-16.099-138.053-16.102
						C1372.525,1314.66,1202.811,1283.947,1202.811,1283.947z"/>
					<path style="fill:#DAEEF7;" d="M1570.801,1491.914c-2.091-0.002-245.514-78.002-245.514-78.002s243.426,85.552,243.93,83.469
						C1569.721,1495.299,1570.801,1491.914,1570.801,1491.914z"/>
					<path style="fill:#F4A640;" d="M1184.404,1280.806l0.675,7.292l349.36,115.943c0,0,23.317,26.062,24.509,61.476
						c1.191,35.415-3.913,63.391-15.021,63.767c0,0,7.095,0.586,10.44-1.602c3.345-2.188,10.936-9.56,10.936-9.56
						s8.183-63.007,8.735-64.569c0.552-1.561-12.225-52.957-17.978-56.783c-5.755-3.823-1.789-9.896-27.83-14.607
						c-26.042-4.712-236.132-95.18-240.896-93.969s-46.75-0.738-48.95-0.046S1184.404,1280.806,1184.404,1280.806z"/>
					<path style="fill:#F4A640;" d="M1539.375,1400.921c0,0,49.873,72.967,12.181,131.434l272.713-154.774
						c0,0,27.392-69.064-20.18-112.509L1539.375,1400.921z"/>
					<polygon style="fill:#FEB546;" points="1539.375,1400.921 1184.404,1280.806 1485.079,1175.891 1804.089,1265.071 					"/>
					<path style="fill:#DAEEF7;" d="M1486.517,1424.479l-258.284-87.01c0.256,1.825,0.454,3.685,0.593,5.572L1486.517,1424.479z"/>
					<path style="fill:#DAEEF7;" d="M1227.789,1363.344c-0.455,2.548-1.049,5.131-1.78,7.742l189.175,59.924L1227.789,1363.344z"/>
				</g>
			</g>
			<polygon style="fill:#F4A640;" points="1508.944,1365.178 1303.479,1293.108 1344.093,1275.428 1561.76,1339.948 			"/>
			<path style="fill:#FF5B7E;" d="M1267.44,1377.662c0,0-21.188,21.492-11.525,50.481c0,0,6.442-15.031,12.884-19.326
				c0,0-1.073,18.253,6.442,25.769c0,0,6.636-40.445,26.938-44.381L1267.44,1377.662z"/>
			<path style="fill:#FEB546;" d="M1509.161,1613.669c0,0,13.028,15.255,11.954,34.581c0,0,7.154-9.887,8.945-17.291
				c0,0,7.16,3.333,11.455,11.922c0,0,8.025-20.466-0.282-38.148L1509.161,1613.669z"/>
			<path style="fill:#02CCC0;" d="M1307.976,1713.223c0,0-21.997,29.512-14.481,76.754c0,0,7.516-19.326,24.694-30.063
				c0,0,7.516,31.137,11.811,41.874c0,0,17.164-62.647,37.571-67.829L1307.976,1713.223z"/>
		</g>
		<g>
			<path style="fill:#FFC0BB;" d="M774.263,529.479c27.067,7.712,122.313-14.21,153.535-21.788l1.095-0.527l11.02-7.71
				c9.123-6.041,18.475-13.033,19.429-12.637c1.339,0.555,1.379,1.806-6.039,12.315c-0.482,0.682-0.02,1.636,0.815,1.667
				c6.468,0.239,26.813,1.123,27.133,2.786c0.379,1.978-17.82,1.632-18.471,3.381c-0.651,1.749,17.107,1.636,17.171,3.815
				c0.065,2.179-16.131,1.736-16.424,2.664c-0.292,0.927,15.187,3.012,15.992,4.273c0.805,1.261-15.981,1.049-16.655,2.071
				c-0.673,1.023,10.875,5.031,10.65,6.063c-0.225,1.032,2.71,0.727-25.844-0.836c0,0-7.145-0.578-9.87-0.971l-7.092,3.256
				c-57.532,33.358-166.337,36.447-166.337,36.447L774.263,529.479z"/>
			<g>
				<path style="fill:#FEB546;" d="M705.073,508.802c0,0-13.217,12.527-21.517,3.844c0,0-23.818,5.158-21.833-15.813
					c0,0-16.226-9.821-10.243-28.679c0,0-14.569-13.262,1.367-28.564c0,0-10.488-17.898,9.646-23.938
					c0,0,2.605-30.642,31.228-22.448c0,0,21.578-23.251,40.158-8.633c0,0,19.414-6.393,27.519,15.917c0,0,20.591,6.906,13.061,32.2
					c0,0,20.006,22.084,6.751,44.437c0,0,7.014,29.923-26.647,26.085C720.903,499.372,705.073,508.802,705.073,508.802z"/>
				<path style="fill:#FF5B7E;" d="M799.316,570.469c0,0-35.194,12.382-64.705,4.437c-5.475-1.474-9.383-6.402-9.32-12.078
					c0.066-5.959-10.735-30.706,1.527-34.069c26.296-7.211,65.135-5.447,65.135-5.447S804.453,541.373,799.316,570.469z"/>
				<path style="fill:#FF5B7E;" d="M703.544,520.97c0,0-29.3,5.211-39.531,16.976c-10.23,11.765-36.388,142.014-30.123,165.311
					l123.794-17.732c0,0,13.346-104.07,10.653-134.091s-35.454-28.775-35.454-28.775L703.544,520.97z"/>
				<path style="fill:#FFFFFF;" d="M768.232,576.976c0.465-15.766,0-26.633,0-26.633
					C769.974,561.178,768.232,576.976,768.232,576.976z"/>
				<path style="fill:#FFFFFF;" d="M660.116,618.305c0,0,5.201,2.542,11.669,2.542c5.507-8.733,13.206-30.867,12.602-49.953
					C672.604,590.361,660.116,618.305,660.116,618.305z"/>
				<path style="fill:#4188E4;" d="M845.007,809.059l-5.203,18.065c-0.43,1.492,0.434,3.047,1.929,3.474l42.381,12.103
					c3.067,0.876,5.386-2.787,3.273-5.171l-21.341-24.348C866.046,813.183,856.68,819.755,845.007,809.059z"/>
				<path style="fill:#282828;" d="M767.712,688.386c0,0,85.015-23.902,94.946-22.829c11.039,1.193,41.455,19.874,7.024,152.769
					c0,0-16.546,5.289-26.637-6.167l0.689-75.694c0,0-61.487,33.696-80.466,25.493C744.289,753.754,767.712,688.386,767.712,688.386
					z"/>
				<path style="fill:#4188E4;" d="M708.487,808.591l-11.355,14.999c-0.938,1.238-0.693,3.002,0.547,3.938l35.156,26.531
					c2.544,1.92,6.025-0.667,4.914-3.652l-11.131-30.404C726.618,820.002,715.519,822.773,708.487,808.591z"/>
				<path style="fill:#333333;" d="M636.979,702.814c0,0-1.657,87.101,86.619,54.244l-17.639,54.756
					c0,0,12.632,12.949,21.439,11.408c8.119-1.421,91.994-103.576,43.24-139.746c-7.008-5.2-15.582-7.85-24.319-7.995
					C724.273,675.114,666.93,676.846,636.979,702.814z"/>
				<path style="fill:#FFC0BB;" d="M703.892,533.821L703.892,533.821l-0.775-28.648l28.396-0.315l5.754,25.005
					C737.265,529.864,721.259,548.165,703.892,533.821z"/>
				<path style="fill:#F99893;" d="M735.357,521.567l-3.845-16.71l-28.396,0.315l0.38,14.061
					C709.699,524.139,720.379,528.738,735.357,521.567z"/>
				<path style="fill:#F99893;" d="M758.013,467.883c-0.901,4.851,1.523,9.357,5.414,10.066c3.891,0.708,7.775-2.65,8.676-7.501
					c0.901-4.851-1.523-9.358-5.414-10.066C762.798,459.673,758.914,463.031,758.013,467.883z"/>
				<path style="fill:#FFC0BB;" d="M762.152,494.298c0.717-2.161,1.237-4.403,1.548-6.701c0.955-6.198,0.771-12.528,0.186-17.961
					c-0.126-1.166-0.184-2.336-0.219-3.509c-0.145-4.733-1.167-9.569-3.276-14.323c-6.786-15.293-23.166-24.463-39.815-22.252
					c-22.429,2.979-37.085,24.166-32.627,45.649c-2.613-0.809-5.308-0.559-7.412,0.957c-4.036,2.907-4.363,9.333-0.731,14.353
					c3.632,5.02,9.849,6.733,13.884,3.825c0.561-0.404,1.042-0.881,1.459-1.407c5.663,17.889,23.623,28.862,41.59,24.801
					c8.787-1.986,16.029-7.223,20.845-14.226c0.333-0.419,0.673-0.899,1.021-1.449C760.135,499.646,761.287,497.024,762.152,494.298
					z"/>
				<path style="fill:#F99893;" d="M733.743,465.259c0.65,2.087,1.231,4.139,1.893,6.123c0.673,1.933,1.467,3.979,2.642,5.149
					l0.219,0.178c0.082,0.066,0.109,0.106,0.272,0.222c0.26,0.212,0.549,0.371,0.775,0.639c0.477,0.485,0.883,1.093,1.082,1.778
					c0.431,1.38,0.036,2.831-0.675,3.847c-1.451,2.099-3.853,2.923-6.012,2.984c1.964-0.932,3.747-2.184,4.53-3.844
					c0.35-0.813,0.498-1.657,0.183-2.321c-0.134-0.334-0.344-0.64-0.634-0.899c-0.116-0.15-0.321-0.242-0.47-0.372l-0.36-0.276
					l-0.408-0.327c-0.97-0.941-1.495-2.021-1.923-3.086c-0.407-1.077-0.687-2.154-0.877-3.246
					C733.603,469.633,733.488,467.44,733.743,465.259z"/>
				<path style="fill:#333333;" d="M722.266,471.417c0.403,1.793-0.728,3.577-2.528,3.984c-1.8,0.407-3.586-0.717-3.99-2.511
					c-0.403-1.793,0.729-3.577,2.529-3.984C720.076,468.499,721.862,469.624,722.266,471.417z"/>
				<path style="fill:#333333;" d="M750.665,466.92c0.404,1.794-0.728,3.577-2.529,3.983c-1.8,0.407-3.586-0.717-3.989-2.51
					c-0.403-1.794,0.729-3.578,2.529-3.984C748.476,464.002,750.262,465.126,750.665,466.92z"/>
				<path style="fill:#07085B;" d="M724.318,463.055c-1.779-0.053-3.428-0.012-5.02,0.172c-1.589,0.186-3.094,0.558-4.502,1.135
					c-1.394,0.593-2.766,1.303-3.991,2.323c-0.68,0.435-1.207,1.052-1.873,1.572c-0.626,0.56-1.172,1.203-1.887,1.781
					c0.201-0.856,0.474-1.715,0.842-2.535c0.441-0.772,0.836-1.615,1.468-2.285c1.121-1.464,2.732-2.57,4.466-3.288
					c1.747-0.714,3.667-0.96,5.486-0.758C721.122,461.39,722.887,461.97,724.318,463.055z"/>
				<path style="fill:#07085B;" d="M738.947,460.736c0.986-1.504,2.456-2.645,4.092-3.46c1.647-0.804,3.537-1.217,5.421-1.133
					c1.873,0.093,3.761,0.594,5.305,1.596c0.82,0.418,1.473,1.08,2.146,1.659c0.621,0.648,1.164,1.366,1.639,2.105
					c-0.866-0.305-1.596-0.726-2.372-1.043c-0.801-0.266-1.504-0.67-2.29-0.851c-1.495-0.549-3.024-0.757-4.536-0.846
					c-1.519-0.071-3.061,0.086-4.62,0.445C742.172,459.571,740.605,460.088,738.947,460.736z"/>
				<path style="fill:#FFC0BB;" d="M670.313,595.955c-17.036,22.449-31.403,119.323-35.748,151.221l0.091,1.214l3.145,13.094
					c2.286,10.715,5.372,21.991,4.656,22.737c-1.004,1.046-2.181,0.628-9.241-10.125c-0.458-0.698-1.513-0.614-1.846,0.153
					c-2.581,5.949-10.822,24.614-12.484,24.305c-1.975-0.367,4.982-17.224,3.595-18.469c-1.387-1.245-7.759,15.368-9.806,14.635
					c-2.048-0.733,4.269-15.688,3.514-16.298c-0.754-0.61-8.337,13.074-9.802,13.366c-1.465,0.292,4.854-15.297,4.149-16.298
					c-0.705-1-8.64,8.316-9.517,7.73c-0.877-0.586-1.665,2.264,10.201-23.813c0,0,3.143-6.457,4.502-8.857l-0.439-7.806
					c-10.013-65.847,26.797-168.51,26.797-168.51L670.313,595.955z"/>
				<path style="fill:#FF5B7E;" d="M625.55,604.976c0,0,9.168-50.623,37.782-68.789c12.104-7.685,19.035-10.576,24.463-7.429
					c5.7,3.305-6.722,15.601-4.233,29.48c4.929,27.486-12.803,62.005-12.803,62.005S646.745,617.556,625.55,604.976z"/>
				<path style="fill:#FEB546;" d="M689.978,429.874l-0.433,24.729l57.473-15.533c0,0,6.477,5.451,7.431,5.307
					c0.954-0.144,8.225-3.462,7.913-4.506c-0.313-1.044-21.078-27.093-21.078-27.093s-19.062,4.864-20.762,5.374
					C718.823,418.662,689.978,429.874,689.978,429.874z"/>
				<path style="fill:#FF5B7E;" d="M687.191,465.956c0,0,29.312-25.421,74.112-12.194c0,0-0.292-5.159-2.245-11.683
					c0,0-30.424-19.677-73.237,11.508C685.821,453.587,683.54,456.795,687.191,465.956z"/>
				<path style="fill:#FFFFFF;" d="M749.223,489.457c-0.67,5.726-5.691,10.462-12.179,11.046c-6.488,0.584-12.265-3.18-13.934-8.695
					L749.223,489.457z"/>
			</g>
		</g>
		<g>
			<path style="fill:#07085B;" d="M547.017,1781.309v19.54c0,1.613-1.31,2.922-2.926,2.922h-45.825
				c-3.316,0-4.579-4.323-1.782-6.103l25.105-16.359C521.589,1781.309,532.277,1788.667,547.017,1781.309z"/>
			<path style="fill:#07085B;" d="M648.06,1781.309v19.54c0,1.613,1.311,2.922,2.927,2.922h45.825c3.316,0,4.579-4.323,1.782-6.103
				l-25.105-16.359C673.488,1781.309,662.8,1788.667,648.06,1781.309z"/>
			<polygon style="fill:#FFC0BB;" points="594.754,1287.758 594.623,1319.709 625.711,1314.924 620.524,1278.996 			"/>
			<path style="fill:#07085B;" d="M636.287,1311.276c0,0,22.06,5.428,40.397,19.233c18.337,13.805,55.278,40.391,53.513,67.488
				c-1.765,27.097-31,69.443-31,69.443l-9.777-20.295c0,0,8.862-47.662,6.871-49.42c-1.991-1.758-39.926-36.041-39.926-36.041
				L636.287,1311.276z"/>
			<path style="fill:#55769F;" d="M687.365,1497.927c-0.078-3.56,9.205,6.938,9.029,4.095c-3.643-59.111-119.32-9.549-119.32-9.549
				l-28.236,20.689l-36.941,273.797c0,0,18.604,6.634,35.232,2.148l69.113-235.839l8.682-3.334
				C624.923,1549.935,663.531,1523.041,687.365,1497.927z"/>
			<path style="fill:#3C5E8C;" d="M696.381,1488.593c-23.834,25.114-71.457,61.342-71.457,61.342l0,0l23.156,237.464
				c0,0,22.811,3.359,33.742-2.552C681.821,1784.847,697.936,1559.074,696.381,1488.593z"/>
			<path style="fill:#3C5E8C;" d="M548.838,1513.162l-4.55,39.099c12.04,4.652,41.384,9.626,63.495-38.665
				c6.973-15.229,8.765-26.19,7.48-34.061c-21.177,5.652-38.189,12.938-38.189,12.938L548.838,1513.162z"/>
			<path style="fill:#FFCC68;" d="M654.976,1353.571c-0.973,0-11.871-24.063-17.715-37.13c-1.831-4.092-6.555-6.067-10.737-4.438
				c-15.826,6.163-33.322-0.104-33.322-0.104s-52.498,183.297-30.831,197.697c56.79,37.744,121.989-5.779,121.989-5.779
				s8.366-34.264,8.366-35.597C692.726,1466.886,656.311,1353.571,654.976,1353.571z"/>
			<path style="fill:#07085B;" d="M593.202,1311.898c0,0-10.03,14.822-10.98,14.576c-6.795-1.232-25.552-17.893-28.756,37.32
				c1.781,16.892-14.299,153.517-14.299,153.517c43.631,20.447,55.927,8.509,55.927,8.509
				C603.998,1484.48,593.202,1311.898,593.202,1311.898z"/>
			<path style="fill:#07085B;" d="M593.202,1311.898c0,0-28.241,3.604-48.914,13.385c-20.672,9.781-57.409,29.434-55.939,56.82
				c1.469,27.387,54.171,85.338,54.171,85.338l7.956-7.972l7.06-10.765l-36.258-63.931l46.486-19.421L593.202,1311.898z"/>
			<path style="fill:#07085B;" d="M642.027,1314.94c13.289,14.549,39.779,59.722,60.862,197.25c0,0-23.407,14.191-50.154,15.653
				c0,0-6.941-181.937-26.641-215.677l0,0C631.422,1309.375,637.972,1310.502,642.027,1314.94z"/>
			<path style="fill:#FFC0BB;" d="M685.609,1441.193c7.036,4.747,11.012,13.152,13.241,20.481c0.09,0.364,0.181,0.729,0.268,1.096
				c1.401,5.917-1.643,7.094-3.171,7.323c-0.461,0.07-0.928-0.188-1.158-0.633c-0.426-0.82-0.995-1.86-1.842-3.23
				c-4.932-7.978-10.661,5.073-12.37,1.856c-2.161-4.063,7.33-7.563,6.069-9.615c-2.372-3.861-7.828,5.048-9.654,2.627
				c-1.999-2.649,8.805-5.179,6.15-9.653c-1.424-2.398-8.594,5.225-9.456,2.005c-0.905-3.383,8.151-4.777,6.565-7.522
				c-2.347-4.061-7.371,5.045-9.375,2.179C669.673,1446.385,680.623,1437.83,685.609,1441.193z"/>
			<path style="opacity:0.6;fill:#FC8D84;" d="M622.912,1295.535l-2.388-16.539l-25.798,11.79l-0.014,6.307
				C600.928,1298.611,612.561,1299.969,622.912,1295.535z"/>
			<polygon style="fill:#07085B;" points="639.35,1222.56 641.229,1244.487 637.759,1246.666 631.345,1219.965 			"/>
			<path style="fill:#F99893;" d="M634.682,1242.222c-0.954,4.967,1.498,9.611,5.478,10.374c3.98,0.762,7.98-2.646,8.934-7.613
				s-1.499-9.611-5.478-10.373C639.636,1233.847,635.636,1237.255,634.682,1242.222z"/>
			<path style="fill:#FFC0BB;" d="M638.747,1269.351c0.748-2.21,1.295-4.505,1.629-6.858c1.018-6.348,0.872-12.842,0.308-18.418
				c-0.121-1.197-0.172-2.397-0.201-3.601c-0.117-4.854-1.131-9.824-3.26-14.72c-6.849-15.746-23.562-25.301-40.625-23.186
				c-22.987,2.849-38.135,24.441-33.711,46.515c-2.671-0.854-5.432-0.622-7.596,0.913c-4.152,2.944-4.529,9.532-0.843,14.714
				c3.686,5.182,10.041,6.995,14.193,4.051c0.577-0.409,1.073-0.894,1.503-1.43c5.682,18.398,24.001,29.816,42.426,25.817
				c9.011-1.956,16.462-7.26,21.44-14.398c0.343-0.427,0.695-0.916,1.055-1.476C636.646,1274.816,637.843,1272.139,638.747,1269.351
				z"/>
			<path style="fill:#333333;" d="M598.052,1245.518c0.401,1.844-0.77,3.662-2.616,4.063c-1.846,0.401-3.667-0.768-4.069-2.611
				c-0.401-1.843,0.77-3.661,2.616-4.063C595.83,1242.506,597.651,1243.676,598.052,1245.518z"/>
			<path style="fill:#333333;" d="M627.164,1241.167c0.401,1.844-0.77,3.662-2.616,4.063c-1.846,0.401-3.667-0.769-4.069-2.611
				s0.769-3.662,2.616-4.063C624.941,1238.155,626.763,1239.324,627.164,1241.167z"/>
			<path style="fill:#FF5500;" d="M600.646,1238.024c-1.783-0.316-3.463-0.52-5.112-0.546c-1.645-0.029-3.237,0.15-4.753,0.563
				c-1.505,0.43-2.999,0.993-4.37,1.895c-1.852,1.05-3.238,2.378-4.188,3.002c0.626-1.576,1.627-3.446,3-4.546
				c1.324-1.329,3.088-2.236,4.925-2.744c1.851-0.501,3.815-0.515,5.631-0.094C597.586,1235.994,599.309,1236.775,600.646,1238.024z
				"/>
			<path style="fill:#FF5500;" d="M614.244,1235.79c0.865-1.612,2.246-2.902,3.816-3.897c1.585-0.979,3.451-1.595,5.365-1.713
				c1.903-0.106,3.865,0.188,5.545,1.023c1.647,0.6,3.209,2.061,4.302,3.346c-1.212-0.316-2.768-1.088-4.931-1.504
				c-1.588-0.414-3.184-0.471-4.748-0.396c-1.569,0.094-3.135,0.434-4.684,0.987C617.357,1234.189,615.831,1234.92,614.244,1235.79z
				"/>
			<path style="fill:#FF5500;" d="M635.262,1199.147c0,0,11.536-2.218-2.673-9.173c-14.21-6.955-49.046-11.005-67.258,4.572
				c0,0-6.125-7.846-11.629-4.399c-5.504,3.447,5.731,7.258,5.731,7.258s-7.691,1.479-9.174,5.745
				c-1.096,3.153,3.607,2.218,6.135,1.517c-4.179,1.72-16.471,13.31-0.508,44.965c2.825-1.323,21.092-27.337,21.092-27.337
				s36.722,12.048,30.027,2.056c0,0,42.796,10.747,32.422-8.622C639.427,1215.729,655.202,1213.359,635.262,1199.147z"/>
			<path style="fill:#FF5500;" d="M576.978,1222.295c0.593,2.137-9.537,24.955-14.091,26.788c-3.659,0.043-7.001,0.549-7.001,0.549
				c-1.131-6.5,9.874-24.663,9.874-24.663L576.978,1222.295z"/>
			<path style="fill:#F99893;" d="M608.915,1236.339c-0.232,2.455-0.06,4.917,0.4,7.354c0.234,1.224,0.564,2.431,1.036,3.633
				c0.495,1.189,1.098,2.394,2.189,3.432c1.219,0.952,1.779,1.224,2.144,2.118c0.367,0.766,0.204,1.734-0.189,2.66
				c-0.877,1.89-2.883,3.305-5.085,4.348c2.42-0.116,5.09-1.08,6.674-3.445c0.775-1.145,1.194-2.764,0.695-4.292
				c-0.525-1.618-1.54-2.227-2.663-3.119c-0.679-0.621-1.242-1.593-1.74-2.589c-0.523-1.001-0.88-2.118-1.301-3.215
				C610.313,1240.992,609.646,1238.685,608.915,1236.339z"/>
			<path style="fill:#07085B;" d="M534.372,1406.983c-3.994-6.876-8.004-13.743-12.099-20.563c-0.333-0.559-0.673-1.114-1.011-1.671
				c1.075-0.391,2.149-0.787,3.221-1.187c4.177-1.548,8.317-3.184,12.45-4.839c4.121-1.684,8.235-3.385,12.313-5.176
				c4.081-1.781,8.142-3.615,12.141-5.601c-4.256,1.353-8.45,2.855-12.623,4.411c-4.177,1.547-8.317,3.184-12.451,4.836
				c-4.122,1.683-8.236,3.384-12.314,5.174c-4.082,1.781-8.142,3.615-12.14,5.603c2.774-0.879,5.52-1.828,8.253-2.81
				c0.348,0.634,0.694,1.27,1.048,1.9c3.865,6.95,7.815,13.853,11.78,20.746c3.993,6.877,8.003,13.744,12.096,20.563
				c4.073,6.831,8.24,13.608,12.498,20.333c-3.701-7.045-7.494-14.038-11.38-20.977
				C542.289,1420.778,538.339,1413.876,534.372,1406.983z"/>
			<path style="fill:#FFC0BB;" d="M563.448,1456.723c-0.428-0.424-0.206-1.152,0.383-1.276c9.079-1.918,9.669-2.597,9.231-3.543
				c-0.254-0.548-8.383-2.031-15.604-3.249c0.045,0.03,0.077,0.051,0.077,0.051l-4.653,7.366c0,0-7.286,8.192-7.47,8.375
				c-0.001,0.002-0.011,0.015-0.013,0.018c0.447,0.598,0.728,0.995,0.728,0.995c14.387,14.76,14.731,14.366,15.355,13.933
				c0.625-0.435-3.542-8.183-2.685-8.393c0.858-0.211,9.662,8.094,9.852,7.036c0.19-1.058-7.003-9.71-6.394-10.057
				c0.609-0.346,8.987,7.792,10.019,6.612c1.031-1.18-8.447-9.787-7.246-10.391c1.201-0.604,10.689,8.46,11.456,7.232
				C577.127,1470.4,566.763,1460.005,563.448,1456.723z"/>
			<path style="fill:#07085B;" d="M542.519,1467.441l3.957-4.543c1.3-1.525,2.622-3.028,3.889-4.576
				c1.277-1.538,2.528-3.098,3.741-4.686c0.597-0.8,1.208-1.594,1.756-2.43c0.601-0.804,1.109-1.664,1.673-2.502
				c-0.775,1.861-1.806,3.609-2.91,5.299c-1.104,1.692-2.351,3.282-3.624,4.845c-1.294,1.547-2.641,3.047-4.059,4.478
				C545.527,1464.76,544.076,1466.158,542.519,1467.441z"/>
			<path style="fill:#FFFFFF;" d="M622.756,1265.872c-0.187,4.313-4.037,8.27-9.368,9.267c-5.331,0.998-10.353-1.297-12.088-5.251
				L622.756,1265.872z"/>
		</g>
		<g>
			<path style="fill:#FF5B7E;" d="M1267.07,570.772c0,0-26.627-2.537-44.269,10.187c-17.642,12.722-38.24,34.216-82.982,20.852
				c0,0,21.151,25.438,49.273,28.189c28.122,2.751,20.534-19.897,84.515-6.551l-3.138-27.091L1267.07,570.772z"/>
			<polygon style="fill:#FFC0BB;" points="1412.796,995.723 1416.769,1257.279 1423.433,1276.156 1443.482,1257.294 
				1462.631,989.051 			"/>
			<path style="fill:#FFC0BB;" d="M1532.459,1004.642l-50.145-0.026c0,0,23.471,251.15,23.297,252.711
				c-0.171,1.563,8.452,12.848,8.452,12.848l18.263-12.834L1532.459,1004.642z"/>
			<polygon style="fill:#FFC0BB;" points="1412.796,995.723 1416.769,1257.279 1423.433,1276.156 1443.482,1257.294 
				1462.631,989.051 			"/>
			<path style="fill:#FFC0BB;" d="M1532.459,1004.642l-50.145-0.026c0,0,23.471,251.15,23.297,252.711
				c-0.171,1.563,8.452,12.848,8.452,12.848l18.263-12.834L1532.459,1004.642z"/>
			<path style="fill:#FBF9EB;" d="M1415.711,1187.652l1.058,69.627l6.664,18.877l20.05-18.862l5.017-70.266
				C1433.131,1192.963,1421.734,1190.232,1415.711,1187.652z"/>
			<path style="fill:#FBF9EB;" d="M1499.329,1187.644c3.611,39.15,6.342,69.146,6.282,69.683
				c-0.171,1.563,8.452,12.848,8.452,12.848l18.263-12.834l0.037-69.377C1518.115,1192.272,1506.162,1189.933,1499.329,1187.644z"/>
			<path style="fill:#02CCC0;" d="M1405.352,1008.547c14.247,5.712,36.371,11.44,60.81,6.234l0,0l3.404-36.772
				c2.556,2.236,4.08,3.298,4.08,3.298l3.259,32.283l0,0c0,0,27.077,9.905,60.206,3.806c0.117-14.354,0.149-27.07,0.065-37.242
				c-0.609-73.46-23.312-84.222-23.312-84.222l-38.656-9.808l-8.489,1.458c-13.512-4.447-37.962-9.527-48.038,7.34
				c-14.273,23.895-13.476,97.573-13.476,97.573S1405.247,998.435,1405.352,1008.547z"/>
			<path style="fill:#FFC0BB;" d="M1431.304,821.208l-36.247-16.801l3.274,38.397c0,0-68.633-31.203-72.1-34.342
				c-1.154-1.046-2.472-3.791-3.737-7.002c-1.331-3.376-2.224-6.891-3.021-10.421c-1.204-5.331-5.758-9.602-7.293-10.993
				c-0.668-0.605-2.595-4.237-3.054-5.9c-0.31-1.125-1.983-1.037-2.161,0.116l-0.37,2.4c-0.363,2.354,0.46,4.79,0.985,6.09
				l-0.954-0.366l-1.589,16.148l1.93,14.12l10.856,8.185c0,0,95.617,68.902,104.368,59.913
				C1431.596,871.092,1431.304,821.208,1431.304,821.208z"/>
			<path style="fill:#07085B;" d="M1443.482,1257.294l-0.01,19.919c-0.001,1.645-1.379,2.978-3.077,2.977l-48.142-0.025
				c-3.484-0.002-4.809-4.408-1.87-6.221l26.385-16.664C1416.769,1257.279,1427.993,1264.786,1443.482,1257.294z"/>
			<path style="fill:#07085B;" d="M1532.326,1257.34l-0.01,19.919c-0.001,1.646-1.379,2.978-3.077,2.977l-48.142-0.024
				c-3.484-0.002-4.809-4.408-1.87-6.222l26.384-16.663C1505.611,1257.326,1516.836,1264.833,1532.326,1257.34z"/>
			<path style="fill:#F2B955;" d="M1423.104,739.983c0,0-7.428,1.763-18.179,15.052c-10.751,13.289-20.336,50.058-20.336,50.058
				l34.288,18.751l22.337-44.404L1423.104,739.983z"/>
			<path style="fill:#FFFFFF;" d="M1520.164,952.048c-3.619,1.332-7.187,2.773-10.718,4.296c-3.526,1.533-7.013,3.15-10.475,4.815
				c-3.463,1.663-6.897,3.381-10.302,5.154c-3.396,1.787-6.797,3.569-10.138,5.443l-0.269-0.64c2.527-0.54,5.06-0.901,7.613-1.166
				c2.555-0.256,5.12-0.358,7.685-0.359c2.563-0.007,5.13,0.135,7.67,0.446l1.904,0.25l1.89,0.336l0.943,0.171l0.932,0.224
				l1.859,0.452l-1.879-0.364l-0.938-0.182l-0.947-0.138l-1.892-0.268l-1.903-0.182c-0.634-0.072-1.271-0.103-1.907-0.133
				c-0.636-0.027-1.271-0.087-1.907-0.098l-1.91-0.037c-0.637-0.015-1.274,0.014-1.91,0.018c-2.546,0.048-5.088,0.228-7.616,0.504
				c-2.525,0.279-5.054,0.661-7.515,1.205l-2.282,0.504l2.014-1.145c3.348-1.901,6.723-3.737,10.152-5.482
				c3.425-1.754,6.879-3.45,10.362-5.092c3.491-1.626,7.032-3.149,10.597-4.616c1.793-0.71,3.586-1.418,5.406-2.059
				C1516.489,953.228,1518.33,952.646,1520.164,952.048z"/>
			<path style="fill:#FFFFFF;" d="M1418.651,950.539c1.833,0.598,3.675,1.182,5.478,1.863c1.82,0.643,3.613,1.351,5.405,2.064
				c3.562,1.471,7.102,2.998,10.592,4.626c3.48,1.646,6.934,3.345,10.356,5.103c3.428,1.749,6.802,3.589,10.146,5.493l2.012,1.146
				l-2.279-0.506c-2.462-0.546-4.99-0.931-7.515-1.211c-2.528-0.28-5.069-0.463-7.616-0.514c-0.636-0.005-1.272-0.033-1.91-0.018
				l-1.91,0.035c-0.636,0.009-1.27,0.067-1.907,0.095c-0.638,0.03-1.274,0.06-1.905,0.131l-1.905,0.18l-1.893,0.268l-0.947,0.136
				l-0.938,0.183l-1.881,0.362l1.861-0.451l0.932-0.222l0.943-0.17l1.89-0.336l1.904-0.247c2.542-0.308,5.108-0.447,7.671-0.439
				c2.565,0.003,5.131,0.108,7.684,0.367c2.554,0.267,5.086,0.632,7.612,1.173l-0.27,0.641c-3.337-1.876-6.738-3.664-10.132-5.454
				c-3.402-1.777-6.835-3.499-10.297-5.164c-3.459-1.669-6.943-3.289-10.468-4.827
				C1425.835,953.318,1422.269,951.875,1418.651,950.539z"/>
			<path style="opacity:0.5;fill:#DAEEF7;" d="M1426.386,908.116c3.139,0.555,6.295,1.005,9.454,1.413
				c3.159,0.414,6.325,0.775,9.498,1.078c6.343,0.617,12.707,1.026,19.079,1.162c3.186,0.067,6.371,0.076,9.557,0.001
				c3.185-0.089,6.366-0.26,9.541-0.513c3.173-0.276,6.339-0.636,9.483-1.143c3.142-0.509,6.265-1.148,9.344-1.959
				c-3.062,0.871-6.175,1.569-9.312,2.141c-3.144,0.545-6.312,0.937-9.488,1.249c-3.179,0.3-6.367,0.46-9.558,0.566
				c-3.193,0.087-6.386,0.092-9.576,0.033c-6.382-0.168-12.757-0.572-19.102-1.251c-3.171-0.339-6.336-0.731-9.493-1.184
				C1432.659,909.242,1429.513,908.731,1426.386,908.116z"/>
			<path style="fill:#07085B;" d="M1509.679,672.128c0,0,6.772-35.04-12.963-47.377c-19.736-12.336-40.08-10.167-53.682-1.876
				c-13.602,8.29-25.683,34.619-9.183,59.869l40.658-25.243L1509.679,672.128z"/>
			<path style="fill:#EA9734;" d="M1498.18,920.001c0.133,0.371,0.332,0.714,0.511,1.065l0.55,1.049l1.113,2.091l1.857,3.459
				l5.297,9.209c0.729,1.396,7.682,13.508,9.327,16.216c-2.048-2.446-4.516-4.867-6.183-7.563c-0.842-1.345-1.624-2.724-2.417-4.094
				c-0.778-1.379-1.529-2.772-2.278-4.166c-1.467-2.801-2.884-5.628-4.202-8.499c-0.665-1.432-1.301-2.878-1.918-4.332
				c-0.301-0.729-0.605-1.458-0.89-2.196C1498.67,921.503,1498.363,920.771,1498.18,920.001z"/>
			<path style="fill:#FFCC68;" d="M1565.738,782.86c-15.583-18.82-32.19-36.236-47.146-45.604
				c-12.483-7.818-33.223-9.966-38.15-9.921c-12.17-1.534-21.008-2.177-27.548,1.167c-19.467,2.704-39.92,13.612-40.188,20.452
				c-1.336,34.149-1.735,60.326-1.561,80.399c0,0.065-0.609,72.771-0.09,88.302c0,0,79.039,17.08,119.478,6.858
				c0,0,6.727-95.1-2.85-120.788l4.084,5.206C1531.769,808.931,1548.037,805.238,1565.738,782.86z"/>
			<path style="fill:#FFC0BB;" d="M1563.353,785.817c-10.731,13.038-22.604,19.953-28.55,22.129l38.201,45.807l-69.966,75.352
				l12.296,21.447c9.726-4.712,11.93-22.601,11.93-22.601s86.572-57.82,86.579-71.66
				C1613.853,837.75,1563.353,785.817,1563.353,785.817z"/>
			<path style="fill:#FBF9EB;" d="M1563.967,784.913c-0.602,0.673-1.143,1.392-1.771,2.041l-1.854,1.965l-0.918,0.985l-0.975,0.937
				l-1.941,1.87c-0.654,0.614-1.349,1.19-2.019,1.786c-1.317,1.219-2.79,2.262-4.172,3.4c-2.877,2.146-5.901,4.083-9.047,5.79
				l-1.185,0.632c-0.397,0.202-0.806,0.389-1.207,0.583c-0.8,0.399-1.621,0.75-2.442,1.098c-0.407,0.184-0.826,0.334-1.24,0.497
				c-0.414,0.163-0.826,0.331-1.246,0.471c-0.566,0.206-1.158,0.4-1.727,0.568l-4.181-5.007l-4.753-5.586
				c-3.153-3.738-6.384-7.414-9.584-11.114c-3.236-3.671-6.472-7.343-9.762-10.972c-3.288-3.63-6.593-7.247-9.995-10.787
				c2.901,3.938,5.899,7.798,8.914,11.645c3.014,3.848,6.082,7.653,9.148,11.459c3.104,3.777,6.177,7.578,9.327,11.317l4.702,5.629
				l4.754,5.586l0.52,0.61l0.749-0.196c1-0.263,1.863-0.556,2.759-0.887c0.887-0.324,1.757-0.68,2.608-1.068
				c0.852-0.388,1.7-0.78,2.522-1.219c0.413-0.215,0.831-0.421,1.239-0.643l1.212-0.69c3.231-1.836,6.231-4.012,9.077-6.336
				l2.062-1.826c0.696-0.598,1.34-1.248,1.985-1.895c0.644-0.65,1.307-1.279,1.929-1.944l1.813-2.045l0.901-1.023l0.843-1.069
				l1.668-2.146c1.078-1.454,2.046-2.981,3.058-4.468L1563.967,784.913z"/>
			<path style="fill:#FFC0BB;" d="M1452.856,729.99c0,0,15.69,9.311,27.924,0.014l0,0l-2.872-22.708l-24.326-5.026L1452.856,729.99
				L1452.856,729.99z"/>
			<g style="opacity:0.6;">
				<path style="fill:#FC8D84;" d="M1453.194,717.081l0.388-14.812l24.677,7.689l0.69,5.551
					C1473.473,717.495,1463.063,719.904,1453.194,717.081z"/>
			</g>
			<path style="fill:#FFC0BB;" d="M1436.01,695.679c-0.917-1.867-1.66-3.831-2.217-5.867c-1.606-5.483-2.173-11.216-2.26-16.185
				c-0.02-1.067-0.102-2.129-0.205-3.19c-0.415-4.288-0.029-8.768,1.375-13.3c4.521-14.578,18.659-24.734,34.37-24.652
				c21.165,0.109,37.232,17.541,35.592,37.437c2.331-1.03,4.862-1.114,6.991,0.012c4.084,2.159,5.135,7.919,2.347,12.866
				c-2.788,4.946-8.358,7.206-12.442,5.047c-0.567-0.3-1.069-0.675-1.519-1.102c-3.176,16.792-18.57,28.755-35.72,27.157
				c-8.387-0.782-15.719-4.675-21.002-10.44c-0.357-0.341-0.729-0.734-1.118-1.19C1438.504,700.273,1437.13,698.039,1436.01,695.679
				z"/>
			<path style="fill:#333333;" d="M1470.373,670.45c-0.167,1.664,1.092,3.144,2.81,3.304c1.718,0.16,3.246-1.059,3.411-2.723
				c0.167-1.664-1.092-3.144-2.81-3.303C1472.064,667.567,1470.538,668.786,1470.373,670.45z"/>
			<path style="fill:#333333;" d="M1443.489,669.658c-0.167,1.664,1.092,3.144,2.811,3.303c1.717,0.16,3.244-1.059,3.41-2.724
				c0.167-1.664-1.092-3.143-2.81-3.304C1445.182,666.773,1443.654,667.993,1443.489,669.658z"/>
			<path style="fill:#07085B;" d="M1467.213,664.123c1.585-0.464,3.088-0.818,4.581-1.014c1.49-0.196,2.952-0.205,4.374,0
				c1.412,0.222,2.828,0.563,4.168,1.213l0.522,0.213c0.173,0.073,0.327,0.181,0.5,0.264l1.021,0.532
				c0.687,0.369,1.318,0.828,2.08,1.197c-0.39-0.698-0.836-1.388-1.361-2.02c-0.588-0.563-1.123-1.23-1.85-1.669
				c-1.346-1.032-3.044-1.647-4.765-1.903c-1.733-0.247-3.518-0.055-5.121,0.504
				C1469.771,662.017,1468.292,662.884,1467.213,664.123z"/>
			<path style="fill:#07085B;" d="M1454.634,663.575c-0.958-1.33-2.35-2.321-3.882-3.034c-1.544-0.696-3.304-1.044-5.053-0.948
				c-1.737,0.105-3.486,0.569-4.922,1.48c-0.767,0.375-1.361,0.992-2,1.501c-0.581,0.585-1.091,1.232-1.543,1.893
				c0.792-0.301,1.465-0.703,2.182-1.012l1.069-0.441c0.179-0.067,0.341-0.16,0.521-0.218l0.54-0.166
				c1.396-0.531,2.838-0.747,4.265-0.845c1.434-0.081,2.891,0.055,4.356,0.381C1451.638,662.49,1453.101,662.974,1454.634,663.575z"
				/>
			<path style="fill:#F99893;" d="M1459.529,663.502c0.474,2.137,0.582,4.322,0.427,6.517c-0.079,1.102-0.249,2.198-0.549,3.306
				c-0.322,1.098-0.739,2.221-1.618,3.25l-0.375,0.364l-0.336,0.311c-0.141,0.148-0.343,0.263-0.447,0.428
				c-0.271,0.296-0.458,0.631-0.559,0.986c-0.251,0.712,0.001,1.548,0.457,2.322c0.999,1.571,2.972,2.608,5.081,3.297
				c-2.208,0.15-4.735-0.419-6.427-2.336c-0.826-0.927-1.381-2.309-1.092-3.706c0.07-0.346,0.172-0.684,0.343-0.989
				c0.138-0.327,0.35-0.597,0.56-0.869c0.199-0.288,0.474-0.475,0.715-0.711c0.15-0.13,0.178-0.175,0.255-0.251l0.209-0.204
				c0.549-0.619,0.955-1.532,1.3-2.461c0.368-0.936,0.572-1.957,0.836-2.966C1458.762,667.744,1459.118,665.644,1459.529,663.502z"
				/>
			<path style="fill:#FFFFFF;" d="M1449.857,688.494c1.045,3.712,5.617,6.455,11.051,6.364c5.435-0.091,9.906-2.987,10.82-6.731
				L1449.857,688.494z"/>
			<path style="fill:#07085B;" d="M1501.752,671.006c2.046-1.914,3.676-1.839,3.676-1.839l-1.392-11.198l-3.75-6.634
				c0,0-14.377-17.685-14.876-18.118s-11.162-5.921-11.815-6.198c-0.655-0.277-15.19,2.491-15.19,2.491s-25.915-4.264-21.059,9.015
				c4.856,13.278,23.904,19.604,24.845,18.97c-3.165-2.896-3.809-11.443-3.809-11.443
				C1472.232,659.955,1497.775,669.564,1501.752,671.006z"/>
			<polygon style="fill:#8A452B;" points="1266.949,570.662 1350.438,1274.141 1354.521,1273.688 1271.045,570.31 			"/>
			<path style="fill:#FFC0BB;" d="M1297.192,797.348c-0.054-0.777,0.173-3.239,0.282-3.768c0.309-1.468,1.421-2.652,2.896-3.098
				l1.677-0.507l0.147,3.771l0,0c-0.141,2.879-0.197,2.677,3.793,4.412c5.689,2.475,3.306,5.454,3.306,5.454
				s-1.582,2.117-8.541-1.367C1300.753,802.246,1297.409,800.491,1297.192,797.348z"/>
			<path style="fill:#FFC0BB;" d="M1296.598,800.578c-0.05-0.74,0.164-3.083,0.27-3.585c0.293-1.399,1.354-2.525,2.757-2.95
				l1.597-0.483l0.142,3.59l0,0c-0.135,2.74-0.189,2.548,3.61,4.2c5.416,2.356,3.146,5.193,3.146,5.193s-1.506,2.015-8.132-1.301
				C1299.987,805.242,1296.804,803.571,1296.598,800.578z"/>
			<path style="fill:#FFC0BB;" d="M1297.47,804.881c-0.043-0.625,0.139-2.608,0.228-3.033c0.248-1.183,1.145-2.137,2.332-2.496
				l1.352-0.409l0.12,3.038h-0.001c-0.114,2.318-0.16,2.156,3.055,3.554c4.584,1.994,2.664,4.393,2.664,4.393
				s-1.275,1.706-6.881-1.101C1300.338,808.828,1297.644,807.414,1297.47,804.881z"/>
			<path style="fill:#FFC0BB;" d="M1298.431,792.713c-0.053-0.775,0.172-3.237,0.283-3.766c0.307-1.468,1.421-2.651,2.895-3.098
				l1.678-0.507l0.148,3.771l0,0c-0.142,2.879-0.199,2.677,3.791,4.413c5.69,2.475,3.308,5.455,3.308,5.455
				s-1.582,2.116-8.543-1.367C1301.99,797.612,1298.646,795.857,1298.431,792.713z"/>
			<path style="fill:#F99893;" d="M1303.435,789.112c0.011,0.633-0.026,1.28,0.09,1.887c0.11,0.623,0.659,0.987,1.237,1.249
				c1.159,0.557,2.394,0.963,3.591,1.554c0.288,0.167,0.583,0.321,0.866,0.5c0.267,0.205,0.56,0.372,0.796,0.619
				c0.513,0.437,0.942,1.011,1.167,1.677c0.233,0.667,0.17,1.421-0.114,2.063c-0.072,0.162-0.152,0.314-0.264,0.472
				c-0.151,0.197-0.308,0.286-0.472,0.39c-0.33,0.19-0.683,0.275-1.03,0.343c-0.7,0.101-1.395,0.061-2.057-0.06
				c-0.668-0.107-1.31-0.293-1.943-0.492c-1.261-0.432-2.449-0.954-3.624-1.6c-1.119-0.725-2.098-1.664-2.73-2.821
				c-0.304-0.582-0.499-1.216-0.561-1.859c-0.054-0.322-0.001-0.641,0.016-0.96l0.079-0.952l0.019,0.951
				c0.009,0.314-0.02,0.633,0.057,0.939c0.107,0.614,0.34,1.201,0.669,1.732c0.649,1.064,1.63,1.926,2.714,2.559
				c1.136,0.537,2.33,1.085,3.548,1.469c1.215,0.37,2.508,0.656,3.707,0.476c0.291-0.051,0.584-0.12,0.821-0.255
				c0.11-0.064,0.236-0.15,0.279-0.212c0.077-0.104,0.149-0.233,0.209-0.361c0.234-0.519,0.298-1.111,0.115-1.653
				c-0.174-0.543-0.525-1.047-0.988-1.452c-0.205-0.227-0.486-0.383-0.722-0.583c-0.258-0.179-0.532-0.337-0.798-0.507
				c-1.109-0.615-2.344-1.079-3.5-1.706c-0.287-0.163-0.575-0.343-0.815-0.589c-0.247-0.242-0.396-0.574-0.439-0.899
				C1303.277,790.375,1303.377,789.746,1303.435,789.112z"/>
			<path style="fill:#F99893;" d="M1308.405,799.581c0.793,0.578,1.487,1.438,1.541,2.495c0.015,0.518-0.118,1.035-0.38,1.494
				c-0.053,0.105-0.163,0.254-0.278,0.337c-0.11,0.091-0.228,0.168-0.351,0.229c-0.244,0.132-0.504,0.207-0.766,0.27
				c-1.053,0.216-2.109,0.067-3.104-0.162c-0.994-0.249-1.957-0.587-2.886-0.987c-0.471-0.19-0.915-0.43-1.373-0.643
				c-0.481-0.224-0.899-0.528-1.302-0.845c-0.786-0.65-1.501-1.419-1.95-2.342c-0.239-0.454-0.382-0.948-0.484-1.444
				c-0.024-0.251-0.072-0.506-0.062-0.754l0.031-0.746c0.102-0.978,0.209-1.947,0.432-2.903c-0.077,0.971-0.12,1.947-0.113,2.915
				l0.014,0.715c0.005,0.238,0.064,0.465,0.1,0.696c0.124,0.452,0.278,0.895,0.523,1.299c0.473,0.812,1.135,1.519,1.896,2.103
				c0.384,0.284,0.776,0.57,1.206,0.76c0.449,0.204,0.887,0.433,1.345,0.613c0.901,0.403,1.832,0.73,2.775,0.988
				c0.94,0.254,1.924,0.389,2.854,0.265c0.445-0.078,0.937-0.235,1.144-0.568c0.25-0.379,0.392-0.833,0.414-1.29
				c0.02-0.459-0.103-0.925-0.326-1.348C1309.081,800.304,1308.75,799.938,1308.405,799.581z"/>
			<path style="fill:#F99893;" d="M1308.416,804.187c0.334,0.629,0.333,1.422,0.039,2.104c-0.076,0.163-0.156,0.348-0.329,0.493
				c-0.152,0.138-0.325,0.232-0.501,0.316c-0.358,0.167-0.738,0.229-1.115,0.278c-1.525,0.127-2.973-0.321-4.335-0.816
				c-0.674-0.275-1.342-0.565-1.987-0.895c-0.678-0.319-1.275-0.774-1.797-1.284c-0.521-0.513-0.981-1.091-1.313-1.736
				c-0.312-0.652-0.504-1.363-0.479-2.068c0.228,1.397,1.076,2.572,2.131,3.45c0.54,0.431,1.097,0.851,1.735,1.109
				c0.64,0.306,1.291,0.583,1.949,0.84c0.66,0.249,1.327,0.483,2.009,0.646c0.676,0.183,1.371,0.276,2.055,0.275
				c0.336-0.018,0.682-0.046,0.99-0.163c0.151-0.057,0.303-0.125,0.423-0.218c0.116-0.072,0.192-0.218,0.283-0.36
				C1308.522,805.585,1308.611,804.865,1308.416,804.187z"/>
			<path style="fill:#F99893;" d="M1306.928,807.089c0.48,0.428,0.837,1.047,0.841,1.738c0.002,0.341-0.085,0.681-0.235,0.995
				c-0.038,0.079-0.078,0.154-0.135,0.234c-0.08,0.099-0.148,0.154-0.228,0.213c-0.153,0.114-0.32,0.191-0.49,0.254
				c-0.685,0.246-1.397,0.213-2.067,0.132c-0.674-0.094-1.322-0.273-1.949-0.489c-0.629-0.222-1.235-0.48-1.827-0.771
				c-0.288-0.155-0.597-0.276-0.888-0.475c-0.284-0.185-0.547-0.391-0.792-0.617c-0.992-0.872-1.735-2.127-1.688-3.422
				c0.216,1.271,1.046,2.289,2.017,3.052c0.245,0.191,0.505,0.365,0.77,0.524c0.252,0.157,0.56,0.264,0.848,0.402
				c0.581,0.266,1.175,0.513,1.778,0.715c0.597,0.22,1.21,0.389,1.825,0.495c0.612,0.11,1.246,0.141,1.811-0.008
				c0.137-0.039,0.272-0.09,0.385-0.162c0.055-0.031,0.113-0.079,0.137-0.102c0.04-0.048,0.084-0.108,0.122-0.169
				c0.153-0.246,0.259-0.527,0.292-0.819c0.042-0.292,0.011-0.597-0.084-0.889C1307.272,807.628,1307.109,807.356,1306.928,807.089z
				"/>
		</g>
	</g>
</g>
</svg>
