<svg width="748" height="500" viewBox="0 0 748 500" fill="none" xmlns="http://www.w3.org/2000/svg">
<path d="M25.6852 303.699C43.8221 276.055 68.6672 254.032 94.4613 234.209C116.074 217.585 139.918 200.468 148.833 173.943C153.707 159.482 153.566 143.497 159.043 129.282C166.341 110.332 188.954 87.3743 208.22 79.0986C237.696 66.4328 273.314 85.6405 303.918 75.7661C316.566 71.6836 319.901 63.8997 328.611 55.7224C337.935 46.9671 349.146 39.3431 359.92 32.3216C381.046 18.5493 404.441 7.48225 429.633 2.67421C473.998 -5.79825 521.33 6.30176 557.95 32.7275C579.96 48.615 598.16 69.4578 611.77 92.8831C624.774 115.288 630.52 140.127 642.565 162.753C665.141 205.153 711.995 228.652 734.161 271.298C750.463 302.69 751.13 341.057 742.55 375.672C733.967 410.275 716.895 441.841 698.964 472.249C698.874 472.385 698.796 472.508 698.721 472.63H669.116C556.141 472.263 69.3852 470.812 57.8157 473H35.3179C18.9128 459.302 3.94415 421.465 0.955553 398.617C-3.40544 365.368 7.56129 331.343 25.6852 303.699Z" fill="#9CBED9"/>
<path d="M409.32 120.67H358.01V54.8H396.11L409.32 67.35V120.67Z" fill="white"/>
<path d="M396.11 54.8L409.32 67.35H396.11V54.8Z" fill="#9B9E9F"/>
<path d="M363.02 67.55H391.55V65.86H363.02V67.55Z" fill="#9B9E9F"/>
<path d="M363.02 71.8201H391.55V70.1301H363.02V71.8201Z" fill="#9B9E9F"/>
<path d="M363.02 76.0901H391.55V74.4001H363.02V76.0901Z" fill="#9B9E9F"/>
<path d="M363.02 80.36H404.82V78.67H363.02V80.36Z" fill="#9B9E9F"/>
<path d="M363.02 84.63H404.82V82.94H363.02V84.63Z" fill="#9B9E9F"/>
<path d="M363.02 88.89H404.82V87.2H363.02V88.89Z" fill="#9B9E9F"/>
<path d="M363.02 93.16H404.82V91.47H363.02V93.16Z" fill="#9B9E9F"/>
<path d="M363.02 97.4301H404.82V95.7401H363.02V97.4301Z" fill="#9B9E9F"/>
<path d="M363.02 101.7H404.82V100.01H363.02V101.7Z" fill="#9B9E9F"/>
<path d="M363.02 105.97H404.82V104.28H363.02V105.97Z" fill="#9B9E9F"/>
<path d="M363.02 110.24H404.82V108.55H363.02V110.24Z" fill="#9B9E9F"/>
<path d="M363.02 114.51H404.82V112.82H363.02V114.51Z" fill="#9B9E9F"/>
<path d="M412.789 126.669C417.377 124.757 419.546 119.487 417.633 114.899C415.721 110.311 410.451 108.143 405.863 110.055C401.275 111.968 399.106 117.237 401.019 121.825C402.932 126.413 408.201 128.582 412.789 126.669Z" fill="#9B9E9F"/>
<path d="M413.78 116.08H404.86V124.18H413.78V116.08Z" fill="white"/>
<path d="M412.89 118.58H412V115C412.022 114.636 411.97 114.272 411.846 113.929C411.722 113.587 411.53 113.273 411.28 113.007C411.03 112.742 410.729 112.53 410.394 112.386C410.06 112.241 409.699 112.167 409.335 112.167C408.971 112.167 408.61 112.241 408.276 112.386C407.941 112.53 407.64 112.742 407.39 113.007C407.14 113.273 406.948 113.587 406.824 113.929C406.7 114.272 406.648 114.636 406.67 115V118.61H405.76V115C405.76 114.053 406.136 113.145 406.806 112.476C407.475 111.806 408.383 111.43 409.33 111.43C410.277 111.43 411.185 111.806 411.854 112.476C412.524 113.145 412.9 114.053 412.9 115L412.89 118.58Z" fill="white"/>
<path d="M409.7 120.23L410.07 122H408.49L408.86 120.23C408.747 120.158 408.654 120.059 408.59 119.942C408.525 119.825 408.491 119.694 408.49 119.56C408.49 119.35 408.573 119.15 408.721 119.001C408.87 118.853 409.07 118.77 409.28 118.77C409.49 118.77 409.69 118.853 409.839 119.001C409.987 119.15 410.07 119.35 410.07 119.56C410.069 119.694 410.035 119.825 409.97 119.942C409.906 120.059 409.813 120.158 409.7 120.23Z" fill="#9B9E9F"/>
<path d="M476.1 147.48L476.23 198.73C476.233 199.412 476.101 200.087 475.843 200.718C475.584 201.348 475.204 201.922 474.724 202.406C474.244 202.89 473.673 203.274 473.045 203.537C472.416 203.801 471.742 203.937 471.06 203.94L389.78 204.15C389.098 204.151 388.423 204.018 387.793 203.759C387.163 203.499 386.59 203.118 386.107 202.637C385.624 202.156 385.241 201.585 384.979 200.955C384.717 200.326 384.581 199.652 384.58 198.97L384.45 147.72C384.447 147.086 384.57 146.458 384.81 145.872C385.051 145.285 385.404 144.752 385.851 144.302C386.298 143.853 386.829 143.496 387.414 143.252C387.999 143.008 388.626 142.881 389.26 142.88L471.26 142.67C471.894 142.667 472.522 142.79 473.108 143.03C473.695 143.271 474.228 143.624 474.678 144.071C475.127 144.518 475.484 145.049 475.728 145.634C475.972 146.219 476.099 146.846 476.1 147.48Z" fill="white"/>
<path d="M463 191.55C463.002 192.493 462.724 193.416 462.202 194.202C461.679 194.987 460.935 195.6 460.065 195.963C459.194 196.326 458.235 196.422 457.309 196.24C456.384 196.058 455.533 195.606 454.864 194.94C454.196 194.274 453.74 193.425 453.554 192.5C453.368 191.576 453.46 190.616 453.819 189.744C454.178 188.872 454.788 188.125 455.572 187.599C456.355 187.074 457.277 186.792 458.22 186.79C458.846 186.789 459.467 186.911 460.046 187.149C460.625 187.388 461.152 187.738 461.596 188.18C462.04 188.622 462.392 189.147 462.633 189.725C462.874 190.304 462.999 190.924 463 191.55Z" fill="#EE9849"/>
<path d="M468.88 191.53C468.882 192.473 468.604 193.395 468.082 194.181C467.56 194.966 466.817 195.579 465.947 195.942C465.077 196.305 464.118 196.402 463.193 196.221C462.268 196.04 461.417 195.588 460.748 194.923C460.079 194.259 459.622 193.411 459.435 192.487C459.248 191.562 459.339 190.603 459.697 189.731C460.054 188.858 460.662 188.111 461.444 187.584C462.226 187.057 463.147 186.774 464.09 186.77C464.717 186.767 465.339 186.889 465.919 187.126C466.5 187.364 467.027 187.714 467.472 188.157C467.917 188.599 468.271 189.124 468.512 189.703C468.754 190.282 468.879 190.903 468.88 191.53Z" fill="#660606"/>
<path d="M405.156 151.634L396.356 151.657C394.037 151.663 392.161 153.548 392.167 155.868L392.176 159.358C392.182 161.677 394.068 163.553 396.387 163.547L405.187 163.524C407.507 163.518 409.382 161.632 409.376 159.313L409.367 155.823C409.361 153.503 407.476 151.628 405.156 151.634Z" fill="#9B9E9F"/>
<path d="M465.53 158H457.75C457.321 158.001 456.896 157.918 456.499 157.755C456.103 157.592 455.742 157.352 455.438 157.049C455.135 156.746 454.894 156.386 454.729 155.99C454.565 155.594 454.48 155.169 454.48 154.74C454.479 154.312 454.562 153.889 454.725 153.493C454.887 153.098 455.126 152.738 455.428 152.435C455.73 152.133 456.089 151.892 456.484 151.728C456.879 151.564 457.302 151.48 457.73 151.48H465.51C465.938 151.477 466.363 151.56 466.76 151.722C467.156 151.884 467.517 152.123 467.821 152.425C468.125 152.727 468.366 153.086 468.531 153.482C468.695 153.877 468.78 154.302 468.78 154.73C468.781 155.158 468.698 155.582 468.536 155.978C468.373 156.374 468.134 156.734 467.832 157.038C467.53 157.342 467.172 157.583 466.777 157.748C466.382 157.913 465.958 157.999 465.53 158Z" fill="#DDDFE0"/>
<path d="M435.77 187.323L392.25 187.437L392.255 189.577L435.775 189.463L435.77 187.323Z" fill="#DBDBDB"/>
<path d="M423.082 192.117L392.272 192.197L392.278 194.337L423.088 194.257L423.082 192.117Z" fill="#DBDBDB"/>
<path d="M451.486 151.512L429.776 151.569L429.781 153.709L451.491 153.652L451.486 151.512Z" fill="#9B9E9F"/>
<path d="M394.18 175.94H393.88V179.19H394.18V175.94Z" fill="black"/>
<path d="M395.65 177.42H392.4V177.72H395.65V177.42Z" fill="#C7C7C7"/>
<path d="M395.074 176.306L392.769 178.611L392.981 178.823L395.286 176.518L395.074 176.306Z" fill="black"/>
<path d="M392.991 176.316L392.779 176.528L395.084 178.833L395.296 178.621L392.991 176.316Z" fill="black"/>
<path d="M398.09 175.94H397.79V179.19H398.09V175.94Z" fill="black"/>
<path d="M399.57 177.42H396.32V177.72H399.57V177.42Z" fill="#C7C7C7"/>
<path d="M398.989 176.311L396.691 178.609L396.903 178.821L399.201 176.523L398.989 176.311Z" fill="black"/>
<path d="M396.895 176.304L396.683 176.516L398.981 178.814L399.193 178.602L396.895 176.304Z" fill="black"/>
<path d="M402.01 175.94H401.71V179.19H402.01V175.94Z" fill="black"/>
<path d="M403.48 177.42H400.23V177.72H403.48V177.42Z" fill="#C7C7C7"/>
<path d="M400.81 178.82L400.6 178.61L402.9 176.31L403.12 176.52L400.81 178.82Z" fill="black"/>
<path d="M402.9 178.82L400.6 176.52L400.81 176.31L403.12 178.61L402.9 178.82Z" fill="black"/>
<path d="M405.92 175.94H405.62V179.19H405.92V175.94Z" fill="black"/>
<path d="M407.4 177.42H404.15V177.72H407.4V177.42Z" fill="#C7C7C7"/>
<path d="M404.73 178.82L404.52 178.61L406.82 176.31L407.03 176.52L404.73 178.82Z" fill="black"/>
<path d="M406.82 178.82L404.52 176.52L404.73 176.31L407.03 178.61L406.82 178.82Z" fill="black"/>
<path d="M414.47 175.94H414.17V179.19H414.47V175.94Z" fill="black"/>
<path d="M415.94 177.42H412.69V177.72H415.94V177.42Z" fill="#C7C7C7"/>
<path d="M413.28 178.82L413.06 178.61L415.36 176.31L415.58 176.52L413.28 178.82Z" fill="black"/>
<path d="M415.36 178.82L413.06 176.52L413.28 176.31L415.58 178.61L415.36 178.82Z" fill="black"/>
<path d="M418.38 175.94H418.08V179.19H418.38V175.94Z" fill="black"/>
<path d="M419.86 177.42H416.61V177.72H419.86V177.42Z" fill="#C7C7C7"/>
<path d="M417.19 178.82L416.98 178.61L419.28 176.31L419.49 176.52L417.19 178.82Z" fill="black"/>
<path d="M419.28 178.82L416.98 176.52L417.19 176.31L419.49 178.61L419.28 178.82Z" fill="black"/>
<path d="M422.3 175.94H422V179.19H422.3V175.94Z" fill="black"/>
<path d="M423.77 177.42H420.52V177.72H423.77V177.42Z" fill="#C7C7C7"/>
<path d="M421.11 178.82L420.89 178.61L423.19 176.31L423.41 176.52L421.11 178.82Z" fill="black"/>
<path d="M423.19 178.82L420.89 176.52L421.11 176.31L423.41 178.61L423.19 178.82Z" fill="black"/>
<path d="M426.22 175.94H425.92V179.19H426.22V175.94Z" fill="black"/>
<path d="M427.69 177.42H424.44V177.72H427.69V177.42Z" fill="#C7C7C7"/>
<path d="M425.02 178.82L424.81 178.61L427.11 176.31L427.32 176.52L425.02 178.82Z" fill="black"/>
<path d="M427.11 178.82L424.81 176.52L425.02 176.31L427.32 178.61L427.11 178.82Z" fill="black"/>
<path d="M434.76 175.94H434.46V179.19H434.76V175.94Z" fill="black"/>
<path d="M436.24 177.42H432.99V177.72H436.24V177.42Z" fill="#C7C7C7"/>
<path d="M433.57 178.82L433.36 178.61L435.66 176.31L435.87 176.52L433.57 178.82Z" fill="black"/>
<path d="M435.66 178.82L433.36 176.52L433.57 176.31L435.87 178.61L435.66 178.82Z" fill="black"/>
<path d="M438.68 175.94H438.38V179.19H438.68V175.94Z" fill="black"/>
<path d="M440.15 177.42H436.9V177.72H440.15V177.42Z" fill="#C7C7C7"/>
<path d="M437.48 178.82L437.27 178.61L439.57 176.31L439.79 176.52L437.48 178.82Z" fill="black"/>
<path d="M439.57 178.82L437.27 176.52L437.48 176.31L439.79 178.61L439.57 178.82Z" fill="black"/>
<path d="M442.59 175.94H442.29V179.19H442.59V175.94Z" fill="black"/>
<path d="M444.07 177.42H440.82V177.72H444.07V177.42Z" fill="#C7C7C7"/>
<path d="M441.4 178.82L441.19 178.61L443.49 176.31L443.7 176.52L441.4 178.82Z" fill="black"/>
<path d="M443.49 178.82L441.19 176.52L441.4 176.31L443.7 178.61L443.49 178.82Z" fill="black"/>
<path d="M446.51 175.94H446.21V179.19H446.51V175.94Z" fill="black"/>
<path d="M447.98 177.42H444.73V177.72H447.98V177.42Z" fill="#C7C7C7"/>
<path d="M445.31 178.82L445.1 178.61L447.4 176.31L447.62 176.52L445.31 178.82Z" fill="black"/>
<path d="M447.4 178.82L445.1 176.52L445.31 176.31L447.62 178.61L447.4 178.82Z" fill="black"/>
<path d="M455.05 175.94H454.75V179.19H455.05V175.94Z" fill="black"/>
<path d="M456.53 177.42H453.28V177.72H456.53V177.42Z" fill="black"/>
<path d="M453.86 178.82L453.65 178.61L455.95 176.31L456.16 176.52L453.86 178.82Z" fill="black"/>
<path d="M455.95 178.82L453.65 176.52L453.86 176.31L456.16 178.61L455.95 178.82Z" fill="black"/>
<path d="M458.97 175.94H458.67V179.19H458.97V175.94Z" fill="black"/>
<path d="M460.44 177.42H457.19V177.72H460.44V177.42Z" fill="black"/>
<path d="M457.78 178.82L457.56 178.61L459.87 176.31L460.08 176.52L457.78 178.82Z" fill="black"/>
<path d="M459.87 178.82L457.56 176.52L457.78 176.31L460.08 178.61L459.87 178.82Z" fill="black"/>
<path d="M462.89 175.94H462.59V179.19H462.89V175.94Z" fill="black"/>
<path d="M464.36 177.42H461.11V177.72H464.36V177.42Z" fill="black"/>
<path d="M461.69 178.82L461.48 178.61L463.78 176.31L463.99 176.52L461.69 178.82Z" fill="black"/>
<path d="M463.78 178.82L461.48 176.52L461.69 176.31L463.99 178.61L463.78 178.82Z" fill="black"/>
<path d="M466.8 175.94H466.5V179.19H466.8V175.94Z" fill="black"/>
<path d="M468.27 177.42H465.02V177.72H468.27V177.42Z" fill="black"/>
<path d="M465.61 178.82L465.39 178.61L467.69 176.31L467.91 176.52L465.61 178.82Z" fill="black"/>
<path d="M467.69 178.82L465.39 176.52L465.61 176.31L467.91 178.61L467.69 178.82Z" fill="black"/>
<path d="M485.092 205.326C485.89 200.42 482.56 195.796 477.654 194.997C472.748 194.199 468.124 197.529 467.326 202.436C466.528 207.342 469.858 211.966 474.764 212.764C479.67 213.562 484.294 210.232 485.092 205.326Z" fill="#9B9E9F"/>
<path d="M480.69 201.62H471.77V209.72H480.69V201.62Z" fill="white"/>
<path d="M479.8 204.12H478.9V200.5C478.858 199.821 478.56 199.184 478.064 198.719C477.569 198.253 476.915 197.993 476.235 197.993C475.555 197.993 474.901 198.253 474.406 198.719C473.91 199.184 473.612 199.821 473.57 200.5V204.12H472.66V200.5C472.66 199.553 473.036 198.645 473.706 197.976C474.375 197.306 475.283 196.93 476.23 196.93C477.177 196.93 478.085 197.306 478.754 197.976C479.424 198.645 479.8 199.553 479.8 200.5V204.12Z" fill="white"/>
<path d="M476.61 205.77L476.98 207.54H475.4L475.77 205.77C475.657 205.698 475.564 205.599 475.5 205.482C475.435 205.365 475.401 205.234 475.4 205.1C475.4 204.891 475.483 204.69 475.631 204.541C475.78 204.393 475.981 204.31 476.19 204.31C476.4 204.31 476.601 204.393 476.749 204.541C476.897 204.69 476.98 204.891 476.98 205.1C476.979 205.234 476.945 205.365 476.88 205.482C476.816 205.599 476.723 205.698 476.61 205.77Z" fill="#9B9E9F"/>
<path d="M263.833 117.553L324.539 127.712L331.908 83.6739L271.202 73.5152L263.833 117.553Z" fill="#9B9E9F"/>
<path d="M266.77 115.449L322.436 124.764L328.961 85.7763L273.295 76.461L266.77 115.449Z" fill="#EBF2F9"/>
<path d="M278 88.63C277.849 89.5408 277.971 90.4761 278.351 91.3176C278.731 92.159 279.352 92.869 280.135 93.3577C280.918 93.8464 281.829 94.092 282.752 94.0633C283.675 94.0346 284.568 93.733 285.32 93.1967C286.071 92.6603 286.647 91.9131 286.974 91.0497C287.301 90.1862 287.365 89.2452 287.157 88.3455C286.95 87.4459 286.48 86.6279 285.808 85.9951C285.135 85.3622 284.291 84.9429 283.38 84.79C282.158 84.5875 280.905 84.878 279.896 85.5978C278.888 86.3177 278.206 87.4081 278 88.63Z" fill="#FBE29A"/>
<path d="M292.9 111.19L323.86 116.38L311.89 92.8L292.9 111.19Z" fill="#2B691B"/>
<path d="M280.77 109.17L306.32 113.45L295.83 97.65L280.77 109.17Z" fill="#EBEBEB"/>
<path d="M323.861 116.356L268.195 107.041L266.789 115.444L322.455 124.759L323.861 116.356Z" fill="#EBEBEB"/>
<path d="M246.4 131.47H307.95V86.8201H246.4V131.47Z" fill="#9B9E9F"/>
<path d="M248.95 128.9H305.39V89.37H248.95V128.9Z" fill="#EBF2F9"/>
<path d="M255.54 100.61C255.538 101.536 255.811 102.442 256.324 103.213C256.837 103.984 257.567 104.585 258.422 104.941C259.277 105.297 260.218 105.391 261.127 105.211C262.035 105.032 262.87 104.587 263.526 103.933C264.181 103.279 264.628 102.445 264.809 101.537C264.991 100.629 264.899 99.6872 264.545 98.8314C264.191 97.9757 263.591 97.2442 262.821 96.7295C262.051 96.2148 261.146 95.9401 260.22 95.9401C258.981 95.9401 257.792 96.4318 256.914 97.3073C256.037 98.1828 255.543 99.3706 255.54 100.61Z" fill="#FBE29A"/>
<path d="M274.01 120.4H305.4L289.7 99.12L274.01 120.4Z" fill="#2B691B"/>
<path d="M261.7 120.41H287.62L274.66 106.55L261.7 120.41Z" fill="#82B378"/>
<path opacity="0.1" d="M305.39 120.39H248.95V128.91H305.39V120.39Z" fill="#AA6550"/>
<path d="M341.75 298.61H253.51V420.72H341.75V298.61Z" fill="#EBF2F9"/>
<path d="M346.03 294.08H249.24V298.61H346.03V294.08Z" fill="#C1C8CF"/>
<path d="M376.46 294.08H346.02V298.61H376.46V294.08Z" fill="#EBF2F9"/>
<path d="M371.65 298.61H341.75V420.72H371.65V298.61Z" fill="#C1C8CF"/>
<path d="M332.26 355.14H263V316H332.26V355.14ZM263.26 354.89H332V316.23H263.25L263.26 354.89Z" fill="#C1C8CF"/>
<path d="M305.56 334.72H291.83V327.89H305.56V334.72ZM292.08 334.47H305.31V328.14H292.08V334.47Z" fill="#C1C8CF"/>
<path d="M332.26 404.3H263V365.14H332.26V404.3ZM263.26 404.05H332V365.39H263.25L263.26 404.05Z" fill="#C1C8CF"/>
<path d="M305.56 383.88H291.83V377.05H305.56V383.88ZM292.08 383.63H305.31V377.3H292.08V383.63Z" fill="#C1C8CF"/>
<path d="M301.45 327.43H287.97V335.18H301.45V327.43Z" fill="#C1C8CF"/>
<path d="M301.45 376.59H287.97V384.34H301.45V376.59Z" fill="#C1C8CF"/>
<path d="M198.54 420.76L248.16 420.51L297.77 420.43L397 420.26L496.23 420.42L545.84 420.51L595.46 420.76L545.84 421L496.23 421.09L397 421.26L297.77 421.09L248.16 421L198.54 420.76Z" fill="#263238"/>
<path d="M250.3 464.64C274.755 464.64 294.58 460.834 294.58 456.14C294.58 451.446 274.755 447.64 250.3 447.64C225.845 447.64 206.02 451.446 206.02 456.14C206.02 460.834 225.845 464.64 250.3 464.64Z" fill="#766B6B"/>
<path d="M414.97 472.44C510.526 472.44 587.99 464.842 587.99 455.47C587.99 446.098 510.526 438.5 414.97 438.5C319.414 438.5 241.95 446.098 241.95 455.47C241.95 464.842 319.414 472.44 414.97 472.44Z" fill="#766B6B"/>
<path d="M462.63 307.45L459.72 324.93L439.97 431.56H436.79L451.15 324.93L453.27 307.45H462.63Z" fill="#597584"/>
<path d="M453.27 307.45H462.63L459.72 324.93H451.15L453.27 307.45Z" fill="#A6A6A6"/>
<path d="M524.64 431.56H521.46L501.71 324.93L498.8 307.45H508.16L510.28 324.93L524.64 431.56Z" fill="#597584"/>
<path d="M508.16 307.45L510.28 324.93H501.71L498.8 307.45H508.16Z" fill="#597584"/>
<path d="M583.87 431.56H580.68L560.94 324.93L558.02 307.45H567.38L569.51 324.93L583.87 431.56Z" fill="#597584"/>
<path d="M569.51 324.93H560.94L558.02 307.45H567.38L569.51 324.93Z" fill="#597584"/>
<path d="M578.82 315.66H434.13V300.42H488.29L516.5 142.4H593.3L578.82 315.66Z" fill="#597584"/>
<path d="M578.2 300.42H434.13V315.66H578.74L578.2 300.42Z" fill="#263238"/>
<path d="M578.82 315.66H570.93L585.79 142.4H593.3L578.82 315.66Z" fill="#263238"/>
<path d="M580.61 120.28C578.38 117.83 569.25 110.98 561.36 107.28C557.54 105.45 546 101.38 544.36 104.21C542.72 107.04 546.01 108.53 546.01 108.53C546.01 108.53 540.87 107.53 539.5 110.53C538.13 113.53 543.28 115.68 543.28 115.68C543.28 115.68 537.94 115.05 536.78 118.13C535.62 121.21 541.17 122.51 541.17 122.51C541.17 122.51 536.31 121.71 536.43 124.65C536.57 128.19 545.69 128.65 549.82 130.9C550.76 131.4 568.1 142.51 568.1 142.51L580.61 120.28Z" fill="#FFBE9D"/>
<path d="M541.24 122.54C547.95 122.9 550.83 124.23 556.24 128.06C556.35 128.13 556.48 127.99 556.38 127.9C551.44 123.67 548.07 121.49 541.26 122.21C540.91 122.25 540.92 122.52 541.24 122.54Z" fill="#263238"/>
<path d="M543 115.53C549.94 116.53 553.07 117.92 559 121.53C559.09 121.53 559.18 121.44 559.1 121.38C553.56 117.38 550.16 115.27 543.1 115.2C542.81 115.18 542.71 115.48 543 115.53Z" fill="#263238"/>
<path d="M546.58 108.59C553.23 110.03 556.73 111.42 562.05 115.65C562.18 115.75 562.34 115.58 562.22 115.47C557.22 110.62 552.86 108.85 546.65 108.39C546.22 108.36 546.16 108.5 546.58 108.59Z" fill="#263238"/>
<path d="M571 146.27C571 146.27 562.64 145.2 559.07 143.92C555.5 142.64 544 133 545.93 130.38C548.44 127.01 556.2 131.27 559.73 133.85C559.73 133.85 565.53 126.05 571.73 127.9C577.93 129.75 571 146.27 571 146.27Z" fill="#FFBE9D"/>
<path d="M546.92 129.68C551.43 128.26 555.84 131.95 559.45 134.2C559.502 134.236 559.562 134.258 559.625 134.266C559.688 134.273 559.751 134.265 559.81 134.243C559.87 134.22 559.922 134.183 559.964 134.136C560.006 134.088 560.035 134.031 560.05 133.97C562.7 130.86 567.34 127.25 571.63 127.67C571.657 127.67 571.682 127.659 571.701 127.641C571.719 127.622 571.73 127.596 571.73 127.57C571.73 127.543 571.719 127.518 571.701 127.499C571.682 127.48 571.657 127.47 571.63 127.47C567.09 126.4 562.24 129.58 559.55 133.17C555.89 130.8 551.3 127.3 546.87 129.64C546.88 129.65 546.9 129.69 546.92 129.68Z" fill="#263238"/>
<path d="M500.33 111.82C503.33 110.49 514.98 106.95 523.71 106.72C527.94 106.61 540.14 107.58 540.48 110.83C540.82 114.08 537.22 114.11 537.22 114.11C537.22 114.11 542.31 115.29 542.35 118.58C542.39 121.87 536.8 121.75 536.8 121.75C536.8 121.75 541.94 123.34 541.75 126.63C541.56 129.92 535.95 128.85 535.95 128.85C535.95 128.85 540.72 130.09 539.42 132.73C537.85 135.91 529.32 132.63 524.64 132.99C523.58 133.07 503.23 136.17 503.23 136.17L500.33 111.82Z" fill="#FFBE9D"/>
<path d="M535.87 128.89C529.59 126.5 526.42 126.54 519.94 127.89C519.81 127.89 519.74 127.74 519.87 127.7C526.11 125.84 530.07 125.22 536 128.65C536.29 128.76 536.17 129 535.87 128.89Z" fill="#263238"/>
<path d="M537.08 121.76C530.34 119.84 526.91 119.85 520.02 120.76C519.92 120.76 519.89 120.61 520.02 120.59C526.71 119.17 530.67 118.59 537.16 121.45C537.42 121.53 537.39 121.85 537.08 121.76Z" fill="#263238"/>
<path d="M536.66 114C530 112.61 526.24 112.46 519.66 114.16C519.645 114.165 519.629 114.167 519.613 114.167C519.597 114.166 519.581 114.162 519.567 114.155C519.552 114.148 519.54 114.138 519.529 114.126C519.518 114.114 519.51 114.1 519.505 114.085C519.5 114.07 519.497 114.054 519.498 114.038C519.499 114.022 519.503 114.006 519.51 113.992C519.517 113.978 519.527 113.965 519.539 113.954C519.551 113.943 519.565 113.935 519.58 113.93C526.13 111.54 530.82 111.69 536.69 113.79C537.08 113.91 537.08 114.06 536.66 114Z" fill="#263238"/>
<path d="M499 138.47C499 138.47 507.07 140.89 510.84 141.17C514.61 141.45 529.09 137.33 528.38 134.17C527.45 130.07 518.63 130.81 514.38 131.74C514.38 131.74 512.25 122.25 505.81 121.41C499.37 120.57 499 138.47 499 138.47Z" fill="#FFBE9D"/>
<path d="M527.77 133.11C524.23 129.97 518.7 131.55 514.49 132.11C514.428 132.122 514.364 132.119 514.303 132.101C514.242 132.083 514.187 132.051 514.141 132.006C514.096 131.962 514.062 131.907 514.043 131.847C514.023 131.787 514.019 131.722 514.03 131.66C512.88 127.75 510.11 122.56 506.03 121.2C505.91 121.2 505.95 120.98 506.03 121.01C510.62 121.87 513.76 126.74 514.75 131.12C519.06 130.44 524.68 129.12 527.75 133.04C527.82 133.1 527.8 133.13 527.77 133.11Z" fill="#263238"/>
<path d="M523.33 173.21C500.45 167.03 464.42 146.34 467.73 136.38C470.94 126.7 484.45 116.58 501.73 111.2C504.25 110.41 503.73 115.7 504.9 124.92C505.47 129.28 513.12 141.03 509.43 141C507.501 141.059 505.601 141.483 503.83 142.25C502.48 142.77 518.71 153.61 527.78 160.41C540 169.53 533.1 175.84 523.33 173.21Z" fill="#FFBE9D"/>
<path d="M490.3 166.19L515.66 150.31C515.66 150.31 530.89 159.57 534.66 164.7C538.43 169.83 535.46 175.38 523.66 175.39C510.09 175.4 490.3 166.19 490.3 166.19Z" fill="#EED9CE"/>
<g opacity="0.1">
<path d="M522.15 154.49H509L511.34 153.03H519.96L522.15 154.49Z" fill="black"/>
<path d="M528.84 159.29H501.32L503.65 157.83H526.91L528.84 159.29Z" fill="black"/>
<path d="M534.15 164.08H493.67L496 162.62H532.76C533.29 163.13 533.76 163.62 534.15 164.08Z" fill="black"/>
<path d="M536.18 168.88H496.7C495.31 168.34 494.09 167.88 493.1 167.42H536C536.132 167.895 536.192 168.387 536.18 168.88Z" fill="black"/>
<path d="M534.74 172.22C534.158 172.81 533.482 173.3 532.74 173.67H511.5C509.72 173.23 507.96 172.74 506.25 172.22H534.74Z" fill="black"/>
</g>
<path d="M497 168.14C507.21 161.9 517.32 154.86 519 153.49C519.07 153.43 519 153.32 518.9 153.36C511.28 157.798 503.933 162.69 496.9 168.01C496.883 168.023 496.871 168.043 496.869 168.064C496.866 168.086 496.872 168.108 496.885 168.125C496.898 168.142 496.918 168.153 496.939 168.156C496.961 168.159 496.983 168.153 497 168.14Z" fill="#263238"/>
<path d="M523.64 175.39C518.657 175.231 513.716 174.428 508.94 173C515.57 168.55 523.45 163.3 529.22 159.59C531.23 161.068 533.053 162.783 534.65 164.7C538.41 169.82 535.45 175.38 523.64 175.39Z" fill="#263238"/>
<path d="M439.73 451.88C442.55 452.15 519.16 433.88 521.57 431.42C521.87 431.14 520.36 424.18 518.15 414.68V414.49C516.76 408.49 494.45 359.79 494.45 359.79L444.79 373.63L467.35 418.8C467.35 418.8 458 425.55 450 432C445.05 435.94 440.78 439.47 439.88 440.62C437.47 443.59 436.93 451.63 439.73 451.88Z" fill="#D3766A"/>
<path d="M439.74 451.87C442.54 452.14 519.15 433.87 521.58 431.42C521.87 431.14 520.36 424.18 518.15 414.68V414.5C517.65 412.26 514.21 404.07 510.15 394.7C501.98 396.89 472.68 404.81 462.04 408.1L467.39 418.81C467.39 418.81 458 425.56 450 432C445.05 435.93 440.78 439.47 439.88 440.61C437.47 443.59 436.92 451.64 439.74 451.87Z" fill="#FFBE9D"/>
<path d="M439.48 452.24C442.38 452.49 519.04 434.04 521.48 431.49C522.42 430.49 520.73 418.43 516.53 405.61L467.12 417.61C467.12 417.61 441.89 437.61 439.47 440.67C437.05 443.73 436.59 452 439.48 452.24Z" fill="#D3BCB0"/>
<path d="M439.84 448.91C452.62 445.5 504.47 432.91 517.35 430.56C517.46 430.56 517.48 430.61 517.35 430.64C504.77 434.29 452.82 446.42 439.87 449.12C439.62 449.18 439.57 449 439.84 448.91Z" fill="#263238"/>
<path d="M443.77 436.69C445.19 436.308 446.675 436.224 448.129 436.444C449.584 436.665 450.977 437.184 452.22 437.97C454.461 439.372 456.079 441.58 456.74 444.14C456.74 444.22 456.62 444.26 456.59 444.14C455.539 441.7 453.726 439.667 451.421 438.346C449.117 437.024 446.446 436.485 443.81 436.81C443.798 436.806 443.788 436.799 443.779 436.791C443.771 436.782 443.764 436.771 443.761 436.76C443.757 436.748 443.756 436.736 443.757 436.724C443.759 436.712 443.763 436.7 443.77 436.69Z" fill="#263238"/>
<path d="M463.44 419.82C468.57 418.51 474.97 418.89 479.18 422.33C479.34 422.47 479.18 422.69 478.98 422.65C473.912 421.378 468.723 420.65 463.5 420.48C463.424 420.47 463.353 420.434 463.3 420.378C463.247 420.322 463.214 420.25 463.207 420.174C463.2 420.097 463.219 420.021 463.262 419.956C463.304 419.892 463.367 419.844 463.44 419.82Z" fill="#263238"/>
<path d="M459.84 422.33C464.97 421.02 471.37 421.4 475.58 424.84C475.74 424.97 475.58 425.2 475.38 425.16C470.315 423.892 465.129 423.168 459.91 423C459.866 423.005 459.821 423 459.779 422.988C459.737 422.975 459.697 422.954 459.663 422.927C459.628 422.899 459.6 422.864 459.579 422.826C459.558 422.787 459.545 422.744 459.54 422.7C459.535 422.656 459.539 422.612 459.552 422.569C459.565 422.527 459.585 422.487 459.613 422.453C459.641 422.419 459.675 422.39 459.714 422.369C459.753 422.348 459.796 422.335 459.84 422.33Z" fill="#263238"/>
<path d="M456.24 424.83C461.37 423.52 467.77 423.9 471.98 427.34C472.14 427.47 471.98 427.7 471.78 427.66C466.716 426.383 461.53 425.656 456.31 425.49C456.233 425.481 456.162 425.447 456.107 425.392C456.053 425.337 456.019 425.265 456.01 425.188C456.002 425.111 456.021 425.034 456.062 424.969C456.104 424.904 456.167 424.855 456.24 424.83Z" fill="#263238"/>
<path d="M452.65 427.34C457.77 426.03 464.17 426.41 468.38 429.84C468.54 429.98 468.38 430.21 468.18 430.17C463.115 428.898 457.929 428.171 452.71 428C452.622 428.008 452.535 427.981 452.468 427.925C452.4 427.868 452.358 427.788 452.35 427.7C452.342 427.612 452.369 427.525 452.425 427.458C452.482 427.39 452.562 427.348 452.65 427.34Z" fill="#263238"/>
<path d="M511.14 419.14C516.92 417.77 519.06 426.74 513.28 428.14C507.5 429.54 505.36 420.51 511.14 419.14Z" fill="#263238"/>
<path d="M456.8 414.88C460.44 417.79 465.21 419.03 469.48 420.68C469.578 420.708 469.681 420.713 469.782 420.694C469.882 420.675 469.976 420.633 470.057 420.57C470.138 420.508 470.203 420.427 470.247 420.335C470.291 420.243 470.312 420.142 470.31 420.04C470.331 420.04 470.352 420.035 470.371 420.025C470.39 420.015 470.406 420 470.418 419.982C470.43 419.964 470.437 419.944 470.439 419.923C470.441 419.901 470.438 419.88 470.43 419.86C468.919 415.24 466.214 411.1 462.59 407.86C460.45 406 456.66 404.68 454.59 407.47C452.61 410.07 454.68 413.18 456.8 414.88ZM455.54 410.67C454.7 404.95 460.79 408.04 462.31 409.47C463.283 410.408 464.192 411.41 465.03 412.47C466.721 414.696 468.3 417.006 469.76 419.39C467.71 418.45 465.6 417.69 463.52 416.83C461 415.82 456 413.83 455.54 410.67Z" fill="#263238"/>
<path d="M487.91 412.18C486.7 408.92 482.69 409.11 480.11 410.29C475.714 412.383 471.947 415.597 469.19 419.61C469.178 419.628 469.17 419.648 469.168 419.669C469.165 419.69 469.167 419.712 469.173 419.732C469.18 419.752 469.191 419.771 469.206 419.786C469.221 419.801 469.24 419.813 469.26 419.82C469.229 419.917 469.22 420.02 469.236 420.12C469.252 420.221 469.291 420.316 469.35 420.399C469.41 420.482 469.488 420.549 469.578 420.596C469.668 420.643 469.768 420.669 469.87 420.67C474.43 420.29 479.36 420.45 483.67 418.67C486.19 417.65 489.06 415.26 487.91 412.18ZM476.67 418.68C474.43 418.92 472.19 419.05 469.96 419.37C472.035 417.494 474.205 415.725 476.46 414.07C477.559 413.275 478.715 412.563 479.92 411.94C481.78 411 488.49 409.76 486.07 415.01C484.74 417.9 479.34 418.39 476.67 418.68Z" fill="#263238"/>
<path d="M462.92 412.92L515.65 398.8C515.65 398.8 469.31 302.71 473.05 297.42C474.92 294.78 524.34 292.55 539.67 278.74C559.58 260.81 545.09 234.74 545.09 234.74H489.83C489.83 234.74 490.83 246.27 488.73 248.07C487.35 249.27 421.73 256.76 415.16 279.18C407.11 306.67 462.92 412.92 462.92 412.92Z" fill="#263238"/>
<path d="M462 405.19C463.399 404.541 464.843 403.993 466.32 403.55C467.85 403.02 469.39 402.49 470.92 401.98C473.92 400.98 477 400.04 480.06 399.16C486.23 397.38 492.4 395.64 498.62 394.02C501.86 393.18 508.79 391.35 509.23 391.41C509.43 391.41 509.48 391.79 509.3 391.86C503.3 394.04 497.2 395.91 491.11 397.81C485.02 399.71 478.93 401.56 472.76 403.15C471.05 403.59 469.33 403.99 467.62 404.41C465.831 404.939 464.006 405.34 462.16 405.61C462 405.62 461.8 405.28 462 405.19Z" fill="#455A64"/>
<path d="M463.47 293.12C464.56 292.12 466.22 291.98 467.6 291.7L491.39 287C498.81 285.53 506.28 284.19 513.66 282.53C519.77 281.16 525.97 279.38 531.19 275.88C536.298 272.441 540 267.281 541.62 261.34C543.31 255.43 543.25 249.13 542.49 243.08C542.3 241.6 541.98 240.13 541.66 238.67C541.66 238.56 541.82 238.52 541.84 238.67C544.2 249.93 544.77 263.07 536.56 272.34C532.56 276.86 526.95 279.62 521.21 281.46C514.72 283.55 507.92 284.65 501.21 285.97L477.42 290.67C473.6 291.42 469.72 292.04 465.94 292.95C465.172 293.072 464.458 293.42 463.89 293.95C463.626 294.358 463.466 294.825 463.422 295.309C463.378 295.793 463.453 296.281 463.64 296.73C464.08 298.59 464.64 300.44 465.23 302.26C470.03 317 503.65 386.79 504.56 388.4C504.66 388.57 504.39 388.71 504.29 388.54C496.59 375.72 471.53 321.84 466.29 307.92C464.913 304.358 463.767 300.71 462.86 297C462.54 295.66 462.34 294.16 463.47 293.12Z" fill="#455A64"/>
<path d="M304.79 453.8C307.41 454.85 386.06 458.87 389.08 457.16C389.44 456.98 389.95 449.87 390.49 440.16L390.89 430.98C391.03 427.88 431.52 382.75 431.52 382.75L375.07 379.34L340.55 429.83C340.55 429.83 329.68 433.68 320.19 437.58C314.31 440 309.23 442.15 308 443C305 445.21 302.16 452.78 304.79 453.8Z" fill="#D3766A"/>
<path d="M401.21 417.41C395.33 424.41 390.94 429.94 390.9 430.96L390.49 440.14C389.95 449.87 389.44 456.98 389.08 457.14C386.08 458.85 307.41 454.83 304.78 453.79C302.15 452.75 304.94 445.19 308.04 442.98C309.23 442.14 314.32 439.98 320.17 437.55C329.65 433.66 340.52 429.81 340.52 429.81L350.52 415.23L401.21 417.41Z" fill="#FFBE9D"/>
<path d="M304.44 454.08C307.15 455.14 385.91 458.96 389.01 457.21C390.19 456.55 392.01 444.47 391.53 430.99L340.75 428.58C340.75 428.58 310.92 440.66 307.75 442.94C304.58 445.22 301.74 453 304.44 454.08Z" fill="#D3BCB0"/>
<path d="M305.73 451C318.95 451.31 372.23 453.84 385.27 455.16C385.38 455.16 385.38 455.24 385.27 455.24C372.16 455.24 318.9 452.24 305.72 451.24C305.44 451.18 305.45 451 305.73 451Z" fill="#263238"/>
<path d="M312.93 440.36C314.402 440.391 315.85 440.728 317.185 441.35C318.519 441.971 319.709 442.864 320.68 443.97C322.441 445.942 323.372 448.518 323.28 451.16C323.28 451.24 323.13 451.23 323.12 451.16C322.799 448.525 321.632 446.065 319.795 444.148C317.958 442.232 315.549 440.962 312.93 440.53C312.907 440.53 312.886 440.521 312.87 440.505C312.854 440.489 312.845 440.468 312.845 440.445C312.845 440.422 312.854 440.401 312.87 440.385C312.886 440.369 312.907 440.36 312.93 440.36Z" fill="#263238"/>
<path d="M336.55 429.7C341.83 429.88 347.87 432.05 350.94 436.53C351.06 436.7 350.81 436.87 350.66 436.78C346.156 434.135 341.382 431.98 336.42 430.35C336.35 430.318 336.292 430.264 336.257 430.196C336.222 430.127 336.211 430.049 336.226 429.973C336.241 429.898 336.281 429.83 336.34 429.78C336.399 429.73 336.473 429.702 336.55 429.7Z" fill="#263238"/>
<path d="M332.39 431.09C337.68 431.28 343.71 433.44 346.79 437.92C346.9 438.09 346.66 438.26 346.5 438.17C342 435.525 337.229 433.37 332.27 431.74C332.184 431.724 332.107 431.675 332.058 431.602C332.008 431.53 331.989 431.441 332.005 431.355C332.021 431.269 332.07 431.192 332.143 431.143C332.215 431.093 332.304 431.074 332.39 431.09Z" fill="#263238"/>
<path d="M328.23 432.49C333.52 432.67 339.56 434.83 342.63 439.31C342.75 439.49 342.5 439.65 342.35 439.57C337.849 436.918 333.074 434.759 328.11 433.13C328.037 433.103 327.975 433.051 327.936 432.983C327.898 432.915 327.884 432.836 327.899 432.759C327.913 432.682 327.954 432.613 328.015 432.564C328.076 432.514 328.152 432.488 328.23 432.49Z" fill="#263238"/>
<path d="M324.07 433.88C329.36 434.06 335.4 436.22 338.47 440.71C338.59 440.88 338.34 441.05 338.19 440.96C333.702 438.315 328.945 436.156 324 434.52C323.929 434.496 323.869 434.448 323.829 434.385C323.788 434.321 323.771 434.246 323.779 434.172C323.787 434.098 323.821 434.028 323.873 433.975C323.926 433.922 323.996 433.888 324.07 433.88Z" fill="#263238"/>
<path d="M382.52 442.45C388.45 442.75 387.98 451.97 382.04 451.66C376.1 451.35 376.58 442.14 382.52 442.45Z" fill="#263238"/>
<path d="M331.56 423.09C334.24 426.91 338.47 429.43 342.11 432.22C342.197 432.28 342.296 432.317 342.401 432.33C342.505 432.343 342.611 432.33 342.71 432.292C342.808 432.255 342.896 432.194 342.966 432.116C343.035 432.037 343.085 431.942 343.11 431.84C343.131 431.845 343.152 431.844 343.173 431.839C343.193 431.834 343.213 431.825 343.229 431.811C343.245 431.798 343.259 431.781 343.267 431.762C343.276 431.742 343.281 431.721 343.28 431.7C343.11 426.846 341.669 422.122 339.1 418C337.57 415.62 334.3 413.28 331.52 415.37C328.74 417.46 330 420.86 331.56 423.09ZM331.56 418.7C332.37 412.98 337.34 417.64 338.4 419.45C339.071 420.624 339.659 421.844 340.16 423.1C341.161 425.721 342.028 428.391 342.76 431.1C341.06 429.62 339.24 428.3 337.49 426.89C335.37 425.18 331.09 421.85 331.53 418.7H331.56Z" fill="#263238"/>
<path d="M362.18 429.24C361.93 425.77 358.03 424.83 355.18 425.24C350.374 426.019 345.856 428.047 342.08 431.12C342.063 431.133 342.05 431.15 342.041 431.169C342.031 431.188 342.027 431.209 342.027 431.23C342.027 431.251 342.031 431.272 342.041 431.291C342.05 431.31 342.063 431.327 342.08 431.34C342.018 431.424 341.977 431.522 341.961 431.625C341.946 431.728 341.955 431.834 341.99 431.933C342.024 432.031 342.083 432.12 342.159 432.191C342.236 432.262 342.329 432.313 342.43 432.34C346.92 433.27 351.6 434.81 356.23 434.34C359 434 362.41 432.52 362.18 429.24ZM349.57 432.32C347.35 431.92 345.16 431.41 342.93 431.1C345.45 429.881 348.03 428.789 350.66 427.83C351.937 427.384 353.244 427.026 354.57 426.76C356.63 426.38 363.42 427.08 359.62 431.44C357.53 433.84 352.21 432.8 349.57 432.32Z" fill="#263238"/>
<path d="M338.14 419.25L401.21 427C401.21 427 463.58 352.38 468.62 347.41C484.24 332.01 540.24 305.41 556.95 280.71C571.95 258.5 556.76 234.77 556.76 234.77H495.18C496.759 241.33 498.859 247.754 501.46 253.98C501.46 253.98 450.31 292.49 423.05 319.98C405.48 337.71 338.14 419.25 338.14 419.25Z" fill="#263238"/>
<path d="M490.51 250C492.309 250.346 494.073 250.855 495.78 251.52C497.56 252.14 499.32 252.86 501.05 253.63C504.439 255.189 507.741 256.931 510.94 258.85C511.04 258.91 510.94 259.05 510.85 259C507.47 257.37 503.99 255.92 500.5 254.53L495.5 252.53C493.768 251.929 492.069 251.238 490.41 250.46C490.16 250.4 490.27 250 490.51 250Z" fill="#455A64"/>
<path d="M493.75 234.75C494.54 237.54 495.24 240.35 496.12 243.11C496.53 244.37 496.93 245.66 497.45 246.89C497.89 247.89 498.54 249.09 499.76 249.29C501.16 249.52 501.53 248.29 501.38 247.17C501.169 245.883 500.892 244.608 500.55 243.35C500.22 241.9 498.55 234.86 498.55 234.82C498.55 234.78 498.55 234.69 498.62 234.61C498.636 234.595 498.658 234.587 498.68 234.587C498.702 234.587 498.723 234.595 498.74 234.61C499.01 234.75 500.74 240.16 501.1 241.5C501.46 242.84 501.85 244.19 502.22 245.5C502.601 246.49 502.728 247.559 502.59 248.61C502.476 249.11 502.205 249.561 501.816 249.895C501.427 250.23 500.941 250.432 500.43 250.47C500.48 250.56 500.54 250.64 500.59 250.74C500.72 251.01 500.82 251.3 500.93 251.58C501.04 251.86 501.15 252.16 501.25 252.45C501.289 252.591 501.32 252.735 501.34 252.88C501.34 253.05 501.34 253.21 501.34 253.37C501.362 253.427 501.361 253.491 501.337 253.547C501.313 253.603 501.267 253.647 501.21 253.67C501.153 253.693 501.089 253.691 501.033 253.667C500.977 253.643 500.932 253.597 500.91 253.54C500.83 253.4 500.72 253.29 500.63 253.15C500.544 253.004 500.474 252.85 500.42 252.69C500.32 252.41 500.23 252.13 500.15 251.85C500.07 251.57 499.97 251.28 499.91 251C499.877 250.828 499.853 250.654 499.84 250.48C499.251 250.444 498.684 250.247 498.2 249.91C497.391 249.256 496.784 248.386 496.45 247.4C495.99 246.24 495.63 245.04 495.26 243.85C494.313 240.916 493.627 237.904 493.21 234.85C493.197 234.778 493.212 234.704 493.254 234.644C493.295 234.584 493.358 234.543 493.43 234.53C493.502 234.517 493.575 234.532 493.635 234.574C493.695 234.615 493.737 234.678 493.75 234.75Z" fill="#455A64"/>
<path d="M530.54 240.54C530.84 241.92 531.04 243.32 531.4 244.7C531.76 246.08 532.16 247.38 532.65 248.7C533.082 249.971 533.695 251.173 534.47 252.27C535.269 253.303 536.216 254.212 537.28 254.97C539.309 256.484 541.572 257.656 543.98 258.44C545.19 258.853 546.426 259.187 547.68 259.44C548.33 259.56 548.98 259.66 549.68 259.72C550.222 259.725 550.759 259.833 551.26 260.04C551.308 260.068 551.347 260.109 551.375 260.157C551.402 260.205 551.416 260.26 551.416 260.315C551.416 260.37 551.402 260.425 551.375 260.473C551.347 260.521 551.308 260.562 551.26 260.59C550.322 260.9 549.319 260.962 548.35 260.77C545.147 260.542 542.037 259.595 539.25 258C537.371 257.006 535.679 255.693 534.25 254.12C532.89 252.463 531.929 250.517 531.44 248.43C530.719 245.889 530.352 243.261 530.35 240.62C530.357 240.602 530.367 240.585 530.38 240.571C530.393 240.557 530.41 240.546 530.427 240.538C530.445 240.531 530.464 240.527 530.484 240.527C530.503 240.528 530.522 240.532 530.54 240.54Z" fill="#455A64"/>
<path d="M352 410C353.703 409.956 355.406 410.023 357.1 410.2C358.89 410.32 360.67 410.43 362.45 410.57C365.96 410.86 369.45 411.18 372.95 411.57C379.95 412.37 387.03 413.2 394.04 414.17C397.7 414.68 405.55 415.73 405.97 415.96C406.012 415.988 406.045 416.028 406.062 416.076C406.08 416.123 406.083 416.175 406.069 416.223C406.056 416.272 406.028 416.316 405.988 416.347C405.949 416.379 405.901 416.397 405.85 416.4C398.85 416.03 391.85 415.35 384.85 414.69C377.85 414.03 370.85 413.34 363.85 412.37C361.93 412.1 360.01 411.78 358.08 411.49C356.032 411.275 354.001 410.924 352 410.44C351.81 410.36 351.77 410 352 410Z" fill="#455A64"/>
<path d="M487.77 333C484.5 335.1 481.34 337.36 478.17 339.6C475.144 341.57 472.238 343.721 469.47 346.04C468.105 347.324 466.82 348.69 465.62 350.13L461.86 354.48C459.35 357.37 456.86 360.29 454.39 363.22C452.99 364.867 451.6 366.533 450.22 368.22C448.78 369.95 447.44 371.77 445.99 373.5C445.973 373.522 445.964 373.549 445.966 373.577C445.968 373.604 445.981 373.63 446.001 373.649C446.021 373.668 446.047 373.678 446.075 373.679C446.103 373.679 446.13 373.669 446.15 373.65C448.71 370.76 451.43 367.99 453.99 365.09C456.55 362.19 459.11 359.29 461.64 356.35C464.17 353.41 466.43 350.58 469.03 347.89C471.689 345.376 474.575 343.113 477.65 341.13C481.15 338.63 484.65 336.13 488.08 333.52C488.37 333.3 488.1 332.82 487.77 333Z" fill="#455A64"/>
<path d="M500.47 254.41C489.95 261.79 479.07 270.04 469.18 278.23C459.29 286.42 449.5 294.78 439.94 303.38C437.273 305.78 434.607 308.213 431.94 310.68C429.28 313.16 426.68 316.27 424.02 318.75C423.88 318.88 424.1 319.09 424.24 318.96C429.05 314.65 434.02 309.96 438.89 305.72C443.76 301.48 448.59 297.32 453.46 293.15C463.247 284.77 473.157 276.533 483.19 268.44C488.75 263.93 495.19 259.37 500.69 254.72C500.9 254.57 500.65 254.27 500.47 254.41Z" fill="#455A64"/>
<path d="M554.89 242C554.29 240.23 553.65 238.47 552.99 236.71C552.99 236.61 552.79 236.71 552.83 236.76C555.31 244.08 557.83 251.58 558.11 259.38C558.284 263.115 557.741 266.849 556.51 270.38C555.225 273.754 553.318 276.858 550.89 279.53C545.99 285.06 539.76 289.42 533.89 293.83C527.49 298.623 520.987 303.29 514.38 307.83C507.8 312.35 501.05 316.66 494.23 320.83C487.41 325 480.51 328.76 473.73 332.83C470.443 334.772 467.366 337.051 464.55 339.63C461.71 342.29 459.17 345.24 456.61 348.17C451.13 354.43 445.703 360.737 440.33 367.09C429.537 379.757 418.96 392.613 408.6 405.66C407.333 407.247 406.067 408.843 404.8 410.45C404.74 410.53 404.8 410.64 404.91 410.56C415.577 397.5 426.36 384.533 437.26 371.66C442.673 365.26 448.117 358.893 453.59 352.56C458.84 346.5 463.89 340.07 470.59 335.56C473.82 333.36 477.27 331.49 480.66 329.56C484.213 327.56 487.733 325.5 491.22 323.38C498.173 319.2 505.013 314.867 511.74 310.38C518.43 305.9 525.03 301.31 531.51 296.52C534.737 294.133 537.943 291.7 541.13 289.22C543.886 287.135 546.527 284.902 549.04 282.53C551.526 280.181 553.661 277.487 555.38 274.53C557.109 271.403 558.181 267.956 558.53 264.4C559.29 256.77 557.3 249.14 554.89 242Z" fill="#455A64"/>
<path d="M485.22 245.59C486.32 247.69 563.22 265.47 563.76 265.12C565.1 264.12 569.51 193.7 549.22 162.2C545.65 156.65 536.97 155.62 532.5 156.78C530.27 157.36 521.1 165.17 516.9 172.98C512.7 180.79 484.54 244.25 485.22 245.59Z" fill="#EED9CE"/>
<g opacity="0.1">
<path d="M546.37 159.29H528.66C529.36 158.71 530.01 158.22 530.58 157.83H543.73C544.665 158.211 545.551 158.701 546.37 159.29Z" fill="black"/>
<path d="M550.37 164.08H523.56C524.03 163.57 524.51 163.08 524.98 162.62H549.48C549.79 163.1 550.08 163.58 550.37 164.08Z" fill="black"/>
<path d="M552.91 168.88H519.53C519.89 168.38 520.27 167.88 520.65 167.42H552.19C552.44 167.9 552.67 168.39 552.91 168.88Z" fill="black"/>
<path d="M555 173.67H516.55L516.9 172.98C517.04 172.73 517.18 172.47 517.33 172.22H554.39C554.59 172.7 554.79 173.18 555 173.67Z" fill="black"/>
<path d="M556.72 178.47H514.22C514.47 177.95 514.7 177.47 514.91 177.01H556.22C556.39 177.49 556.56 178 556.72 178.47Z" fill="black"/>
<path d="M558.2 183.27H512L512.67 181.81H557.77C557.92 182.29 558.06 182.78 558.2 183.27Z" fill="black"/>
<path d="M559.46 188.06H509.81C510.03 187.56 510.25 187.06 510.47 186.6H559.1L559.46 188.06Z" fill="black"/>
<path d="M560.55 192.86H507.63C507.85 192.37 508.08 191.86 508.29 191.4H560.23C560.34 191.88 560.45 192.37 560.55 192.86Z" fill="black"/>
<path d="M561.47 197.66H505.47C505.69 197.17 505.9 196.66 506.12 196.2H561.2C561.3 196.68 561.39 197.17 561.47 197.66Z" fill="black"/>
<path d="M562.28 202.45H503.34C503.56 201.96 503.77 201.45 503.99 200.99H562L562.28 202.45Z" fill="black"/>
<path d="M563 207.25H501.21C501.42 206.77 501.64 206.25 501.85 205.79H562.76C562.83 206.28 562.89 206.76 563 207.25Z" fill="black"/>
<path d="M563.53 212H499.1C499.31 211.51 499.52 211 499.74 210.54H563.36C563.42 211.07 563.47 211.55 563.53 212Z" fill="black"/>
<path d="M564 216.84H497C497.2 216.36 497.42 215.84 497.63 215.38H563.86C563.91 215.87 564 216.35 564 216.84Z" fill="black"/>
<path d="M564.38 221.64H494.91C495.11 221.16 495.33 220.64 495.54 220.18H564.27C564.31 220.67 564.35 221.15 564.38 221.64Z" fill="black"/>
<path d="M564.68 226.43H492.84L493.46 224.97H564.6C564.63 225.46 564.65 226 564.68 226.43Z" fill="black"/>
<path d="M564.89 231.23H490.79L491.41 229.77H564.84C564.86 230.26 564.88 230.75 564.89 231.23Z" fill="black"/>
<path d="M565 236H488.78L489.39 234.54H565V236Z" fill="black"/>
<path d="M565.1 240.82H486.84C487.01 240.36 487.21 239.87 487.41 239.36H565.09C565.1 239.85 565.1 240.34 565.1 240.82Z" fill="black"/>
<path d="M565.1 244.16C565.1 244.65 565.1 245.16 565.1 245.62H485.24C485.27 245.125 485.392 244.64 485.6 244.19L565.1 244.16Z" fill="black"/>
<path d="M565 249C565 249.5 565 250 565 250.46H501C499 249.95 497.19 249.46 495.5 249H565Z" fill="black"/>
<path d="M564.88 253.75C564.88 254.25 564.88 254.75 564.82 255.21H520.3C518.3 254.72 516.3 254.21 514.3 253.75H564.88Z" fill="black"/>
<path d="M564.62 258.54C564.62 259.05 564.55 259.54 564.51 260H540.51L534.26 258.54H564.62Z" fill="black"/>
<path d="M564.16 263.34C564.112 263.833 564.025 264.321 563.9 264.8H561.9C560.4 264.5 558.07 263.99 555.14 263.34H564.16Z" fill="black"/>
</g>
<path d="M545.75 178.4C559.58 177.28 582.5 172.32 594.97 165.4C602.45 161.22 603.58 155.61 603.97 151.69C604.97 141.55 588.07 125.09 579.19 118.95C578.02 118.14 576.32 124.1 570.94 130.79C566.39 136.46 557.81 142.86 559.1 143.95C561 145.55 569.81 151.62 569.39 152.35C568.67 153.6 560.5 157.07 548.26 163C531.84 170.92 536 179.2 545.75 178.4Z" fill="#FFBE9D"/>
<path d="M582.13 174.49L558.41 156.25C558.41 156.25 542.36 164.01 538.13 168.75C533.9 173.49 536.31 179.3 548.07 180.45C561.55 181.76 582.13 174.49 582.13 174.49Z" fill="#EED9CE"/>
<path d="M576.16 175.06C567.16 167.13 557.51 159.53 555.7 158.31C555.62 158.26 555.54 158.38 555.6 158.44C562.08 164.43 568.916 170.023 576.07 175.19C576.14 175.24 576.23 175.12 576.16 175.06Z" fill="#263238"/>
<path d="M561.79 178.6C560.001 178.905 558.296 179.587 556.79 180.6C556.075 181.134 555.432 181.759 554.88 182.46C554.594 182.796 554.34 183.158 554.12 183.54C553.896 183.902 553.706 184.284 553.55 184.68C553.55 184.77 553.65 184.82 553.7 184.76C553.99 184.47 554.23 184.13 554.53 183.84C554.83 183.55 555.1 183.24 555.41 182.96C556.039 182.366 556.707 181.815 557.41 181.31C558.733 180.224 560.24 179.384 561.86 178.83C561.875 178.825 561.889 178.818 561.901 178.808C561.913 178.798 561.924 178.785 561.931 178.772C561.938 178.758 561.943 178.742 561.945 178.727C561.946 178.711 561.945 178.695 561.94 178.68C561.935 178.665 561.928 178.651 561.918 178.639C561.908 178.626 561.895 178.616 561.882 178.609C561.868 178.601 561.852 178.597 561.837 178.595C561.821 178.594 561.805 178.595 561.79 178.6Z" fill="#263238"/>
<g opacity="0.1">
<path d="M562.36 159.29H552.48C553.48 158.75 554.48 158.29 555.26 157.83H560.46L562.36 159.29Z" fill="black"/>
<path d="M568.59 164.08H544.2C544.96 163.59 545.76 163.08 546.56 162.62H566.69L568.59 164.08Z" fill="black"/>
<path d="M574.83 168.88H538L538.11 168.75C538.546 168.275 539.013 167.831 539.51 167.42H572.92L574.83 168.88Z" fill="black"/>
<path d="M581.06 173.67H536.22C536.165 173.186 536.185 172.697 536.28 172.22H579.18L581.06 173.67Z" fill="black"/>
<path d="M573.86 177C572.08 177.48 570.09 178 567.98 178.46H540.24C539.449 178.072 538.713 177.581 538.05 177H573.86Z" fill="black"/>
</g>
<path d="M530.44 169.79C534.44 171.45 542.53 166.33 546.18 161.69C546.42 161.37 547.31 147.13 547.78 144.32C547.87 143.75 529.47 145.66 529.47 145.66C529.889 149.333 529.856 153.045 529.37 156.71C529.3 157.12 526.61 168.18 530.44 169.79Z" fill="#FFBE9D"/>
<path d="M529.06 157.84C529.06 157.9 529.06 157.96 529 158.03H529.09C529.648 158.206 530.22 158.334 530.8 158.41C540.4 159.79 545.58 148.57 547.23 144.2C544.23 144.11 529.47 145.64 529.47 145.64C529.889 149.314 529.856 153.025 529.37 156.69C529.37 156.83 529.32 156.96 529.3 157.08C529.244 157.34 529.164 157.595 529.06 157.84Z" fill="#263238"/>
<path d="M527.06 112.87C527.06 112.87 521.06 115.29 519.9 121.35C518.74 127.41 520.06 133.79 520.58 134.11C521.1 134.43 527.06 112.87 527.06 112.87Z" fill="#263238"/>
<path d="M550.19 121.93C552.1 128.26 548.73 146.52 544.19 150.59C537.66 156.48 526.99 157.02 521.99 149.17C517.14 141.57 521.99 117.85 526.99 114.17C534.43 108.72 547.35 112.59 550.19 121.93Z" fill="#FFBE9D"/>
<path d="M520.72 128.89C520.337 130.566 520.103 132.273 520.02 133.99C519.9 135.76 519.88 137.53 519.89 139.3C519.89 139.4 520.05 139.39 520.05 139.3C520.05 137.56 520.17 135.82 520.32 134.09C520.47 132.36 520.75 130.64 520.84 128.91C520.85 128.83 520.74 128.83 520.72 128.89Z" fill="#263238"/>
<path d="M532 133C532 132.95 532.09 133.07 532.08 133.12C531.82 134.35 531.73 135.79 532.77 136.4C532.77 136.4 532.77 136.48 532.77 136.47C531.44 136 531.58 134.08 532 133Z" fill="#263238"/>
<path d="M533.36 131.87C535.36 132.08 534.8 136.07 532.94 135.87C531.08 135.67 531.67 131.7 533.36 131.87Z" fill="#263238"/>
<path d="M525.16 132.19C525.16 132.14 525.05 132.19 525.05 132.28C524.91 133.53 524.55 134.93 523.37 135.19V135.26C524.77 135.25 525.23 133.39 525.16 132.19Z" fill="#263238"/>
<path d="M524.23 130.74C522.23 130.31 521.55 134.28 523.37 134.68C525.19 135.08 525.88 131.1 524.23 130.74Z" fill="#263238"/>
<path d="M535.19 130.26C534.686 130.035 534.195 129.781 533.72 129.5C533.164 129.304 532.686 128.931 532.36 128.44C532.291 128.266 532.281 128.074 532.332 127.893C532.383 127.712 532.491 127.553 532.64 127.44C532.973 127.261 533.348 127.175 533.726 127.189C534.104 127.203 534.471 127.317 534.79 127.52C535.496 127.83 536.06 128.394 536.37 129.1C536.429 129.264 536.44 129.441 536.402 129.611C536.363 129.781 536.277 129.937 536.152 130.059C536.028 130.181 535.871 130.265 535.701 130.301C535.53 130.336 535.353 130.322 535.19 130.26Z" fill="#263238"/>
<path d="M523 128.51C523.55 128.476 524.097 128.413 524.64 128.32C525.231 128.334 525.81 128.155 526.29 127.81C526.406 127.673 526.478 127.503 526.494 127.324C526.51 127.145 526.47 126.966 526.38 126.81C526.136 126.53 525.823 126.319 525.472 126.198C525.121 126.077 524.745 126.05 524.38 126.12C523.606 126.16 522.875 126.489 522.33 127.04C522.227 127.171 522.162 127.328 522.143 127.494C522.123 127.659 522.149 127.827 522.218 127.979C522.287 128.13 522.397 128.26 522.535 128.354C522.673 128.447 522.834 128.502 523 128.51Z" fill="#263238"/>
<path d="M531.9 144.64C531.56 144.89 531.21 145.25 530.75 145.23C530.291 145.152 529.852 144.982 529.46 144.73C529.46 144.73 529.38 144.73 529.4 144.78C529.542 145.05 529.754 145.277 530.015 145.435C530.276 145.594 530.575 145.679 530.88 145.68C531.146 145.645 531.396 145.531 531.598 145.353C531.799 145.174 531.943 144.94 532.01 144.68C532 144.65 531.94 144.61 531.9 144.64Z" fill="#263238"/>
<path d="M531.11 140.75C530.728 141.198 530.257 141.562 529.726 141.819C529.196 142.075 528.619 142.219 528.03 142.24C527.519 142.263 527.008 142.216 526.51 142.1L526.22 142.02C526.131 142.003 526.044 141.976 525.96 141.94C525.894 141.922 525.837 141.88 525.798 141.823C525.76 141.767 525.743 141.698 525.75 141.63C525.745 141.59 525.745 141.55 525.75 141.51V141.4C525.85 140.4 526.15 139 526.15 139C525.78 139.13 523.89 139.68 523.99 139.19C524.698 134.905 525.841 130.704 527.4 126.65C527.45 126.52 527.66 126.58 527.63 126.71C526.99 130.71 525.63 134.5 524.96 138.47C525.634 138.261 526.334 138.15 527.04 138.14C527.17 138.2 526.42 140.91 526.4 141.35C527.169 141.54 527.969 141.572 528.75 141.445C529.532 141.317 530.28 141.034 530.95 140.61C531.11 140.57 531.2 140.67 531.11 140.75Z" fill="#263238"/>
<path d="M527.14 141.69C527.565 142.444 528.178 143.074 528.92 143.52C529.332 143.754 529.808 143.852 530.28 143.8C531.28 143.68 531.46 142.8 531.38 141.97C531.342 141.544 531.251 141.124 531.11 140.72C529.923 141.457 528.533 141.797 527.14 141.69Z" fill="#263238"/>
<path d="M528.92 143.52C529.332 143.754 529.808 143.852 530.28 143.8C531.28 143.68 531.46 142.8 531.38 141.97C530.855 141.915 530.328 142.038 529.881 142.319C529.435 142.6 529.097 143.023 528.92 143.52Z" fill="#CA3F3F"/>
<path d="M548.71 136.74C546.62 137.04 545.26 130.68 544.97 128.26C544.71 126.14 545.06 119.58 545.03 119.12C545 118.66 535.43 123.48 530.62 121.22C525.81 118.96 523.16 113.91 523.42 111.79C523.68 109.67 530.77 105.3 536.22 105.87C541.67 106.44 547.92 114.46 547.92 114.46C547.193 113.315 546.558 112.115 546.02 110.87C546.15 110.64 549.42 112.58 549.68 115.17C549.68 115.17 549.47 111.94 549.75 111.92C550.03 111.9 552.32 115.01 551.39 116.92C551.39 116.92 554.1 120.13 553.93 123.16C553.76 126.19 551.17 136.39 548.71 136.74Z" fill="#263238"/>
<path d="M527.21 119.61C528.576 120.643 530.09 121.465 531.7 122.05C533.528 122.51 535.442 122.51 537.27 122.05C539.103 121.644 540.859 120.945 542.47 119.98C543.89 119.14 545.2 118.06 546.69 117.35C547.06 117.17 547.38 117.71 547.12 117.99C544.381 120.806 540.808 122.665 536.93 123.29C535.131 123.583 533.287 123.403 531.579 122.766C529.871 122.13 528.358 121.059 527.19 119.66C527.19 119.66 527.19 119.59 527.21 119.61Z" fill="#263238"/>
<path d="M532.78 138.9C531.411 138.527 530.245 137.629 529.537 136.399C528.829 135.17 528.636 133.711 529 132.34C529.26 131.373 529.786 130.499 530.519 129.816C531.251 129.134 532.16 128.671 533.143 128.479C534.126 128.288 535.142 128.376 536.077 128.733C537.012 129.091 537.828 129.704 538.432 130.502C539.037 131.301 539.405 132.252 539.495 133.249C539.585 134.246 539.393 135.249 538.942 136.142C538.49 137.036 537.797 137.785 536.941 138.304C536.085 138.824 535.101 139.092 534.1 139.08C533.654 139.079 533.21 139.019 532.78 138.9ZM529.69 132.52C529.451 133.406 529.48 134.343 529.773 135.212C530.066 136.082 530.611 136.845 531.338 137.405C532.065 137.965 532.941 138.297 533.857 138.359C534.773 138.421 535.686 138.21 536.482 137.752C537.277 137.295 537.919 136.612 538.327 135.79C538.735 134.968 538.889 134.043 538.771 133.133C538.653 132.223 538.268 131.368 537.665 130.677C537.061 129.986 536.266 129.489 535.38 129.25C535.004 129.153 534.618 129.1 534.23 129.09C533.2 129.078 532.196 129.409 531.374 130.029C530.552 130.65 529.96 131.526 529.69 132.52Z" fill="#B0BEC5"/>
<path d="M521.58 137.4C519.4 137.11 517.94 134.5 518.32 131.57C518.466 130.243 519.03 128.996 519.93 128.01C520.287 127.56 520.755 127.21 521.288 126.995C521.82 126.779 522.399 126.705 522.969 126.779C523.539 126.854 524.08 127.074 524.539 127.42C524.998 127.765 525.36 128.223 525.59 128.75C526.199 129.939 526.42 131.289 526.22 132.61C525.86 135.38 523.98 137.45 521.93 137.42L521.58 137.4ZM520.45 128.5C519.656 129.382 519.159 130.491 519.03 131.67C518.7 134.2 519.88 136.45 521.67 136.67C523.46 136.89 525.18 135.03 525.52 132.49C525.691 131.32 525.496 130.125 524.96 129.07C524.766 128.655 524.475 128.293 524.111 128.014C523.747 127.736 523.321 127.549 522.87 127.47H522.6C522.189 127.482 521.786 127.58 521.416 127.757C521.046 127.935 520.717 128.188 520.45 128.5Z" fill="#B0BEC5"/>
<path d="M529.1 133L529.63 132.51C528.91 131.73 527.17 130.58 525.69 131.8L526.14 132.35C527.47 131.23 529 132.91 529.1 133Z" fill="#B0BEC5"/>
<path d="M552.57 137.44L553.25 137.2C553.13 136.88 552.09 134.12 550.54 133.65C548.99 133.18 539.46 132.87 539.05 132.85V133.57C541.81 133.67 549.24 134 550.35 134.34C551.46 134.68 552.3 136.68 552.57 137.44Z" fill="#B0BEC5"/>
<path d="M546.25 136.81C546.25 136.81 550.51 131 553.16 132.53C555.81 134.06 552.51 142.53 549.34 143.66C548.943 143.829 548.515 143.916 548.083 143.916C547.651 143.915 547.223 143.828 546.826 143.658C546.429 143.487 546.071 143.239 545.772 142.926C545.474 142.614 545.242 142.244 545.09 141.84L546.25 136.81Z" fill="#FFBE9D"/>
<path d="M552.16 134.94V135.02C549.94 135.87 548.73 137.89 547.87 140.02C548.003 139.802 548.181 139.615 548.393 139.473C548.605 139.331 548.846 139.237 549.098 139.197C549.35 139.157 549.608 139.172 549.853 139.242C550.099 139.311 550.326 139.434 550.52 139.6C550.58 139.6 550.52 139.73 550.46 139.71C550.075 139.583 549.66 139.576 549.27 139.69C548.881 139.805 548.536 140.035 548.28 140.35C547.866 140.891 547.504 141.47 547.2 142.08C547.1 142.28 546.74 142.16 546.82 141.94C546.86 139 549.13 135.16 552.16 134.94Z" fill="#263238"/>
<path d="M553.63 132.6C553.329 132.379 552.978 132.235 552.608 132.183C552.238 132.131 551.861 132.171 551.51 132.3C551.41 132.3 551.4 132.39 551.51 132.36C551.931 132.235 552.379 132.235 552.8 132.36C553.15 132.47 554.14 132.88 554.13 134.95C553.978 136.585 553.527 138.178 552.8 139.65C552.8 139.7 552.86 139.75 552.89 139.7C553.374 138.779 553.762 137.81 554.05 136.81C554.33 135.69 554.7 133.51 553.63 132.6Z" fill="#263238"/>
<path d="M547.67 163.07C546.96 163.86 546.33 164.69 545.58 165.44C544.825 166.201 544.031 166.922 543.2 167.6C541.593 168.916 539.85 170.055 538 171C536.089 172.138 533.864 172.635 531.65 172.42C530.646 172.249 529.708 171.808 528.936 171.144C528.164 170.479 527.588 169.617 527.27 168.65C526.34 166.15 526.97 163.49 527.58 160.87C527.58 160.78 527.46 160.74 527.43 160.87C526.74 163.56 526.22 165.77 526.69 168.3C526.844 169.287 527.242 170.221 527.848 171.015C528.454 171.81 529.248 172.441 530.16 172.85C534.59 174.69 539.31 171.5 542.59 168.77C543.55 167.968 544.462 167.11 545.32 166.2C546.239 165.274 547.075 164.271 547.82 163.2C547.85 163.08 547.73 163 547.67 163.07Z" fill="#263238"/>
<path d="M584.27 260.2H225.73V272.95H584.27V260.2Z" fill="#263238"/>
<path d="M584.27 267.97H225.73V272.95H584.27V267.97Z" fill="#455A64"/>
<path d="M238.59 451.85H233.44L248.44 272.95H261.59L238.59 451.85Z" fill="#455A64"/>
<path d="M261.59 272.95L260.05 284.92H247.44L248.44 272.95H261.59Z" fill="#263238"/>
<path d="M571.41 451.85H576.56L561.56 272.95H548.41L571.41 451.85Z" fill="#455A64"/>
<path d="M548.41 272.95L549.95 284.92H562.56L561.56 272.95H548.41Z" fill="#263238"/>
<path d="M447.33 260.19H502.72V255.88L447.33 254.09V260.19Z" fill="#455A64"/>
<path d="M403.79 260.11H440.34C443.46 260.11 438.94 251.23 427.56 247.83C416.18 244.43 400.21 256.78 403.79 260.11Z" fill="#37474F"/>
<path d="M418.13 260.11C417.535 258.242 416.737 256.444 415.75 254.75C415.262 253.922 414.693 253.145 414.05 252.43C413.386 251.709 412.667 251.04 411.9 250.43C412.89 250.721 413.807 251.218 414.59 251.89C415.385 252.563 416.061 253.364 416.59 254.26C417.124 255.149 417.531 256.108 417.8 257.11C418.08 258.084 418.192 259.098 418.13 260.11Z" fill="#263238"/>
<path d="M413.8 251.66C411.88 252.91 409.96 254.03 408.16 255.32C407.259 255.944 406.41 256.64 405.62 257.4C404.81 258.151 404.184 259.078 403.79 260.11C403.815 258.923 404.258 257.783 405.04 256.89C405.766 255.977 406.622 255.175 407.58 254.51C408.527 253.848 409.531 253.272 410.58 252.79C411.61 252.3 412.69 251.921 413.8 251.66Z" fill="#263238"/>
<path d="M377.57 242.92H466.4L452.28 176.79H363.44L377.57 242.92Z" fill="#455A64"/>
<path d="M374.29 242.92H463.12L448.99 176.79H360.16L374.29 242.92Z" fill="#CAC6C6"/>
<path d="M422.2 219.21H424.28L421.12 204.38H419.04L422.2 219.21Z" fill="#263238"/>
<path d="M418.09 219.21H420.17L417.01 204.38H414.92L418.09 219.21Z" fill="#263238"/>
<path d="M413.98 219.21H416.06L412.9 204.38H410.81L413.98 219.21Z" fill="#263238"/>
<path d="M409.87 219.21H411.95L408.79 204.38H406.7L409.87 219.21Z" fill="#263238"/>
<path d="M405.75 219.21H407.84L404.68 204.38H402.59L405.75 219.21Z" fill="#263238"/>
<path d="M401.64 219.21H403.73L400.56 204.38H398.48L401.64 219.21Z" fill="#263238"/>
<path d="M397.53 219.21H399.62L396.45 204.38H394.37L397.53 219.21Z" fill="#263238"/>
<path d="M399.41 260.2H443.1V256.8L399.41 255.39V260.2Z" fill="#455A64"/>
<path d="M387.53 260.19H410.99L425.12 223.13H401.66L387.53 260.19Z" fill="#B0AEAE"/>
<path d="M383.67 260.19H407.13L421.25 223.13H397.8L383.67 260.19Z" fill="#263238"/>
<path d="M379.4 123.66C379.4 123.66 374 167.25 365 177.06C354.26 188.82 346.47 187.06 342.13 193.17C337.8 187.09 330 188.82 319.25 177.05C310.25 167.24 304.87 123.65 304.87 123.65C328.45 112.21 342.13 99.38 342.13 99.38C342.55 99.79 356.18 112.4 379.4 123.66Z" fill="#B0BEC5"/>
<path d="M342.13 99.4V193.17C337.8 187.09 330 188.82 319.25 177.05C310.25 167.24 304.87 123.65 304.87 123.65C328.45 112.21 342.13 99.38 342.13 99.38V99.4Z" fill="#B17136"/>
<path d="M379.4 123.66C379.4 123.66 374 167.25 365 177.06C354.26 188.82 346.47 187.06 342.13 193.17V99.4C342.55 99.79 356.18 112.4 379.4 123.66Z" fill="#FCBB7F"/>
<path d="M373.61 127.17C373.61 127.17 369 164 361.46 172.28C352.38 182.28 345.79 180.77 342.12 185.9C338.46 180.77 331.87 182.24 322.79 172.28C315.23 163.99 310.64 127.17 310.64 127.17C330.56 117.5 342.12 106.67 342.12 106.67C342.12 106.67 353.7 117.5 373.61 127.17Z" fill="#EE9849"/>
<path d="M351.57 141.06H332.68V158.2H351.57V141.06Z" fill="#FFC727"/>
<path d="M349.68 146.34H347.76V138.69C347.699 137.237 347.078 135.863 346.028 134.856C344.978 133.85 343.58 133.287 342.125 133.287C340.67 133.287 339.272 133.85 338.222 134.856C337.172 135.863 336.551 137.237 336.49 138.69V146.34H334.57V138.69C334.641 136.734 335.468 134.882 336.877 133.523C338.286 132.164 340.168 131.405 342.125 131.405C344.082 131.405 345.964 132.164 347.373 133.523C348.782 134.882 349.609 136.734 349.68 138.69V146.34Z" fill="#FFC727"/>
<path d="M342.93 149.84L343.72 153.59H340.36L341.15 149.84C340.841 149.647 340.602 149.358 340.472 149.017C340.341 148.677 340.324 148.303 340.425 147.952C340.526 147.601 340.738 147.293 341.029 147.073C341.32 146.854 341.675 146.735 342.04 146.735C342.405 146.735 342.76 146.854 343.051 147.073C343.342 147.293 343.554 147.601 343.655 147.952C343.755 148.303 343.739 148.677 343.608 149.017C343.478 149.358 343.239 149.647 342.93 149.84Z" fill="#37474F"/>
<path d="M280.43 243.89H225.73V197.63L253.07 180.26L280.43 197.63V243.89Z" fill="#B0BEC5"/>
<path d="M280.43 243.89H225.73V197.63L253.07 180.26L280.43 197.63V243.89Z" fill="#C0C3C7"/>
<path d="M277.34 236.53H228.81V174.24H264.84L277.34 186.11V236.53Z" fill="white"/>
<path d="M264.84 174.24L277.34 186.11H264.84V174.24Z" fill="#DBDBDB"/>
<path d="M233.55 186.29H260.53V184.69H233.55V186.29Z" fill="#9B9E9F"/>
<path d="M233.55 190.33H260.53V188.73H233.55V190.33Z" fill="#9B9E9F"/>
<path d="M233.55 194.36H260.53V192.76H233.55V194.36Z" fill="#9B9E9F"/>
<path d="M233.55 198.41H273.08V196.81H233.55V198.41Z" fill="#9B9E9F"/>
<path d="M233.55 202.44H273.08V200.84H233.55V202.44Z" fill="#9B9E9F"/>
<path d="M233.55 206.48H273.08V204.88H233.55V206.48Z" fill="#9B9E9F"/>
<path d="M233.55 210.51H273.08V208.91H233.55V210.51Z" fill="#9B9E9F"/>
<path d="M233.55 214.56H273.08V212.96H233.55V214.56Z" fill="#9B9E9F"/>
<path d="M233.55 218.59H273.08V216.99H233.55V218.59Z" fill="#9B9E9F"/>
<path d="M233.55 222.63H273.08V221.03H233.55V222.63Z" fill="#9B9E9F"/>
<path d="M233.55 226.66H273.08V225.06H233.55V226.66Z" fill="#DBDBDB"/>
<path d="M233.55 230.7H273.08V229.1H233.55V230.7Z" fill="#DBDBDB"/>
<path d="M280.43 209.21V243.89H225.73V209.21C228.08 210.54 230.39 211.93 232.73 213.3C235.07 214.67 237.36 216.07 239.66 217.49C242.227 219.05 244.787 220.63 247.34 222.23H247.43L247.36 222.29L253.1 225.88C255.01 224.68 256.92 223.47 258.84 222.29L258.77 222.23H258.85C261.41 220.64 263.96 219.06 266.53 217.49C268.83 216.083 271.14 214.69 273.46 213.31C275.77 211.93 278.08 210.54 280.43 209.21Z" fill="#E8EAED"/>
<path d="M280.43 209.21C278.22 210.76 275.97 212.21 273.74 213.77C271.51 215.33 269.25 216.77 266.99 218.24C264.73 219.71 262.26 221.31 259.9 222.83L259.69 222.98L253.39 226.98L253.07 227.17L252.77 226.98C250.67 225.647 248.573 224.313 246.48 222.98C246.403 222.939 246.329 222.892 246.26 222.84C243.88 221.32 241.52 219.84 239.16 218.24C236.8 216.64 234.66 215.24 232.42 213.78C230.18 212.32 227.94 210.78 225.73 209.22C228.08 210.55 230.39 211.94 232.73 213.31C235.07 214.68 237.36 216.08 239.66 217.5C242.227 219.06 244.787 220.64 247.34 222.24L253.08 225.83C254.99 224.63 256.9 223.42 258.82 222.24C261.38 220.65 263.93 219.07 266.5 217.5C268.8 216.093 271.11 214.7 273.43 213.32C275.77 211.93 278.08 210.54 280.43 209.21Z" fill="#ABA7A7"/>
<path d="M247.41 222.18L247.34 222.24L246.48 222.97C245.11 224.13 243.7 225.24 242.27 226.32C240.53 227.65 238.75 228.92 236.96 230.18C235.17 231.44 233.35 232.66 231.5 233.84C229.65 235.02 227.79 236.18 225.86 237.24C227.52 235.79 229.25 234.43 230.99 233.11C232.73 231.79 234.52 230.5 236.3 229.24C238.08 227.98 239.92 226.76 241.76 225.58C243.23 224.58 244.76 223.7 246.26 222.83L247.32 222.23L247.41 222.18Z" fill="#ABA7A7"/>
<path d="M280.29 237.24C278.36 236.18 276.49 235.02 274.65 233.84C272.81 232.66 271 231.42 269.19 230.18C267.38 228.94 265.62 227.65 263.87 226.32C262.45 225.24 261.05 224.14 259.69 222.98C259.39 222.73 259.1 222.49 258.82 222.24L258.75 222.18H258.83L259.9 222.79C261.43 223.66 262.9 224.59 264.39 225.54C266.24 226.72 268.05 227.95 269.85 229.2C271.65 230.45 273.42 231.74 275.16 233.07C276.9 234.4 278.63 235.79 280.29 237.24Z" fill="#ABA7A7"/>
<path d="M280.29 252.76C285.261 252.76 289.29 248.731 289.29 243.76C289.29 238.789 285.261 234.76 280.29 234.76C275.319 234.76 271.29 238.789 271.29 243.76C271.29 248.731 275.319 252.76 280.29 252.76Z" fill="#37474F"/>
<path d="M284.75 241.49H275.83V249.59H284.75V241.49Z" fill="white"/>
<path d="M283.86 244H283V240.38C282.958 239.701 282.66 239.064 282.164 238.598C281.669 238.133 281.015 237.873 280.335 237.873C279.655 237.873 279.001 238.133 278.506 238.598C278.01 239.064 277.712 239.701 277.67 240.38V244H276.77V240.38C276.744 239.896 276.818 239.412 276.985 238.957C277.153 238.502 277.411 238.086 277.745 237.734C278.078 237.383 278.48 237.103 278.925 236.911C279.371 236.72 279.85 236.621 280.335 236.621C280.82 236.621 281.299 236.72 281.745 236.911C282.19 237.103 282.592 237.383 282.925 237.734C283.259 238.086 283.517 238.502 283.685 238.957C283.852 239.412 283.926 239.896 283.9 240.38L283.86 244Z" fill="white"/>
<path d="M280.67 245.64L281.05 247.41H279.46L279.83 245.64C279.718 245.567 279.625 245.468 279.561 245.351C279.496 245.235 279.462 245.104 279.46 244.97C279.457 244.829 279.491 244.69 279.559 244.567C279.627 244.444 279.726 244.341 279.846 244.268C279.967 244.196 280.104 244.156 280.245 244.153C280.386 244.151 280.524 244.185 280.647 244.253C280.77 244.321 280.873 244.421 280.946 244.541C281.018 244.662 281.057 244.799 281.06 244.94C281.062 245.081 281.027 245.219 280.959 245.342C280.89 245.465 280.791 245.568 280.67 245.64Z" fill="#37474F"/>
<path d="M321.16 152.73H229.34V166.65H321.16V152.73Z" fill="white"/>
<path d="M321.65 167.15H228.84V152.23H321.65V167.15ZM229.84 166.15H320.65V153.23H229.84V166.15Z" fill="#EBEBEB"/>
<path d="M226.89 168.69C231.861 168.69 235.89 164.661 235.89 159.69C235.89 154.719 231.861 150.69 226.89 150.69C221.919 150.69 217.89 154.719 217.89 159.69C217.89 164.661 221.919 168.69 226.89 168.69Z" fill="#37474F"/>
<path d="M231.35 157.41H222.43V165.51H231.35V157.41Z" fill="white"/>
<path d="M230.46 159.91H229.55V156.3C229.55 155.595 229.27 154.918 228.771 154.419C228.272 153.92 227.596 153.64 226.89 153.64C226.185 153.64 225.508 153.92 225.009 154.419C224.51 154.918 224.23 155.595 224.23 156.3V159.91H223.32V156.3C223.32 155.353 223.696 154.445 224.366 153.776C225.035 153.106 225.943 152.73 226.89 152.73C227.837 152.73 228.745 153.106 229.414 153.776C230.084 154.445 230.46 155.353 230.46 156.3V159.91Z" fill="white"/>
<path d="M227.27 161.56L227.64 163.34H226.05L226.43 161.56C226.313 161.491 226.217 161.393 226.15 161.276C226.084 161.158 226.049 161.025 226.05 160.89C226.072 160.694 226.165 160.514 226.312 160.383C226.459 160.252 226.648 160.179 226.845 160.179C227.042 160.179 227.232 160.252 227.378 160.383C227.525 160.514 227.618 160.694 227.64 160.89C227.64 161.024 227.606 161.155 227.542 161.273C227.477 161.39 227.383 161.489 227.27 161.56Z" fill="#37474F"/>
<path d="M245.26 156.73H244.26V163.1H245.26V156.73Z" fill="#37474F"/>
<path d="M247.94 159.41H241.57V160.41H247.94V159.41Z" fill="#37474F"/>
<path d="M246.655 157.304L242.151 161.809L242.858 162.516L247.362 158.012L246.655 157.304Z" fill="#37474F"/>
<path d="M242.865 157.304L242.158 158.012L246.662 162.516L247.369 161.809L242.865 157.304Z" fill="#37474F"/>
<path d="M256.07 156.73H255.07V163.1H256.07V156.73Z" fill="#37474F"/>
<path d="M258.76 159.41H252.39V160.41H258.76V159.41Z" fill="#37474F"/>
<path d="M257.476 157.304L252.972 161.808L253.679 162.515L258.183 158.011L257.476 157.304Z" fill="#37474F"/>
<path d="M253.679 157.311L252.972 158.018L257.476 162.522L258.183 161.815L253.679 157.311Z" fill="#37474F"/>
<path d="M266.89 156.73H265.89V163.1H266.89V156.73Z" fill="#37474F"/>
<path d="M269.57 159.41H263.2V160.41H269.57V159.41Z" fill="#37474F"/>
<path d="M268.28 157.31L263.776 161.814L264.483 162.521L268.987 158.017L268.28 157.31Z" fill="#37474F"/>
<path d="M264.49 157.31L263.783 158.017L268.287 162.521L268.994 161.814L264.49 157.31Z" fill="#37474F"/>
<path d="M277.71 156.73H276.71V163.1H277.71V156.73Z" fill="#37474F"/>
<path d="M280.39 159.41H274.02V160.41H280.39V159.41Z" fill="#37474F"/>
<path d="M279.101 157.309L274.597 161.813L275.304 162.52L279.808 158.016L279.101 157.309Z" fill="#37474F"/>
<path d="M275.311 157.309L274.604 158.016L279.108 162.52L279.815 161.813L275.311 157.309Z" fill="#37474F"/>
<path d="M288.52 156.73H287.52V163.1H288.52V156.73Z" fill="#37474F"/>
<path d="M291.21 159.41H284.84V160.41H291.21V159.41Z" fill="#37474F"/>
<path d="M289.922 157.308L285.417 161.812L286.125 162.519L290.629 158.015L289.922 157.308Z" fill="#37474F"/>
<path d="M286.125 157.315L285.417 158.022L289.922 162.526L290.629 161.819L286.125 157.315Z" fill="#37474F"/>
<path d="M299.34 156.73H298.34V163.1H299.34V156.73Z" fill="#37474F"/>
<path d="M302.02 159.41H295.65V160.41H302.02V159.41Z" fill="#37474F"/>
<path d="M300.736 157.304L296.231 161.808L296.938 162.515L301.443 158.011L300.736 157.304Z" fill="#37474F"/>
<path d="M296.946 157.304L296.238 158.011L300.743 162.516L301.45 161.808L296.946 157.304Z" fill="#37474F"/>
<path d="M243.55 373.91C243.55 373.91 221.38 368.91 209.23 357.69C197.08 346.47 190.3 326.44 190.3 326.44C198.725 328.066 207.03 330.257 215.16 333C217.16 335.12 220.92 339.49 222.68 343.63C222.887 341.102 222.907 338.561 222.74 336.03C225.576 337.261 228.23 338.872 230.63 340.82C240.7 349.61 243.55 373.91 243.55 373.91Z" fill="#82B378"/>
<path d="M204.14 336.19C201.14 334.09 198.04 332.08 195.03 329.97C195.001 329.942 194.983 329.905 194.978 329.864C194.973 329.824 194.981 329.784 195.002 329.749C195.023 329.715 195.055 329.688 195.092 329.674C195.13 329.659 195.172 329.658 195.21 329.67C200.92 333.08 206.56 336.73 212 340.55C213.9 341.88 215.77 343.27 217.61 344.68L217.23 344.02C216.56 342.91 215.86 341.82 215.16 340.73C213.77 338.505 212.194 336.401 210.45 334.44C210.39 334.37 210.45 334.27 210.56 334.34C212.29 336.34 214.01 338.34 215.56 340.41C216.31 341.41 217 342.41 217.66 343.52C218.01 344.07 218.34 344.63 218.66 345.19L218.99 345.76C221.86 348.01 224.65 350.36 227.31 352.84C228.96 354.38 230.54 355.96 232.07 357.6C231.22 354.92 230.47 352.21 229.47 349.6C229.47 349.51 229.59 349.48 229.62 349.6C230.62 352.37 231.62 355.15 232.39 358C234.09 359.827 235.707 361.73 237.24 363.71C237.24 363.59 237.24 363.47 237.16 363.35C236.91 362.35 236.65 361.26 236.37 360.23C235.83 358.23 235.24 356.23 234.56 354.23C233.277 350.143 231.242 346.331 228.56 342.99C228.5 342.91 228.56 342.81 228.67 342.88C233 348.01 235.54 354.16 237.16 360.61C237.39 361.56 237.62 362.5 237.83 363.45C237.95 363.95 238.08 364.45 238.17 364.98C238.84 365.89 239.49 366.8 240.17 367.74C243.949 373.518 247.094 379.687 249.55 386.14C252.325 393.384 254.698 400.775 256.66 408.28C256.66 408.43 256.48 408.48 256.43 408.34C252.09 395.34 247.67 382.21 240.24 370.62C238.674 368.173 236.985 365.806 235.18 363.53C231.508 363.294 227.884 362.574 224.4 361.39C220.596 360.108 216.968 358.354 213.6 356.17C211.694 354.874 209.855 353.482 208.09 352C208.079 351.995 208.07 351.987 208.063 351.977C208.056 351.968 208.051 351.957 208.048 351.945C208.046 351.933 208.046 351.921 208.049 351.909C208.052 351.898 208.058 351.887 208.065 351.878C208.073 351.869 208.083 351.861 208.093 351.856C208.104 351.851 208.116 351.849 208.128 351.849C208.14 351.849 208.152 351.852 208.163 351.857C208.173 351.863 208.183 351.871 208.19 351.88C211.285 354.369 214.703 356.428 218.35 358C221.933 359.642 225.681 360.899 229.53 361.75C231.17 362.11 232.83 362.37 234.53 362.6C232.479 360.067 230.299 357.64 228 355.33C227.25 354.59 226.48 353.87 225.71 353.15C223.125 351.341 220.38 349.771 217.51 348.46C213.88 346.7 210.31 344.84 206.71 343.01C204.71 342.01 202.71 340.92 200.62 339.93C200.54 339.88 200.62 339.76 200.7 339.8C204.35 341.56 208.05 343.2 211.7 344.89C215.17 346.47 218.7 348.06 221.99 349.89L222.41 350.14C219.403 347.527 216.307 345.023 213.12 342.63C210.15 340.45 207.17 338.28 204.14 336.19Z" fill="#2B691B"/>
<path d="M205.4 347.61C207.2 348.4 209.04 349.1 210.82 349.94C212.6 350.78 214.39 351.8 216.14 352.83C216.21 352.88 216.14 352.98 216.06 352.95C214.3 352.1 212.51 351.31 210.76 350.43C209.01 349.55 207.19 348.56 205.35 347.76C205.27 347.72 205.31 347.57 205.4 347.61Z" fill="#2B691B"/>
<path d="M315.56 262.2C311.464 267.484 309.147 273.928 308.94 280.61C308.86 282.61 309.18 285.36 309.41 288.61C301.14 293 294.94 301 294.94 301C299.64 298.18 306.08 297 309.56 297.5C309.447 299.725 309.162 301.938 308.71 304.12C307.18 304.03 304.21 304.24 299.31 305.98C302.222 305.95 305.109 306.522 307.79 307.66C303.84 320.24 292.09 333.15 259.66 338.66C256.214 323.235 258.244 307.092 265.4 293C275.12 273.87 315.56 262.2 315.56 262.2Z" fill="#82B378"/>
<path d="M248.43 392.42C248.99 387.047 249.69 381.69 250.53 376.35C252.174 365.667 254.357 355.073 257.07 344.61C258.342 339.698 259.904 334.866 261.75 330.14C261.658 329.277 261.622 328.408 261.64 327.54C261.64 326.54 261.64 325.46 261.64 324.43C261.64 322.35 261.74 320.273 261.94 318.2C262.271 314.099 262.94 310.031 263.94 306.04C264.53 303.73 265.22 301.46 265.94 299.17C265.94 299.08 266.11 299.12 266.08 299.17C265.009 303.158 264.211 307.214 263.69 311.31C263.112 315.348 262.748 319.414 262.6 323.49C262.6 324.6 262.54 325.71 262.54 326.83C262.54 327.3 262.54 327.78 262.54 328.26C264.128 324.399 265.952 320.638 268 317C271.296 311.204 275.006 305.653 279.1 300.39C279.111 299.777 279.201 299.169 279.37 298.58C279.52 297.85 279.68 297.13 279.84 296.41C280.17 294.93 280.54 293.41 280.95 291.99C281.75 289.05 282.82 286.21 283.74 283.31C283.74 283.21 283.91 283.26 283.88 283.31C283.02 286.18 282.45 289.16 281.8 292.08C281.47 293.53 281.16 294.98 280.8 296.43C280.64 297.15 280.48 297.87 280.33 298.6V298.76C281.64 297.11 282.98 295.47 284.33 293.87C290.52 286.61 297.33 279.87 304.15 273.26C304.99 272.44 305.85 271.64 306.7 270.83C306.715 270.821 306.733 270.817 306.751 270.819C306.769 270.821 306.786 270.829 306.798 270.842C306.811 270.854 306.819 270.871 306.821 270.889C306.823 270.907 306.819 270.925 306.81 270.94C300.28 277.76 293.81 284.65 287.75 291.86C286.31 293.58 284.88 295.31 283.48 297.07C284.22 296.57 284.96 296.07 285.69 295.61C287.58 294.37 289.49 293.17 291.46 292.07C293.43 290.97 295.41 289.89 297.46 288.88C299.51 287.87 301.77 287.01 303.77 285.88C303.86 285.83 303.93 285.97 303.85 286.01C301.799 286.957 299.821 288.053 297.93 289.29C295.93 290.46 293.93 291.64 292.04 292.87C290.15 294.1 288.22 295.27 286.33 296.5C284.75 297.5 283.2 298.64 281.56 299.59C277.799 304.419 274.33 309.468 271.17 314.71C269.206 318.012 267.413 321.413 265.8 324.9L266.96 324.4L269.96 323.08C271.87 322.23 273.79 321.4 275.7 320.57C279.34 318.99 283.03 317.57 286.6 315.8C288.611 314.856 290.555 313.777 292.42 312.57C292.5 312.51 292.57 312.64 292.5 312.7C285.85 317.28 278.39 320.51 271.03 323.77L267.84 325.18C266.96 325.57 266.08 326 265.18 326.34C263.004 331.206 261.17 336.219 259.69 341.34C256.809 351.67 254.473 362.145 252.69 372.72C250.83 383.31 249.57 393.98 248.6 404.72C248.47 406.06 248.35 407.39 248.2 408.72C248.2 408.831 248.156 408.938 248.077 409.017C247.998 409.096 247.891 409.14 247.78 409.14C247.669 409.14 247.562 409.096 247.483 409.017C247.404 408.938 247.36 408.831 247.36 408.72C247.31 403.27 247.86 397.82 248.43 392.42Z" fill="#2B691B"/>
<path d="M268.16 302.85C268.76 299.55 269.64 296.33 270.53 293.1C270.53 293 270.69 293.05 270.67 293.1C269.85 296.27 269.26 299.5 268.67 302.72C268.08 305.94 267.52 309.29 267.06 312.59C267.06 312.64 266.97 312.65 266.97 312.59C267.187 309.324 267.584 306.072 268.16 302.85Z" fill="#2B691B"/>
<path d="M282.14 311.79C284.396 310.292 286.755 308.955 289.2 307.79C290.38 307.18 291.58 306.6 292.77 306.02C293.96 305.44 295.29 304.92 296.51 304.31C296.527 304.306 296.544 304.307 296.56 304.313C296.576 304.32 296.589 304.331 296.598 304.346C296.607 304.36 296.611 304.377 296.609 304.394C296.608 304.411 296.601 304.427 296.59 304.44C295.4 305.03 294.28 305.75 293.11 306.39C291.94 307.03 290.72 307.71 289.51 308.39C287.14 309.66 284.81 311.07 282.32 312.11C282.278 312.134 282.227 312.14 282.181 312.127C282.134 312.114 282.094 312.082 282.07 312.04C282.046 311.998 282.04 311.947 282.053 311.901C282.066 311.854 282.098 311.814 282.14 311.79Z" fill="#2B691B"/>
<path opacity="0.1" d="M243.15 335.51C243.15 335.51 222.63 330.61 213.22 316.85C204.22 303.71 201.31 281.31 201.08 279.34C201.45 281.14 205.69 300.72 219.65 309.84C230.34 316.83 240.67 322.57 243.15 335.51Z" fill="#263238"/>
<path d="M243.15 335.51C243.15 335.51 222.63 330.61 213.22 316.85C204.22 303.71 201.31 281.31 201.08 279.34C201.076 279.293 201.076 279.247 201.08 279.2C201.08 279.2 210.92 293.2 221.26 296.75C231.6 300.3 246.11 312.65 243.15 335.51Z" fill="#82B378"/>
<path d="M204.7 286.91C206.523 290.677 208.629 294.301 211 297.75C213.393 301.024 216.23 303.949 219.43 306.44C222.22 308.65 225.17 310.66 227.99 312.82L227.92 312.72C227.39 311.94 226.83 311.17 226.24 310.43C225.07 308.93 223.79 307.51 222.49 306.11C219.95 303.34 217.34 300.63 215.06 297.64C213.787 295.989 212.685 294.213 211.77 292.34C211.77 292.25 211.87 292.2 211.91 292.34C215.24 299.27 221.91 303.71 226.63 309.56C227.303 310.394 227.934 311.262 228.52 312.16C228.989 312.808 229.385 313.505 229.7 314.24C232.297 316.32 234.646 318.692 236.7 321.31C236.523 319.959 236.249 318.622 235.88 317.31C235.401 315.486 234.667 313.739 233.7 312.12C233.7 312.04 233.78 311.95 233.83 312.03C234.823 313.656 235.625 315.39 236.22 317.2C236.661 318.629 236.923 320.107 237 321.6C238.013 322.977 238.939 324.416 239.77 325.91C239.68 325.47 239.6 325.03 239.51 324.59C239.11 322.59 238.66 320.51 238.13 318.5C237.162 314.413 235.498 310.522 233.21 307C233.206 306.983 233.207 306.966 233.214 306.95C233.22 306.935 233.231 306.921 233.246 306.912C233.26 306.903 233.277 306.899 233.294 306.901C233.311 306.902 233.327 306.909 233.34 306.92C235.691 310.406 237.529 314.212 238.8 318.22C239.46 320.22 239.98 322.28 240.44 324.35C240.67 325.35 240.87 326.35 241.06 327.35C241.16 327.87 241.28 328.41 241.36 328.95C243.398 333.413 244.983 338.07 246.09 342.85C248.109 351.393 249.572 360.058 250.47 368.79C251.525 377.931 251.996 387.129 251.88 396.33C251.88 397.48 251.8 398.63 251.73 399.79C251.73 400.08 251.27 400.13 251.26 399.79C251.06 395.24 250.94 390.69 250.67 386.14C250.4 381.59 250 377.05 249.52 372.51C248.584 363.601 247.155 354.751 245.24 346C243.58 338.5 241.42 330.95 237.32 324.38C235.282 321.112 232.79 318.149 229.92 315.58C227.05 313 223.92 310.74 220.92 308.35C217.848 306.016 215.059 303.331 212.61 300.35C210.072 297.044 207.859 293.501 206 289.77C205.52 288.84 205 287.92 204.53 286.99C204.52 286.91 204.65 286.83 204.7 286.91Z" fill="#2B691B"/>
<path d="M208.24 289.92C209.579 292.688 211.106 295.361 212.81 297.92C212.81 297.98 212.75 298.04 212.71 297.98C210.951 295.446 209.406 292.77 208.09 289.98C208.05 289.88 208.19 289.83 208.24 289.92Z" fill="#2B691B"/>
<path d="M318.42 326.44C318.42 326.44 318.75 355.59 301.32 364C283.89 372.41 274.54 365.41 262.7 368.23C263.16 367.54 271.61 355.39 285.06 352.04C298.9 348.57 314.23 338.58 318.42 326.44Z" fill="#82B378"/>
<path opacity="0.1" d="M318.42 326.44C318.42 326.44 318.75 355.59 301.32 364C283.89 372.41 274.54 365.41 262.7 368.23C268.959 365.255 275.648 363.284 282.52 362.39C293.53 361 314.52 353.88 318.42 326.44Z" fill="black"/>
<path d="M261.55 368.75C263.623 366.86 265.957 365.277 268.48 364.05C268.86 363.87 269.24 363.73 269.62 363.57C269.804 363.335 270.001 363.112 270.21 362.9C270.727 362.35 271.275 361.829 271.85 361.34C272.939 360.394 274.11 359.547 275.35 358.81C278.24 357.11 281.41 355.92 284.35 354.35C284.359 354.345 284.368 354.343 284.378 354.342C284.387 354.341 284.397 354.342 284.406 354.344C284.416 354.347 284.424 354.352 284.432 354.358C284.439 354.364 284.445 354.371 284.45 354.38C284.455 354.389 284.458 354.398 284.459 354.408C284.46 354.417 284.459 354.427 284.456 354.436C284.453 354.446 284.448 354.454 284.442 354.462C284.436 354.469 284.429 354.475 284.42 354.48C282.96 355.24 281.55 356.07 280.13 356.9C278.71 357.73 277.34 358.48 275.99 359.34C274.777 360.116 273.624 360.982 272.54 361.93C272.24 362.2 271.94 362.49 271.65 362.79C273.576 362.136 275.544 361.611 277.54 361.22C280.73 360.58 283.95 360.12 287.14 359.44C288.702 359.109 290.244 358.692 291.76 358.19C293.21 357.03 294.65 355.87 296.02 354.61C297.683 353.094 299.193 351.42 300.53 349.61C300.59 349.53 300.72 349.61 300.66 349.69C298.545 352.552 296.15 355.195 293.51 357.58C294.26 357.29 295.01 356.99 295.74 356.65C301.726 353.964 306.865 349.694 310.6 344.3C310.66 344.22 310.79 344.3 310.73 344.37C307.566 349.001 303.481 352.929 298.73 355.91C296.345 357.398 293.794 358.603 291.13 359.5C288.043 360.463 284.892 361.208 281.7 361.73C278.572 362.243 275.484 362.978 272.46 363.93C269.68 364.872 267.068 366.249 264.72 368.01C260.269 371.466 256.687 375.914 254.26 381C250.96 387.61 249.39 395 248.51 402.31C248.51 402.62 247.99 402.62 248.01 402.31C248.83 390 252.11 377.26 261.55 368.75Z" fill="#2B691B"/>
<path d="M281.78 359.24C282.692 357.882 283.92 356.767 285.36 355.99C287.015 355.133 288.467 353.933 289.62 352.47C289.68 352.39 289.81 352.47 289.75 352.55C288.705 353.886 287.432 355.027 285.99 355.92C284.405 356.757 283.01 357.911 281.89 359.31C281.84 359.38 281.73 359.31 281.78 359.24Z" fill="#2B691B"/>
<path d="M272.53 390.26L271.74 406.29L269.31 455.26H232.74L230.31 406.29L229.52 390.26H272.53Z" fill="#DA7373"/>
<path d="M272.53 390.26L271.74 406.29H230.31L229.52 390.26H272.53Z" fill="#8F4545"/>
<path d="M275.09 383.57H226.95V398.86H275.09V383.57Z" fill="#7C3E3E"/>
</svg>
