<svg width="278" height="52" viewBox="0 0 278 52" fill="none" xmlns="http://www.w3.org/2000/svg">
<path d="M0.172852 22.2732L0.172976 51.1638H12.418C16.0746 51.1638 18.9659 49.8671 21.0916 47.2735C23.2173 44.6799 24.2804 41.3209 24.2804 37.1968C24.2804 36.0914 24.1422 34.8265 23.8659 33.4021C23.5895 31.9777 23.1219 30.596 22.4629 29.2567C21.8039 27.9174 20.911 26.7056 19.7843 25.6214C18.6575 24.5372 17.2013 23.7825 15.4156 23.3574C17.2013 22.2519 18.4981 20.7744 19.3059 18.9249C20.1138 17.0754 20.5177 15.1302 20.5177 13.0894C20.5177 9.17764 19.4335 6.16963 17.2651 4.06501C15.0967 1.96039 12.1416 0.908081 8.40019 0.908081H0.17304V20.7425H2.40521L2.34144 3.52291H8.59152C12.1206 3.52291 14.6079 4.44767 16.0533 6.29718C17.4988 8.1467 18.2217 10.4108 18.2217 13.0894C18.2217 15.9805 17.5627 18.2234 16.2447 19.8178C14.9266 21.4122 13.1196 22.2094 10.8237 22.2094H2.46899L3.87207 25.0155H12.4181C14.1613 25.0155 15.6493 25.4088 16.8824 26.1954C18.1156 26.982 19.1252 27.9705 19.9118 29.161C20.6983 30.3515 21.2829 31.6908 21.6656 33.1789C22.0483 34.667 22.2396 36.1126 22.2396 37.5157C22.2396 38.8762 22.0483 40.2155 21.6656 41.5336C21.2829 42.8517 20.709 44.0315 19.9436 45.0732C19.1783 46.1149 18.1791 46.9546 16.9462 47.5924C15.7132 48.2301 14.2463 48.549 12.5456 48.549H2.34137L2.40515 22.2732H0.172852Z" fill="#111111"/>
<path d="M46.6021 35.9213C49.3233 34.3907 51.4067 32.2328 52.8522 29.448C54.2977 26.6632 55.0206 23.5063 55.0206 19.9772V19.0843C55.0206 13.8547 53.4581 9.51789 50.3331 6.07397C47.208 2.63004 42.7545 0.908081 36.9719 0.908081H32.5714V21.1252C33.2941 21.1677 34.0169 21.189 34.7397 21.189V2.94892H36.8443C42.074 2.94892 46.0281 4.46891 48.7067 7.50893C51.3853 10.549 52.7246 14.4497 52.7246 19.2119V19.9134C52.7246 24.6329 51.3853 28.5022 48.7067 31.5207C46.0281 34.5393 42.074 36.0488 36.8443 36.0488H34.7397H32.5713V38.0897C33.8468 38.1322 34.6971 38.1535 35.1223 38.1535H36.9719C39.9056 38.1535 42.478 37.707 44.6888 36.8142L52.5971 51.1638H55.1481L46.6021 35.9213Z" fill="#111111"/>
<path d="M80.4677 6.96683C80.4677 7.22194 81.2224 9.65609 82.7318 14.2692C84.2412 18.8824 85.8887 23.9313 87.6745 29.4161C89.4602 34.9009 91.8623 42.1503 94.8812 51.1638H97.6236L80.7228 0.908081H80.2126L63.4395 51.1638H66.0543L80.4677 6.96683Z" fill="#1D38C8"/>
<path d="M79.3194 36.8779H77.0234L80.85 51.1638H83.146L79.3194 36.8779Z" fill="#75BBFB"/>
<path d="M105.914 0.908081V51.1638H107.572V0.908081H105.914Z" fill="#111111"/>
<path d="M138.121 1.99231L138.121 38.855C138.121 40.003 138.142 41.2785 138.185 42.6816C138.227 44.0847 138.248 44.8075 138.248 44.85C138.163 44.7225 137.855 44.0316 137.324 42.7773C136.792 41.523 136.271 40.4069 135.761 39.429L134.868 37.7071H132.572L139.588 51.1639H140.162V1.99231H138.121Z" fill="#111111"/>
<path d="M120.2 12.7067L121.093 14.4287H123.389L116.31 0.908081H115.863V50.2072H117.84V13.2169C117.84 12.154 117.819 10.9103 117.777 9.486C117.734 8.06168 117.713 7.32825 117.713 7.28571C117.755 7.41327 118.053 8.11481 118.606 9.39033C119.158 10.6659 119.69 11.7713 120.2 12.7067Z" fill="black"/>
<path d="M179.32 51.1638L179.511 49.1229C177.088 48.8678 175.037 48.0494 173.357 46.6675C171.678 45.2857 170.328 43.5744 169.307 41.5336C168.287 39.4927 167.553 37.2181 167.107 34.7095C166.661 32.2008 166.437 29.6925 166.437 27.1839V24.8242C166.437 22.103 166.714 19.4351 167.266 16.8202C167.819 14.2054 168.67 11.8776 169.817 9.83671C170.965 7.79587 172.443 6.14821 174.25 4.89405C176.057 3.63988 178.215 3.01264 180.723 3.01264C182.892 3.01264 184.55 3.28899 185.698 3.84174C186.846 4.39449 187.887 5.03225 188.823 5.75503L190.098 4.16062C188.865 3.18274 187.558 2.40677 186.176 1.83278C184.794 1.2588 182.977 0.971802 180.723 0.971802C175.834 0.971802 171.89 3.15085 168.893 7.50888C165.895 11.8669 164.396 17.6385 164.396 24.8242V27.1839C164.396 34.0717 165.725 39.663 168.383 43.9571C171.04 48.2511 174.686 50.6536 179.32 51.1638Z" fill="#111111"/>
<path d="M179.32 51.1638L179.511 49.1229C177.088 48.8678 175.037 48.0494 173.357 46.6675C171.678 45.2857 170.328 43.5744 169.307 41.5336C168.287 39.4927 167.553 37.2181 167.107 34.7095C166.661 32.2008 166.437 29.6925 166.437 27.1839V24.8242C166.437 22.103 166.714 19.4351 167.266 16.8202C167.819 14.2054 168.67 11.8776 169.817 9.83671C170.965 7.79587 172.443 6.14821 174.25 4.89405C176.057 3.63988 178.215 3.01264 180.723 3.01264C182.892 3.01264 184.55 3.28899 185.698 3.84174C186.846 4.39449 187.887 5.03225 188.823 5.75503L190.098 4.16062C188.865 3.18274 187.558 2.40677 186.176 1.83278C184.794 1.2588 182.977 0.971802 180.723 0.971802C175.834 0.971802 171.89 3.15085 168.893 7.50888C165.895 11.8669 164.396 17.6385 164.396 24.8242V27.1839C164.396 34.0717 165.725 39.663 168.383 43.9571C171.04 48.2511 174.686 50.6536 179.32 51.1638Z" fill="#111111"/>
<path d="M182.829 51.1638C186.442 50.9087 189.568 49.697 192.204 47.5286L192.586 47.2097V30.1814H180.022V32.286H190.546V46.253C188.335 47.9112 185.72 48.8679 182.701 49.123L182.829 51.1638Z" fill="#111111"/>
<path d="M217.905 6.96683C217.905 7.22194 218.66 9.65609 220.169 14.2692C221.679 18.8824 223.326 23.9313 225.112 29.4161C226.898 34.9009 229.3 42.1503 232.319 51.1638H235.061L218.16 0.908081H217.65L200.877 51.1638H203.492L217.905 6.96683Z" fill="#1D38C8"/>
<path d="M216.757 36.8779H214.461L218.288 51.1638H220.583L216.757 36.8779Z" fill="#75BBFB"/>
<path d="M243.352 0.908081V51.1638H245.01V0.908081H243.352Z" fill="#111111"/>
<path d="M275.559 1.99231L275.559 38.855C275.559 40.003 275.58 41.2785 275.623 42.6816C275.666 44.0847 275.687 44.8075 275.687 44.85C275.602 44.7225 275.294 44.0316 274.762 42.7773C274.231 41.523 273.71 40.4069 273.2 39.429L272.307 37.7071H270.011L277.026 51.1639H277.6V1.99231H275.559Z" fill="black"/>
<path d="M257.638 12.7067L258.53 14.4287H260.826L253.747 0.908081H253.301V50.2072H255.278V13.2169C255.278 12.154 255.257 10.9103 255.214 9.486C255.172 8.06168 255.15 7.32825 255.15 7.28571C255.193 7.41327 255.49 8.11481 256.043 9.39033C256.596 10.6659 257.127 11.7713 257.638 12.7067Z" fill="#111111"/>
</svg>
