<svg width="413" height="194" viewBox="0 0 413 194" fill="none" xmlns="http://www.w3.org/2000/svg">
<g clip-path="url(#clip0_5_2)">
<path d="M348.553 192.907C348.553 192.907 393.536 201.166 407.854 169.922C426.432 129.387 388.265 98.6528 358.993 104.379C295.208 116.857 310.568 -20.7976 208.203 7.29631C179.419 15.1953 101.648 -31.7317 79.9587 43.5129C74.8003 61.4054 56.5274 63.3755 30.0001 74.7295C-21.9162 96.9482 1.8213 193.283 38.918 193.661C76.0147 194.039 348.553 192.907 348.553 192.907Z" fill="#9CBED9"/>
<path d="M253.376 178.898C244.102 171.949 235.199 181.025 222.214 175.091C209.229 169.157 235.939 139.858 225.181 130.957C214.424 122.056 196.617 140.97 196.617 140.97C196.617 140.97 227.779 102.029 215.908 97.1714C204.036 92.314 128.954 79.8965 128.954 79.8965L115.388 158.129C112.614 154.541 106.735 149.913 101.643 155.752C94.8699 163.519 117.579 180.247 113.993 183.633C110.408 187.018 101.842 172.679 94.5951 178.287C87.3482 183.896 96.643 193.516 96.643 193.516L116.981 193.799C116.981 193.799 116.983 193.546 116.99 193.088C133.881 193.088 260.433 193.088 260.433 193.088C260.433 193.088 262.651 185.847 253.376 178.898Z" fill="#82B378"/>
<path d="M156.366 75.6286L147.026 186.661C147.026 186.661 146.047 193.391 151.055 193.403C159.288 193.423 192.037 193.403 192.037 193.403C192.037 193.403 185.839 192.002 185.915 188.849C186.004 185.134 196.832 74.5781 196.832 74.5781L156.366 75.6286Z" fill="#68696A"/>
<path d="M194.693 191.388C193.073 191.393 161.794 191.492 153.777 191.388C150.283 191.345 149.669 188.283 149.64 186.299C149.626 185.35 149.746 184.647 149.746 184.647L149.99 181.761L150.608 174.406L151.155 167.908L151.858 159.558L152.45 152.509L159.087 73.6136L199.553 72.5645C199.553 72.5645 194.993 118.832 191.766 152.511C191.406 156.263 191.063 159.862 190.746 163.22C190.643 164.292 190.545 165.34 190.449 166.361C190.15 169.548 189.876 172.473 189.639 175.056C189.514 176.418 189.398 177.683 189.294 178.842C188.882 183.385 188.641 186.285 188.638 186.836C188.637 187.157 188.664 187.456 188.717 187.734C189.38 191.273 194.086 191.388 194.693 191.388Z" fill="#DBDBDB"/>
<path d="M252.37 15.21H58.0912L80.8433 106.576L83.959 119.087L94.5558 161.644H291.428L252.37 15.21Z" fill="#DBDBDB"/>
<path d="M58.0912 15.21L54.9388 16.2605L90.3631 164.823L94.5558 161.644L58.0912 15.21Z" fill="#C7C7C7"/>
<path d="M90.3632 164.823H286.023L291.426 161.644H94.5558L90.3632 164.823Z" fill="#455A64"/>
<path d="M159.074 193.446H201.437V191.434H159.074V193.446Z" fill="#455A64"/>
<path opacity="0.4" d="M190.668 164.821L190.449 166.36L150.608 174.407L151.155 167.909L151.416 164.821H190.668Z" fill="#798991"/>
<path opacity="0.4" d="M194.693 191.389C193.073 191.394 161.794 191.492 153.777 191.389C150.283 191.346 149.669 188.283 149.64 186.3L189.293 178.842C188.88 183.384 188.64 186.284 188.637 186.835C188.636 187.157 188.663 187.455 188.715 187.734C189.38 191.274 194.086 191.389 194.693 191.389Z" fill="#798991"/>
<path opacity="0.3" d="M178.48 132.876L94.5558 161.644L87.3887 132.859L178.48 132.876Z" fill="#798991"/>
<path d="M252.37 15.21H58.0912L87.3718 132.859L283.892 132.897L252.37 15.21Z" fill="#D5DCE2"/>
<path opacity="0.4" d="M198.21 147.774C197.649 144.888 194.854 142.548 191.967 142.548C189.081 142.548 187.195 144.887 187.756 147.774C188.318 150.66 191.113 153 193.999 153C196.886 152.999 198.772 150.66 198.21 147.774Z" fill="#37474F"/>
<path d="M274.729 127.796H92.826L72.2251 45.7539L70.6457 39.4627L69.2979 34.0964L66.139 21.5127H245.42L248.89 34.0964L250.37 39.4627L252.104 45.7539L274.729 127.796Z" fill="#DCECFD"/>
<path d="M245.42 21.5127H66.139L69.2979 34.0964H248.89L245.42 21.5127Z" fill="#A6A6A6"/>
<path d="M130.256 54.0605H148.392L150.745 63.1487H132.609L130.256 54.0605Z" fill="#DA7373"/>
<path d="M96.5566 63.1484H114.691L116.936 71.8219H98.8493L96.5566 63.1484Z" fill="#DA7373"/>
<path d="M184.845 54.0605H202.98L205.333 63.1487H187.197L184.845 54.0605Z" fill="#DA7373"/>
<path d="M189.444 72.4434H207.58L209.825 81.1168H191.737L189.444 72.4434Z" fill="#DA7373"/>
<path d="M175.938 90.4121H212.306L214.561 99.5003H178.291L175.938 90.4121Z" fill="#DA7373"/>
<path d="M254.669 53.7959H74.0414V54.3244H254.669V53.7959Z" fill="#37474F"/>
<path d="M257.124 62.8838H76.6349V63.4123H257.124V62.8838Z" fill="#37474F"/>
<path d="M259.578 71.9717H78.4264V72.5002H259.578V71.9717Z" fill="#37474F"/>
<path d="M262.032 81.0605H81.0946V81.5891H262.032V81.0605Z" fill="#37474F"/>
<path d="M264.486 90.1484H83.3925V90.677H264.486V90.1484Z" fill="#37474F"/>
<path d="M266.941 99.2373H85.5555V99.7658H266.941V99.2373Z" fill="#37474F"/>
<path d="M269.395 108.323H87.7853V108.852H269.395V108.323Z" fill="#37474F"/>
<path d="M271.85 117.411H90.2285V117.94H271.85V117.411Z" fill="#37474F"/>
<path d="M74.7362 25.627C73.8673 25.627 73.3386 26.3308 73.5546 27.1994C73.7718 28.0681 74.6511 28.7719 75.52 28.7719C76.3889 28.7719 76.9176 28.0681 76.7017 27.1994C76.4858 26.3308 75.6064 25.627 74.7362 25.627Z" fill="#E71C1C"/>
<path d="M79.9653 25.627C79.0964 25.627 78.5678 26.3308 78.7837 27.1994C79.0009 28.0681 79.8803 28.7719 80.7492 28.7719C81.6181 28.7719 82.1467 28.0681 81.9308 27.1994C81.7136 26.3308 80.8342 25.627 79.9653 25.627Z" fill="#FBC006"/>
<path d="M87.5602 27.1994C87.343 26.3308 86.4636 25.627 85.5947 25.627C84.7258 25.627 84.1972 26.3308 84.4131 27.1994C84.6303 28.0681 85.5097 28.7719 86.3786 28.7719C87.2474 28.7719 87.7761 28.0681 87.5602 27.1994Z" fill="#16562C"/>
<path d="M257.902 127.863L258.413 127.729L237.19 45.7541H252.104L250.37 39.4629H235.561L235.544 39.3975L235.289 39.4629H217.425L217.408 39.3975L217.153 39.4629H199.291L199.274 39.3975L199.018 39.4629H181.156L181.139 39.3975L180.884 39.4629H163.02L163.003 39.3975L162.748 39.4629H144.886L144.868 39.3975L144.613 39.4629H126.751L126.734 39.3975L126.477 39.4629H108.615L108.598 39.3975L108.343 39.4629H90.4796L90.4626 39.3975L90.2075 39.4629H70.6456L72.2251 45.7541H91.5631L112.821 127.863L113.331 127.729L92.1088 45.7541H109.699L130.955 127.863L131.467 127.729L110.244 45.7541H127.834L149.091 127.863L149.602 127.729L128.38 45.7541H145.968L167.226 127.863L167.736 127.729L146.514 45.7541H164.104L185.362 127.863L185.872 127.729L164.649 45.7541H182.239L203.496 127.863L204.007 127.729L182.785 45.7541H200.375L221.631 127.863L222.143 127.729L200.919 45.7541H218.509L239.767 127.863L240.277 127.729L219.055 45.7541H236.644L257.902 127.863Z" fill="#37474F"/>
<path d="M382.793 92.9033H344.837V130.851H382.793V92.9033Z" fill="#CB9B02"/>
<path d="M394.499 92.9033H356.541V130.851H394.499V92.9033Z" fill="#FBC006"/>
<path d="M375.922 118.209C374.391 118.216 373.154 119.461 373.161 120.992C373.168 122.522 374.413 123.757 375.944 123.752C377.475 123.745 378.711 122.5 378.705 120.969C378.7 119.439 377.453 118.202 375.922 118.209Z" fill="#EBF2F9"/>
<path d="M375.946 105.12C377.477 105.114 378.713 103.868 378.707 102.338C378.7 100.807 377.454 99.5719 375.923 99.5772C374.392 99.5837 373.156 100.829 373.162 102.36C373.169 103.89 374.415 105.127 375.946 105.12Z" fill="#EBF2F9"/>
<path d="M387.767 109.057L364.01 109.155L364.033 114.698L387.79 114.6L387.767 109.057Z" fill="#EBF2F9"/>
<path d="M51.9827 119.194H19.5354V151.633H51.9827V119.194Z" fill="#0A2982"/>
<path d="M61.9881 119.194H29.5408V151.633H61.9881V119.194Z" fill="#347EE7"/>
<path d="M56.2408 133.044H35.9318V137.782H56.2408V133.044Z" fill="#EBF2F9"/>
<path d="M326.128 193.684H388.98V130.849H326.128V193.684Z" fill="#660606"/>
<path d="M369.601 130.849H306.749V193.683H369.601V130.849Z" fill="#9A2323"/>
<path d="M357.219 157.677H342.14V142.603H332.959V157.677H317.882V166.854H332.959V181.929H342.14V166.854H357.219V157.677Z" fill="#EBF2F9"/>
<path d="M369.601 130.849L388.981 140.283V130.849H369.601Z" fill="#660606"/>
<path d="M405.598 193.801H7.15763C6.96265 193.801 6.8017 193.641 6.8017 193.445C6.8017 193.25 6.96134 193.089 7.15763 193.089H405.598C405.793 193.089 405.954 193.248 405.954 193.445C405.953 193.641 405.793 193.801 405.598 193.801Z" fill="#283250"/>
<path d="M64.617 151.633H23.1484V193.09H64.617V151.633Z" fill="#660606"/>
<path d="M77.4031 151.633H35.9344V193.09H77.4031V151.633Z" fill="#9A2323"/>
<path d="M68.5113 179.208L61.3626 172.292L68.2823 165.144L63.9287 160.933L57.0103 168.079L49.8616 161.163L45.6493 165.514L52.798 172.432L45.8796 179.579L50.2319 183.79L57.1503 176.643L64.2991 183.559L68.5113 179.208Z" fill="#EBF2F9"/>
<path d="M35.9344 151.633L23.1484 159.383V151.633H35.9344Z" fill="#660606"/>
<path d="M246.385 84.7598C246.385 84.7598 256.052 94.6014 256.516 98.3665C256.981 102.132 251.914 108.021 251.914 108.021L246.385 84.7598Z" fill="#E58638"/>
<path d="M242.243 188.316C242.243 188.316 242.037 191.632 241.442 193.059H229.354C229.559 192.585 230.034 191.975 231.135 191.783C233.029 191.452 236.197 190.123 237.343 187.621C238.55 184.99 242.243 188.316 242.243 188.316Z" fill="#163560"/>
<path d="M256.666 188.316C256.666 188.316 256.46 191.632 255.866 193.059H243.779C243.982 192.585 244.457 191.975 245.56 191.783C247.452 191.452 250.621 190.123 251.768 187.621C252.974 184.99 256.666 188.316 256.666 188.316Z" fill="#163560"/>
<path d="M235.07 131.274C235.07 131.274 236.764 142.103 243.083 161.328C249.402 180.552 250.262 188.876 250.262 188.876L257.04 188.686C257.04 188.686 257.098 167.676 254.186 158.01C251.274 148.344 253.558 123.159 253.558 123.159L235.07 131.274Z" fill="#163560"/>
<path d="M231.771 123.751C231.771 123.751 231.532 140.07 234.356 160.108C237.18 180.145 236.223 188.65 236.223 188.65L242.987 188.875C242.987 188.875 247.029 168.831 245.871 158.802C244.712 148.773 251.406 124.388 251.406 124.388L231.771 123.751Z" fill="#1C468A"/>
<path d="M244.866 85.5619L241.262 87.9245L236.054 86.9538C236.126 86.5339 236.47 84.7914 236.783 83.2137C236.802 83.1208 236.821 83.0279 236.838 82.9363C237.106 81.5941 237.338 80.4402 237.338 80.4402L242.203 78.2948L244.017 77.4941C244.012 77.5229 243.877 78.9842 243.857 79.1974C243.517 82.9873 244.866 85.5619 244.866 85.5619Z" fill="#F4C2C2"/>
<path d="M254.005 125.766C252.96 130.537 235.55 131.102 231.062 126.772C230.552 126.279 230.527 123.981 230.719 120.885C231.096 114.836 232.305 105.736 232.352 101.086C232.376 98.8415 232.683 96.5443 233.096 94.459C233.97 90.015 235.303 86.5273 235.303 86.5273C235.303 86.5273 243.806 83.7787 245.397 84.2471C253.063 86.4972 255.052 120.995 254.005 125.766Z" fill="#EE9849"/>
<path d="M230.721 120.885C231.097 114.836 232.307 105.736 232.354 101.087C232.377 98.8418 232.685 96.5446 233.097 94.4593L238.212 93.5566C238.212 93.5566 243.212 113.978 230.721 120.885Z" fill="#E58638"/>
<path d="M233.489 112.452C233.489 112.452 233.837 113.286 233.106 113.844C232.374 114.404 231.899 115.309 232.067 115.973C232.234 116.635 233.841 117.715 234.398 117.541C234.954 117.367 236.087 116.495 235.965 116.145C235.844 115.796 236.728 113.079 235.37 112.034C234.013 110.988 233.489 112.452 233.489 112.452Z" fill="#F4C2C2"/>
<path d="M239.209 85.3037C239.209 85.3037 234.221 86.2365 230.246 92.0933C226.27 97.9489 223.656 102.304 224.388 104.414C225.121 106.524 231.795 113.845 232.945 113.845C234.095 113.845 235.952 113.009 236.057 111.127C236.057 111.127 231.358 104.086 232.283 103.031C232.678 102.58 238.384 97.9502 239.199 100.042C240.547 103.501 239.209 85.3037 239.209 85.3037Z" fill="#EE9849"/>
<path d="M243.492 79.2643C242.424 81.0735 238.444 82.6381 236.783 83.2124C236.801 83.1196 236.821 83.0267 236.838 82.9351C237.106 81.5929 237.338 80.439 237.338 80.439L242.203 78.2936C243.279 78.2792 243.933 78.5199 243.492 79.2643Z" fill="#E7B2B2"/>
<path d="M235.505 80.1449C235.505 80.1449 243.34 82.5887 244.788 77.6868C246.235 72.7849 248.221 69.7983 243.279 68.0309C238.336 66.2635 236.808 67.8451 235.927 69.364C235.047 70.8828 233.504 79.3823 235.505 80.1449Z" fill="#F4C2C2"/>
<path d="M236.235 68.8916C236.235 68.8916 236.735 74.5967 237.915 74.3481C239.095 74.0996 240.166 73.9164 239.993 75.6367C239.82 77.3557 238.183 79.3416 241.821 79.6464C245.458 79.9512 250.685 70.5739 249.687 68.7987C246.803 63.6757 232.068 62.6422 236.235 68.8916Z" fill="#263238"/>
<path d="M237.388 84.3704C237.488 84.3272 243.66 82.5075 244.331 82.7286C245.001 82.9497 245.399 84.2461 245.399 84.2461L235.304 86.5277C235.304 86.5277 236.099 84.9133 237.388 84.3704Z" fill="#E58638"/>
<path d="M42.3491 98.8111C42.3491 98.8111 39.0777 94.9951 42.1476 92.5723C42.1476 92.5723 44.3892 91.2156 46.2186 91.3255C46.2186 91.3255 43.6276 95.6688 44.4664 96.1005C45.3052 96.5322 47.0037 91.0534 47.0037 91.0534C47.0037 91.0534 52.1058 90.5589 53.7481 91.3478C53.7481 91.3478 49.3866 94.9166 50.3052 95.1285C51.2239 95.3404 55.936 91.8383 55.936 91.8383C55.936 91.8383 60.6849 92.6468 60.4323 95.5419C60.1797 98.4383 58.5427 99.3318 57.823 99.2559C57.1033 99.1787 52.8962 97.5736 52.8046 98.1622C52.713 98.7509 55.2451 100.677 57.0182 100.767C57.0182 100.767 53.6696 104.459 51.445 103.392C49.2204 102.328 49.0294 100.639 47.6423 100.006C46.2552 99.3723 45.071 99.3736 45.6441 100.02C46.2173 100.666 48.7271 101.294 49.5201 102.696C50.3131 104.099 51.025 105.045 48.7232 104.699C46.4214 104.353 42.6789 102.669 42.514 100.741C42.3491 98.8124 42.3491 98.8111 42.3491 98.8111Z" fill="#82B378"/>
<path d="M58.0964 95.6201C58.0964 95.6201 45.1979 95.123 42.3491 98.8108C42.3491 98.8108 41.7197 100.697 39.7804 102.415L39.4781 103.238C39.4781 103.238 41.7131 100.882 42.5127 100.739C42.5127 100.739 41.263 96.1708 58.0964 95.6201Z" fill="#2B691B"/>
<path d="M39.7804 102.416C39.7804 102.416 37.0115 104.463 36.8191 108.119L37.3216 108.164C37.3216 108.164 38.2062 104.382 39.804 102.904C41.403 101.425 39.7804 102.416 39.7804 102.416Z" fill="#2B691B"/>
<path d="M30.9108 94.0134C30.9108 94.0134 36.115 91.1 33.6863 87.1466C33.6863 87.1466 31.7431 84.7185 29.6625 84.0945C29.6625 84.0945 30.7721 89.9906 29.6625 90.1293C28.5528 90.268 28.8996 83.4705 28.8996 83.4705C28.8996 83.4705 23.418 80.8344 21.2667 81.0424C21.2667 81.0424 24.6663 86.7999 23.5567 86.6612C22.447 86.5225 18.6299 80.6958 18.6299 80.6958C18.6299 80.6958 13.0096 79.6557 12.108 82.9851C11.2064 86.3145 12.6628 87.9799 13.4964 88.1879C14.3286 88.3959 19.6715 88.3266 19.5328 89.0199C19.3941 89.7133 15.7864 90.824 13.7738 90.1986C13.7738 90.1986 15.9944 95.6787 18.9086 95.4014C21.8228 95.1241 22.7244 93.32 24.5289 93.1813C26.3335 93.0427 27.6512 93.528 26.7496 94.0134C25.848 94.4987 22.7951 94.173 21.3373 95.4105C19.8796 96.6494 18.7006 97.4121 21.4067 97.9668C24.1128 98.5215 28.9702 98.1748 29.9412 96.0934C30.9108 94.0134 30.9108 94.0134 30.9108 94.0134Z" fill="#82B378"/>
<path d="M14.6754 84.0254C14.6754 84.0254 29.2463 88.7428 30.9121 94.0136C30.9121 94.0136 30.8428 96.3723 32.2992 99.0777V100.118C32.2992 100.118 30.7721 96.5803 29.9398 96.095C29.9398 96.095 33.2008 91.5162 14.6754 84.0254Z" fill="#2B691B"/>
<path d="M32.2992 99.0775C32.2992 99.0775 34.546 102.489 33.2649 106.642L32.6865 106.486C32.6865 106.486 33.2479 101.912 32.0715 99.6113C30.8964 97.3114 32.2992 99.0775 32.2992 99.0775Z" fill="#2B691B"/>
<path d="M39.1902 89.9953C39.1902 89.9953 32.3306 86.1543 35.5314 80.9424C35.5314 80.9424 38.0923 77.7425 40.8363 76.9197C40.8363 76.9197 39.3734 84.6918 40.8363 84.8749C42.2993 85.0581 41.8426 76.0968 41.8426 76.0968C41.8426 76.0968 49.0686 72.6222 51.9029 72.8969C51.9029 72.8969 47.4211 80.4859 48.8841 80.3027C50.347 80.1196 55.3785 72.439 55.3785 72.439C55.3785 72.439 62.7863 71.068 63.9758 75.4571C65.1653 79.8461 63.2443 82.04 62.1464 82.3147C61.0485 82.5895 54.0058 82.4979 54.189 83.4123C54.3722 84.3268 59.1275 85.7894 61.78 84.9665C61.78 84.9665 58.8527 92.1904 55.0121 91.8241C51.1701 91.4578 49.9819 89.0808 47.6043 88.8977C45.2266 88.7145 43.4888 89.3555 44.677 89.9953C45.8665 90.635 49.8903 90.2046 51.8113 91.8372C53.7323 93.4699 55.2869 94.4759 51.7197 95.2072C48.1526 95.9385 41.751 95.4819 40.4699 92.7386C39.1902 89.9953 39.1902 89.9953 39.1902 89.9953Z" fill="#82B378"/>
<path d="M60.5919 76.8281C60.5919 76.8281 41.3847 83.0461 39.1902 89.9953C39.1902 89.9953 39.2818 93.1036 37.3608 96.6698V98.0408C37.3608 98.0408 39.3734 93.377 40.47 92.7373C40.47 92.7373 36.1727 86.7025 60.5919 76.8281Z" fill="#2B691B"/>
<path d="M37.3608 96.6697C37.3608 96.6697 34.3982 101.166 36.0876 106.641L36.8492 106.437C36.8492 106.437 36.1098 100.407 37.6592 97.3748C39.2098 94.3424 37.3608 96.6697 37.3608 96.6697Z" fill="#2B691B"/>
<path d="M38.9586 118.511C46.3795 118.511 52.395 112.497 52.395 105.078H25.5222C25.5222 112.497 31.5377 118.511 38.9586 118.511Z" fill="#DA7373"/>
<path d="M42.2653 118.409C41.7184 118.477 41.1622 118.512 40.5956 118.512C33.1747 118.512 27.1592 112.497 27.1592 105.078H30.4973C30.4987 111.932 35.6322 117.586 42.2653 118.409Z" fill="#F4C2C2"/>
<path d="M50.9241 117.537H26.9943C26.0783 117.537 25.3363 118.279 25.3363 119.195H52.5821C52.5821 118.279 51.8401 117.537 50.9241 117.537Z" fill="#FCA56B"/>
<path d="M52.7011 105.078H25.0798V105.49H52.7011V105.078Z" fill="#660606"/>
</g>
<defs>
<clipPath id="clip0_5_2">
<rect width="413" height="194" fill="white"/>
</clipPath>
</defs>
</svg>
