<svg width="684" height="615" viewBox="0 0 684 615" fill="none" xmlns="http://www.w3.org/2000/svg">
<path d="M634.991 415.482C571.56 554.664 402.594 632.634 256.067 611.602C232.224 608.18 166.858 597.985 108.986 549.89C-2.42288 457.303 -26.2485 273.969 63.6214 144.769C129.031 50.7343 246.284 -2.57092 357.698 0.0954743C381.697 0.669738 473.669 4.20938 554.496 66.3188C566.369 75.4415 592.553 97.1193 616.152 131.51C671.566 212.265 676.33 324.775 634.991 415.482Z" fill="url(#paint0_linear_239_8)"/>
<path d="M480.991 326.76C480.991 326.76 479.206 256.807 513.78 238.084C548.355 219.362 614.093 207.656 616.557 107.211C618 48.4052 619.561 22.6945 620.608 11.4836C621.016 7.11039 616.846 3.58049 612.217 4.39309C579.472 10.1415 473.098 33.8025 450.796 101.462C424.356 181.674 480.991 326.76 480.991 326.76Z" fill="#82B378"/>
<path d="M586.893 32.34C550.949 62.2137 509.386 115.084 487.233 167.954C484.389 176.667 476.071 195.197 472.459 228.12C469.233 255.578 470.837 284.593 474.749 303.799C474.996 305.014 476.253 305.811 477.556 305.581C479.796 305.184 479.498 302.939 479.478 303.01C475.01 270.195 476.865 229.352 487.102 192.499C500.181 147.249 529.352 103.377 559.525 66.1672L562.63 62.5032C586.006 34.5269 590.927 34.3209 588.742 32.3708C588.226 31.9098 587.418 31.9056 586.893 32.34Z" fill="#15410D"/>
<path d="M420.444 376.387C415.465 377.819 473.424 328.253 503.642 241.466C517.882 200.57 526.872 148.029 555.941 131.545C580.134 117.827 650.949 139.143 674.024 146.68C676.907 147.622 677.315 151.264 674.698 152.733C661.794 159.976 633.859 177.427 623.92 197.691C610.819 224.402 579.305 237.983 552.97 239.042C526.636 240.1 511.65 242.68 492.779 278.885C473.909 315.09 434.588 372.318 420.444 376.387Z" fill="#52764B"/>
<path d="M638.609 153.574C608.094 150.3 573.373 158.403 552.768 180.148L550.819 182.226C546.304 187.105 519.394 222.554 502.668 252.76C502.46 253.137 502.618 253.599 503.022 253.794C503.708 254.124 504.197 253.434 504.117 253.489C515.059 236.645 530.262 215.484 542.181 199.741C555.019 182.537 563.931 170.919 588.066 162.082C614.854 152.683 638.569 154.797 638.497 154.8C638.861 154.818 639.173 154.558 639.192 154.219C639.212 153.892 638.952 153.611 638.609 153.574Z" fill="#15410D"/>
<path d="M651.203 542.42H470.057V270.931H655.893V538.049C655.893 540.463 653.793 542.42 651.203 542.42Z" fill="url(#paint1_linear_239_8)"/>
<path d="M659.925 269.831H640.839V540.787H659.925V269.831Z" fill="url(#paint2_linear_239_8)"/>
<path d="M660.053 542.774H641.889C640.008 542.774 638.484 541.354 638.484 539.602V448.191C638.484 446.439 640.008 445.019 641.889 445.019H660.053C661.933 445.019 663.457 446.439 663.457 448.191V539.602C663.458 541.354 661.934 542.774 660.053 542.774Z" fill="url(#paint3_linear_239_8)"/>
<path d="M665.893 545.556H638.626C637.681 545.556 636.914 544.842 636.914 543.961V516.075C636.914 515.195 637.68 514.481 638.626 514.481H665.893C666.838 514.481 667.604 515.195 667.604 516.075V543.961C667.604 544.842 666.838 545.556 665.893 545.556Z" fill="url(#paint4_linear_239_8)"/>
<g opacity="0.89">
<path d="M531.19 350.372H556.347C556.494 350.372 556.613 350.261 556.613 350.124V307.558C556.613 307.421 556.494 307.31 556.347 307.31H531.19C531.043 307.31 530.923 307.421 530.923 307.558V350.124C530.923 350.261 531.043 350.372 531.19 350.372Z" fill="white"/>
<path d="M544.914 348.045H554.592C554.673 348.045 554.74 347.983 554.74 347.907V309.775C554.74 309.699 554.673 309.637 554.592 309.637H544.914C544.832 309.637 544.766 309.699 544.766 309.775V347.907C544.766 347.983 544.832 348.045 544.914 348.045Z" fill="url(#paint5_linear_239_8)"/>
<path d="M532.944 348.045H542.622C542.704 348.045 542.77 347.983 542.77 347.907V309.775C542.77 309.699 542.704 309.637 542.622 309.637H532.944C532.862 309.637 532.796 309.699 532.796 309.775V347.907C532.796 347.983 532.863 348.045 532.944 348.045Z" fill="url(#paint6_linear_239_8)"/>
<path d="M556.346 321.668H530.923V322.896H556.346V321.668Z" fill="white"/>
<path d="M556.346 334.973H530.923V336.202H556.346V334.973Z" fill="white"/>
</g>
<g opacity="0.89">
<path d="M531.402 415.298H556.559C556.706 415.298 556.826 415.187 556.826 415.049V372.483C556.826 372.346 556.706 372.235 556.559 372.235H531.402C531.255 372.235 531.135 372.346 531.135 372.483V415.049C531.135 415.187 531.255 415.298 531.402 415.298Z" fill="white"/>
<path d="M545.126 412.97H554.804C554.886 412.97 554.952 412.908 554.952 412.832V374.701C554.952 374.624 554.886 374.563 554.804 374.563H545.126C545.044 374.563 544.978 374.625 544.978 374.701V412.832C544.978 412.908 545.044 412.97 545.126 412.97Z" fill="url(#paint7_linear_239_8)"/>
<path d="M533.156 412.97H542.834C542.916 412.97 542.983 412.908 542.983 412.832V374.701C542.983 374.624 542.916 374.563 542.834 374.563H533.156C533.075 374.563 533.008 374.625 533.008 374.701V412.832C533.008 412.908 533.075 412.97 533.156 412.97Z" fill="url(#paint8_linear_239_8)"/>
<path d="M556.558 386.593H531.135V387.822H556.558V386.593Z" fill="white"/>
<path d="M556.558 399.898H531.135V401.127H556.558V399.898Z" fill="white"/>
</g>
<g opacity="0.89">
<path d="M531.615 483.796H556.771C556.919 483.796 557.038 483.684 557.038 483.547V440.981C557.038 440.844 556.919 440.733 556.771 440.733H531.615C531.467 440.733 531.348 440.844 531.348 440.981V483.547C531.348 483.684 531.467 483.796 531.615 483.796Z" fill="white"/>
<path d="M545.339 481.468H555.017C555.099 481.468 555.165 481.406 555.165 481.33V443.198C555.165 443.122 555.099 443.06 555.017 443.06H545.339C545.257 443.06 545.191 443.122 545.191 443.198V481.33C545.191 481.406 545.257 481.468 545.339 481.468Z" fill="url(#paint9_linear_239_8)"/>
<path d="M533.369 481.468H543.047C543.129 481.468 543.195 481.406 543.195 481.33V443.198C543.195 443.122 543.129 443.06 543.047 443.06H533.369C533.287 443.06 533.221 443.122 533.221 443.198V481.33C533.221 481.406 533.287 481.468 533.369 481.468Z" fill="url(#paint10_linear_239_8)"/>
<path d="M556.771 455.091H531.348V456.319H556.771V455.091Z" fill="white"/>
<path d="M556.771 468.396H531.348V469.625H556.771V468.396Z" fill="white"/>
</g>
<g opacity="0.89">
<path d="M594.06 349.683H619.217C619.364 349.683 619.484 349.572 619.484 349.435V306.869C619.484 306.732 619.364 306.62 619.217 306.62H594.06C593.913 306.62 593.793 306.732 593.793 306.869V349.435C593.793 349.572 593.913 349.683 594.06 349.683Z" fill="white"/>
<path d="M607.784 347.356H617.462C617.544 347.356 617.61 347.294 617.61 347.218V309.086C617.61 309.01 617.544 308.948 617.462 308.948H607.784C607.702 308.948 607.636 309.01 607.636 309.086V347.218C607.636 347.294 607.702 347.356 607.784 347.356Z" fill="url(#paint11_linear_239_8)"/>
<path d="M595.815 347.356H605.493C605.575 347.356 605.641 347.294 605.641 347.218V309.086C605.641 309.01 605.575 308.948 605.493 308.948H595.815C595.733 308.948 595.667 309.01 595.667 309.086V347.218C595.667 347.294 595.733 347.356 595.815 347.356Z" fill="url(#paint12_linear_239_8)"/>
<path d="M619.216 320.979H593.793V322.207H619.216V320.979Z" fill="white"/>
<path d="M619.216 334.284H593.793V335.512H619.216V334.284Z" fill="white"/>
</g>
<g opacity="0.89">
<path d="M594.272 415.34H619.429C619.577 415.34 619.696 415.229 619.696 415.092V372.526C619.696 372.388 619.577 372.277 619.429 372.277H594.272C594.125 372.277 594.006 372.388 594.006 372.526V415.092C594.006 415.229 594.125 415.34 594.272 415.34Z" fill="white"/>
<path d="M607.996 413.012H617.674C617.756 413.012 617.822 412.95 617.822 412.874V374.743C617.822 374.667 617.756 374.605 617.674 374.605H607.996C607.914 374.605 607.848 374.667 607.848 374.743V412.874C607.848 412.95 607.914 413.012 607.996 413.012Z" fill="url(#paint13_linear_239_8)"/>
<path d="M596.026 413.012H605.704C605.786 413.012 605.853 412.95 605.853 412.874V374.743C605.853 374.667 605.786 374.605 605.704 374.605H596.026C595.945 374.605 595.878 374.667 595.878 374.743V412.874C595.878 412.95 595.945 413.012 596.026 413.012Z" fill="url(#paint14_linear_239_8)"/>
<path d="M619.428 386.635H594.005V387.864H619.428V386.635Z" fill="white"/>
<path d="M619.428 399.94H594.005V401.169H619.428V399.94Z" fill="white"/>
</g>
<g opacity="0.89">
<path d="M594.485 483.838H619.641C619.789 483.838 619.908 483.727 619.908 483.589V441.023C619.908 440.886 619.789 440.775 619.641 440.775H594.485C594.337 440.775 594.218 440.886 594.218 441.023V483.589C594.218 483.727 594.337 483.838 594.485 483.838Z" fill="white"/>
<path d="M608.209 481.51H617.887C617.969 481.51 618.035 481.448 618.035 481.372V443.241C618.035 443.164 617.968 443.103 617.887 443.103H608.209C608.127 443.103 608.061 443.165 608.061 443.241V481.372C608.061 481.448 608.127 481.51 608.209 481.51Z" fill="url(#paint15_linear_239_8)"/>
<path d="M596.24 481.51H605.918C605.999 481.51 606.066 481.448 606.066 481.372V443.241C606.066 443.164 605.999 443.103 605.918 443.103H596.24C596.158 443.103 596.091 443.165 596.091 443.241V481.372C596.091 481.448 596.158 481.51 596.24 481.51Z" fill="url(#paint16_linear_239_8)"/>
<path d="M619.641 455.133H594.218V456.362H619.641V455.133Z" fill="white"/>
<path d="M619.641 468.438H594.218V469.667H619.641V468.438Z" fill="white"/>
</g>
<path d="M675.568 280.611H481.615L376.187 211.639H634.041L683.208 274.826C685.797 277.525 681.721 280.611 675.568 280.611Z" fill="url(#paint17_linear_239_8)"/>
<path d="M635.065 215.008L383.031 218.382L376.324 207.34L617.4 205.195C626.443 205.195 633.774 207.864 633.774 211.155L635.065 215.008Z" fill="url(#paint18_linear_239_8)"/>
<path d="M32.7971 544.569H213.943V273.261H28.1066V540.198C28.1066 542.612 30.2065 544.569 32.7971 544.569Z" fill="url(#paint19_linear_239_8)"/>
<path d="M24.075 545.233H43.1614V272.161H24.075V545.233Z" fill="url(#paint20_linear_239_8)"/>
<path d="M22.4286 547.235H43.6302C44.6717 547.235 45.5159 546.448 45.5159 545.478V450.474C45.5159 449.504 44.6717 448.717 43.6302 448.717H22.4286C21.3871 448.717 20.5428 449.504 20.5428 450.474V545.478C20.5428 546.448 21.3873 547.235 22.4286 547.235Z" fill="url(#paint21_linear_239_8)"/>
<path d="M18.1071 550.038H45.3744C46.3193 550.038 47.0854 549.324 47.0854 548.444V520.315C47.0854 519.435 46.3193 518.72 45.3744 518.72H18.1071C17.1623 518.72 16.3962 519.434 16.3962 520.315V548.444C16.3962 549.324 17.1623 550.038 18.1071 550.038Z" fill="url(#paint22_linear_239_8)"/>
<g opacity="0.89">
<path d="M152.81 352.703H127.654C127.506 352.703 127.387 352.592 127.387 352.455V309.889C127.387 309.752 127.506 309.64 127.654 309.64H152.81C152.958 309.64 153.077 309.752 153.077 309.889V352.455C153.077 352.592 152.958 352.703 152.81 352.703Z" fill="white"/>
<path d="M139.086 350.376H129.408C129.326 350.376 129.26 350.314 129.26 350.237V312.106C129.26 312.03 129.327 311.968 129.408 311.968H139.086C139.168 311.968 139.234 312.03 139.234 312.106V350.237C139.234 350.314 139.168 350.376 139.086 350.376Z" fill="url(#paint23_linear_239_8)"/>
<path d="M151.056 350.376H141.378C141.296 350.376 141.229 350.314 141.229 350.237V312.106C141.229 312.03 141.296 311.968 141.378 311.968H151.056C151.137 311.968 151.204 312.03 151.204 312.106V350.237C151.204 350.314 151.137 350.376 151.056 350.376Z" fill="url(#paint24_linear_239_8)"/>
<path d="M127.654 325.227H153.077V323.998H127.654V325.227Z" fill="white"/>
<path d="M127.654 338.532H153.077V337.304H127.654V338.532Z" fill="white"/>
</g>
<g opacity="0.89">
<path d="M152.598 417.628H127.441C127.294 417.628 127.174 417.517 127.174 417.38V374.814C127.174 374.677 127.294 374.565 127.441 374.565H152.598C152.745 374.565 152.864 374.677 152.864 374.814V417.38C152.864 417.517 152.745 417.628 152.598 417.628Z" fill="white"/>
<path d="M138.874 415.3H129.196C129.114 415.3 129.048 415.239 129.048 415.162V377.031C129.048 376.955 129.114 376.893 129.196 376.893H138.874C138.956 376.893 139.022 376.955 139.022 377.031V415.162C139.022 415.239 138.956 415.3 138.874 415.3Z" fill="url(#paint25_linear_239_8)"/>
<path d="M150.843 415.3H141.165C141.083 415.3 141.017 415.239 141.017 415.162V377.031C141.017 376.955 141.083 376.893 141.165 376.893H150.843C150.925 376.893 150.991 376.955 150.991 377.031V415.162C150.991 415.239 150.925 415.3 150.843 415.3Z" fill="url(#paint26_linear_239_8)"/>
<path d="M127.442 390.152H152.865V388.923H127.442V390.152Z" fill="white"/>
<path d="M127.442 403.458H152.865V402.229H127.442V403.458Z" fill="white"/>
</g>
<g opacity="0.89">
<path d="M152.385 486.126H127.228C127.081 486.126 126.962 486.015 126.962 485.878V443.312C126.962 443.175 127.081 443.063 127.228 443.063H152.385C152.532 443.063 152.652 443.175 152.652 443.312V485.878C152.652 486.015 152.532 486.126 152.385 486.126Z" fill="white"/>
<path d="M138.661 483.799H128.984C128.902 483.799 128.835 483.737 128.835 483.661V445.529C128.835 445.453 128.902 445.391 128.984 445.391H138.661C138.743 445.391 138.81 445.453 138.81 445.529V483.661C138.81 483.737 138.743 483.799 138.661 483.799Z" fill="url(#paint27_linear_239_8)"/>
<path d="M150.631 483.799H140.953C140.871 483.799 140.805 483.737 140.805 483.661V445.529C140.805 445.453 140.871 445.391 140.953 445.391H150.631C150.713 445.391 150.779 445.453 150.779 445.529V483.661C150.779 483.737 150.712 483.799 150.631 483.799Z" fill="url(#paint28_linear_239_8)"/>
<path d="M127.229 458.65H152.652V457.421H127.229V458.65Z" fill="white"/>
<path d="M127.229 471.955H152.652V470.727H127.229V471.955Z" fill="white"/>
</g>
<g opacity="0.89">
<path d="M89.9402 352.014H64.7835C64.6363 352.014 64.5168 351.903 64.5168 351.765V309.2C64.5168 309.062 64.6363 308.951 64.7835 308.951H89.9404C90.0877 308.951 90.2071 309.062 90.2071 309.2V351.765C90.2069 351.903 90.0874 352.014 89.9402 352.014Z" fill="white"/>
<path d="M76.2163 349.686H66.5382C66.4563 349.686 66.39 349.624 66.39 349.548V311.417C66.39 311.34 66.4563 311.279 66.5382 311.279H76.2163C76.2982 311.279 76.3645 311.34 76.3645 311.417V349.548C76.3645 349.624 76.298 349.686 76.2163 349.686Z" fill="url(#paint29_linear_239_8)"/>
<path d="M88.1853 349.686H78.5074C78.4255 349.686 78.3593 349.624 78.3593 349.548V311.417C78.3593 311.34 78.4257 311.279 78.5074 311.279H88.1853C88.2672 311.279 88.3335 311.34 88.3335 311.417V349.548C88.3335 349.624 88.2672 349.686 88.1853 349.686Z" fill="url(#paint30_linear_239_8)"/>
<path d="M64.7842 324.538H90.2071V323.309H64.7842V324.538Z" fill="white"/>
<path d="M64.7842 337.843H90.2071V336.615H64.7842V337.843Z" fill="white"/>
</g>
<g opacity="0.89">
<path d="M89.7277 417.671H64.571C64.4238 417.671 64.3043 417.559 64.3043 417.422V374.856C64.3043 374.719 64.4238 374.608 64.571 374.608H89.7279C89.8751 374.608 89.9946 374.719 89.9946 374.856V417.422C89.9943 417.559 89.8751 417.671 89.7277 417.671Z" fill="white"/>
<path d="M76.0036 415.343H66.3257C66.2438 415.343 66.1776 415.281 66.1776 415.205V377.074C66.1776 376.997 66.2438 376.936 66.3257 376.936H76.0036C76.0855 376.936 76.1518 376.997 76.1518 377.074V415.205C76.1518 415.281 76.0853 415.343 76.0036 415.343Z" fill="url(#paint31_linear_239_8)"/>
<path d="M87.9727 415.343H78.2949C78.2129 415.343 78.1467 415.281 78.1467 415.205V377.074C78.1467 376.997 78.2129 376.936 78.2949 376.936H87.9727C88.0546 376.936 88.1209 376.997 88.1209 377.074V415.205C88.1209 415.281 88.0546 415.343 87.9727 415.343Z" fill="url(#paint32_linear_239_8)"/>
<path d="M64.5716 390.194H89.9944V388.966H64.5716V390.194Z" fill="white"/>
<path d="M64.5716 403.5H89.9944V402.271H64.5716V403.5Z" fill="white"/>
</g>
<g opacity="0.89">
<path d="M89.515 486.169H64.3583C64.2111 486.169 64.0916 486.057 64.0916 485.92V443.354C64.0916 443.217 64.2111 443.106 64.3583 443.106H89.5152C89.6624 443.106 89.7819 443.217 89.7819 443.354V485.92C89.7816 486.057 89.6624 486.169 89.515 486.169Z" fill="white"/>
<path d="M75.7912 483.841H66.1133C66.0314 483.841 65.9651 483.779 65.9651 483.703V445.571C65.9651 445.495 66.0314 445.433 66.1133 445.433H75.7912C75.8731 445.433 75.9394 445.495 75.9394 445.571V483.703C75.9394 483.779 75.8729 483.841 75.7912 483.841Z" fill="url(#paint33_linear_239_8)"/>
<path d="M87.7603 483.841H78.0825C78.0005 483.841 77.9343 483.779 77.9343 483.703V445.571C77.9343 445.495 78.0008 445.433 78.0825 445.433H87.7603C87.8422 445.433 87.9085 445.495 87.9085 445.571V483.703C87.9085 483.779 87.8422 483.841 87.7603 483.841Z" fill="url(#paint34_linear_239_8)"/>
<path d="M64.3589 458.692H89.7818V457.464H64.3589V458.692Z" fill="white"/>
<path d="M64.3589 471.998H89.7818V470.769H64.3589V471.998Z" fill="white"/>
</g>
<path d="M8.432 282.941H202.385L307.813 219.448H49.9591L0.791624 277.616C-1.79704 280.1 2.2789 282.941 8.432 282.941Z" fill="url(#paint35_linear_239_8)"/>
<path d="M47.1886 219.329L299.223 222.704L305.929 211.662L64.8535 209.517C55.8104 209.517 48.4797 212.185 48.4797 215.477L47.1886 219.329Z" fill="url(#paint36_linear_239_8)"/>
<path d="M495.612 275.321H180.483V544.569H495.612V275.321Z" fill="url(#paint37_linear_239_8)"/>
<path d="M506.208 272.226H487.122V543.413H506.208V272.226Z" fill="url(#paint38_linear_239_8)"/>
<path d="M506.336 545.401H488.171C486.291 545.401 484.767 543.981 484.767 542.229V450.735C484.767 448.983 486.291 447.563 488.171 447.563H506.336C508.216 447.563 509.74 448.983 509.74 450.735V542.229C509.74 543.981 508.216 545.401 506.336 545.401Z" fill="url(#paint39_linear_239_8)"/>
<path d="M512.176 548.185H484.908C483.963 548.185 483.197 547.471 483.197 546.59V518.678C483.197 517.798 483.963 517.084 484.908 517.084H512.176C513.121 517.084 513.887 517.798 513.887 518.678V546.591C513.887 547.471 513.121 548.185 512.176 548.185Z" fill="url(#paint40_linear_239_8)"/>
<path d="M167.677 274.324L512.165 275.432C514.618 275.44 515.561 272.457 513.496 271.224L346.266 171.411L166.625 270.726C164.813 271.728 165.57 274.317 167.677 274.324Z" fill="url(#paint41_linear_239_8)"/>
<path d="M180.483 276.016L495.612 275.321L346.266 184.405L180.483 276.016Z" fill="url(#paint42_linear_239_8)"/>
<path d="M199.57 272.226H180.484V542.42H199.57V272.226Z" fill="url(#paint43_linear_239_8)"/>
<path d="M200.556 544.408H180.674C179.268 544.408 178.129 543.346 178.129 542.036V448.942C178.129 447.632 179.268 446.57 180.674 446.57H200.556C201.962 446.57 203.102 447.632 203.102 448.942V542.036C203.102 543.346 201.962 544.408 200.556 544.408Z" fill="url(#paint44_linear_239_8)"/>
<path d="M205.537 547.192H178.27C177.325 547.192 176.559 546.478 176.559 545.598V517.685C176.559 516.805 177.325 516.091 178.27 516.091H205.537C206.482 516.091 207.248 516.804 207.248 517.685V545.598C207.248 546.478 206.482 547.192 205.537 547.192Z" fill="url(#paint45_linear_239_8)"/>
<path d="M298.994 280.138H279.908V551.324H298.994V280.138Z" fill="url(#paint46_linear_239_8)"/>
<path d="M300.716 553.312H279.363C278.363 553.312 277.553 552.557 277.553 551.625V457.161C277.553 456.23 278.363 455.474 279.363 455.474H300.716C301.716 455.474 302.526 456.23 302.526 457.161V551.625C302.526 552.557 301.716 553.312 300.716 553.312Z" fill="url(#paint47_linear_239_8)"/>
<path d="M304.962 556.096H277.694C276.749 556.096 275.983 555.382 275.983 554.502V526.59C275.983 525.709 276.749 524.995 277.694 524.995H304.962C305.906 524.995 306.673 525.709 306.673 526.59V554.502C306.673 555.382 305.907 556.096 304.962 556.096Z" fill="url(#paint48_linear_239_8)"/>
<path d="M417.122 278.861H398.035V550.047H417.122V278.861Z" fill="url(#paint49_linear_239_8)"/>
<path d="M419.006 552.035H397.329C396.419 552.035 395.681 551.348 395.681 550.5V455.733C395.681 454.885 396.419 454.197 397.329 454.197H419.006C419.916 454.197 420.654 454.885 420.654 455.733V550.5C420.654 551.348 419.916 552.035 419.006 552.035Z" fill="url(#paint50_linear_239_8)"/>
<path d="M423.089 554.819H395.822C394.877 554.819 394.111 554.105 394.111 553.225V525.312C394.111 524.432 394.877 523.718 395.822 523.718H423.089C424.034 523.718 424.801 524.432 424.801 525.312V553.225C424.8 554.105 424.034 554.819 423.089 554.819Z" fill="url(#paint51_linear_239_8)"/>
<g opacity="0.89">
<path d="M228.645 484.521H253.802C253.949 484.521 254.068 484.409 254.068 484.272V437.317C254.068 437.18 253.949 437.069 253.802 437.069H228.645C228.498 437.069 228.378 437.18 228.378 437.317V484.272C228.378 484.409 228.498 484.521 228.645 484.521Z" fill="white"/>
<path d="M242.369 481.955H252.047C252.129 481.955 252.195 481.894 252.195 481.817V439.772C252.195 439.696 252.128 439.634 252.047 439.634H242.369C242.287 439.634 242.221 439.696 242.221 439.772V481.817C242.221 481.894 242.287 481.955 242.369 481.955Z" fill="url(#paint52_linear_239_8)"/>
<path d="M230.4 481.955H240.078C240.16 481.955 240.226 481.894 240.226 481.817V439.772C240.226 439.696 240.16 439.634 240.078 439.634H230.4C230.318 439.634 230.252 439.696 230.252 439.772V481.817C230.251 481.894 230.318 481.955 230.4 481.955Z" fill="url(#paint53_linear_239_8)"/>
<path d="M253.801 452.89H228.378V454.244H253.801V452.89Z" fill="white"/>
<path d="M253.801 467.552H228.378V468.906H253.801V467.552Z" fill="white"/>
</g>
<g opacity="0.89">
<path d="M228.04 420.181H253.197C253.344 420.181 253.464 420.069 253.464 419.932V372.977C253.464 372.84 253.344 372.729 253.197 372.729H228.04C227.893 372.729 227.773 372.84 227.773 372.977V419.932C227.773 420.069 227.893 420.181 228.04 420.181Z" fill="white"/>
<path d="M241.764 417.616H251.442C251.524 417.616 251.59 417.554 251.59 417.478V375.432C251.59 375.356 251.524 375.294 251.442 375.294H241.764C241.682 375.294 241.616 375.356 241.616 375.432V417.478C241.616 417.554 241.683 417.616 241.764 417.616Z" fill="url(#paint54_linear_239_8)"/>
<path d="M229.795 417.616H239.473C239.555 417.616 239.621 417.554 239.621 417.478V375.432C239.621 375.356 239.555 375.294 239.473 375.294H229.795C229.713 375.294 229.647 375.356 229.647 375.432V417.478C229.647 417.554 229.713 417.616 229.795 417.616Z" fill="url(#paint55_linear_239_8)"/>
<path d="M253.197 388.55H227.774V389.904H253.197V388.55Z" fill="white"/>
<path d="M253.197 403.211H227.774V404.565H253.197V403.211Z" fill="white"/>
</g>
<g opacity="0.89">
<path d="M440.978 483.514H466.135C466.282 483.514 466.401 483.403 466.401 483.266V436.311C466.401 436.174 466.282 436.063 466.135 436.063H440.978C440.831 436.063 440.711 436.174 440.711 436.311V483.266C440.711 483.403 440.83 483.514 440.978 483.514Z" fill="white"/>
<path d="M454.702 480.95H464.38C464.462 480.95 464.528 480.888 464.528 480.812V438.766C464.528 438.69 464.462 438.628 464.38 438.628H454.702C454.62 438.628 454.554 438.69 454.554 438.766V480.812C454.554 480.888 454.621 480.95 454.702 480.95Z" fill="url(#paint56_linear_239_8)"/>
<path d="M442.733 480.95H452.411C452.493 480.95 452.559 480.888 452.559 480.812V438.766C452.559 438.69 452.493 438.628 452.411 438.628H442.733C442.651 438.628 442.584 438.69 442.584 438.766V480.812C442.584 480.888 442.651 480.95 442.733 480.95Z" fill="url(#paint57_linear_239_8)"/>
<path d="M466.134 451.884H440.711V453.238H466.134V451.884Z" fill="white"/>
<path d="M466.134 466.546H440.711V467.899H466.134V466.546Z" fill="white"/>
</g>
<g opacity="0.89">
<path d="M440.373 419.174H465.53C465.677 419.174 465.796 419.063 465.796 418.926V371.971C465.796 371.834 465.677 371.723 465.53 371.723H440.373C440.226 371.723 440.106 371.834 440.106 371.971V418.926C440.106 419.063 440.226 419.174 440.373 419.174Z" fill="white"/>
<path d="M454.097 416.609H463.775C463.857 416.609 463.923 416.548 463.923 416.471V374.426C463.923 374.35 463.856 374.288 463.775 374.288H454.097C454.015 374.288 453.949 374.35 453.949 374.426V416.471C453.949 416.548 454.015 416.609 454.097 416.609Z" fill="url(#paint58_linear_239_8)"/>
<path d="M442.128 416.609H451.806C451.887 416.609 451.954 416.548 451.954 416.471V374.426C451.954 374.35 451.887 374.288 451.806 374.288H442.128C442.046 374.288 441.979 374.35 441.979 374.426V416.471C441.979 416.548 442.046 416.609 442.128 416.609Z" fill="url(#paint59_linear_239_8)"/>
<path d="M465.529 387.544H440.106V388.898H465.529V387.544Z" fill="white"/>
<path d="M465.529 402.206H440.106V403.56H465.529V402.206Z" fill="white"/>
</g>
<path d="M346.339 250.502C355.663 250.502 363.221 243.458 363.221 234.769C363.221 226.08 355.663 219.036 346.339 219.036C337.014 219.036 329.456 226.08 329.456 234.769C329.456 243.458 337.014 250.502 346.339 250.502Z" fill="url(#paint60_linear_239_8)"/>
<path d="M346.338 248.198C354.297 248.198 360.749 242.186 360.749 234.769C360.749 227.353 354.297 221.34 346.338 221.34C338.38 221.34 331.928 227.353 331.928 234.769C331.928 242.186 338.38 248.198 346.338 248.198Z" fill="url(#paint61_linear_239_8)"/>
<path d="M379.271 541.632H319.619V463.404C324.995 432.72 377.375 433.794 379.271 463.404V541.632Z" fill="url(#paint62_linear_239_8)"/>
<path d="M375.362 541.632H323.528V467.459C328.2 438.365 373.714 439.383 375.362 467.459V541.632Z" fill="url(#paint63_linear_239_8)"/>
<path d="M382.001 539.843H317.169V533.178C317.169 532.79 317.506 532.476 317.922 532.476H381.248C381.664 532.476 382.001 532.79 382.001 533.178V539.843Z" fill="url(#paint64_linear_239_8)"/>
<path d="M382.001 544.529H317.169V537.865C317.169 537.477 317.506 537.163 317.922 537.163H381.248C381.664 537.163 382.001 537.477 382.001 537.864V544.529Z" fill="url(#paint65_linear_239_8)"/>
<path d="M440.154 355.783H464.963C465.206 355.783 465.403 355.599 465.403 355.372V308.331C465.136 293.449 440.796 293.083 439.713 308.331V355.372C439.713 355.599 439.911 355.783 440.154 355.783Z" fill="white"/>
<path d="M453.704 353.218H463.382C463.464 353.218 463.53 353.156 463.53 353.08V311.035C463.53 310.958 463.464 310.896 463.382 310.896H453.704C453.622 310.896 453.556 310.958 453.556 311.035V353.08C453.556 353.156 453.622 353.218 453.704 353.218Z" fill="url(#paint66_linear_239_8)"/>
<path d="M441.735 353.218H451.413C451.495 353.218 451.561 353.156 451.561 353.08V311.035C451.561 310.958 451.495 310.896 451.413 310.896H441.735C441.653 310.896 441.587 310.958 441.587 311.035V353.08C441.587 353.156 441.653 353.218 441.735 353.218Z" fill="url(#paint67_linear_239_8)"/>
<path d="M465.136 324.153H439.713V325.507H465.136V324.153Z" fill="white"/>
<path d="M465.136 338.814H439.713V340.168H465.136V338.814Z" fill="white"/>
<path d="M441.712 309.569C442.3 295.723 463.1 294.954 463.689 309.569H441.712Z" fill="url(#paint68_linear_239_8)"/>
<path d="M310.254 355.783H335.062C335.306 355.783 335.503 355.599 335.503 355.372V308.331C335.236 293.449 310.895 293.083 309.813 308.331V355.372C309.813 355.599 310.01 355.783 310.254 355.783Z" fill="white"/>
<path d="M323.804 353.218H333.481C333.563 353.218 333.63 353.156 333.63 353.08V311.035C333.63 310.958 333.563 310.896 333.481 310.896H323.804C323.722 310.896 323.655 310.958 323.655 311.035V353.08C323.655 353.156 323.722 353.218 323.804 353.218Z" fill="url(#paint69_linear_239_8)"/>
<path d="M311.834 353.218H321.512C321.594 353.218 321.66 353.156 321.66 353.08V311.035C321.66 310.958 321.594 310.896 321.512 310.896H311.834C311.752 310.896 311.686 310.958 311.686 311.035V353.08C311.686 353.156 311.752 353.218 311.834 353.218Z" fill="url(#paint70_linear_239_8)"/>
<path d="M335.236 324.153H309.813V325.507H335.236V324.153Z" fill="white"/>
<path d="M335.236 338.814H309.813V340.168H335.236V338.814Z" fill="white"/>
<path d="M311.81 309.569C312.399 295.723 333.199 294.954 333.788 309.569H311.81Z" fill="url(#paint71_linear_239_8)"/>
<path d="M358.132 355.783H382.941C383.185 355.783 383.382 355.599 383.382 355.372V308.331C383.115 293.449 358.774 293.083 357.692 308.331V355.372C357.692 355.599 357.889 355.783 358.132 355.783Z" fill="white"/>
<path d="M371.682 353.218H381.36C381.442 353.218 381.508 353.156 381.508 353.08V311.035C381.508 310.958 381.442 310.896 381.36 310.896H371.682C371.6 310.896 371.534 310.958 371.534 311.035V353.08C371.534 353.156 371.6 353.218 371.682 353.218Z" fill="url(#paint72_linear_239_8)"/>
<path d="M359.713 353.218H369.391C369.473 353.218 369.539 353.156 369.539 353.08V311.035C369.539 310.958 369.473 310.896 369.391 310.896H359.713C359.631 310.896 359.565 310.958 359.565 311.035V353.08C359.565 353.156 359.631 353.218 359.713 353.218Z" fill="url(#paint73_linear_239_8)"/>
<path d="M383.114 324.153H357.691V325.507H383.114V324.153Z" fill="white"/>
<path d="M383.114 338.814H357.691V340.168H383.114V338.814Z" fill="white"/>
<path d="M359.689 309.569C360.278 295.723 381.078 294.954 381.667 309.569H359.689Z" fill="url(#paint74_linear_239_8)"/>
<path d="M229.016 355.783H253.825C254.068 355.783 254.266 355.599 254.266 355.372V308.331C253.998 293.449 229.658 293.083 228.576 308.331V355.372C228.576 355.599 228.773 355.783 229.016 355.783Z" fill="white"/>
<path d="M242.567 353.218H252.244C252.326 353.218 252.393 353.156 252.393 353.08V311.035C252.393 310.958 252.326 310.896 252.244 310.896H242.567C242.485 310.896 242.418 310.958 242.418 311.035V353.08C242.418 353.156 242.485 353.218 242.567 353.218Z" fill="url(#paint75_linear_239_8)"/>
<path d="M230.597 353.218H240.275C240.357 353.218 240.423 353.156 240.423 353.08V311.035C240.423 310.958 240.357 310.896 240.275 310.896H230.597C230.515 310.896 230.449 310.958 230.449 311.035V353.08C230.449 353.156 230.515 353.218 230.597 353.218Z" fill="url(#paint76_linear_239_8)"/>
<path d="M253.998 324.153H228.575V325.507H253.998V324.153Z" fill="white"/>
<path d="M253.998 338.814H228.575V340.168H253.998V338.814Z" fill="white"/>
<path d="M230.574 309.569C231.162 295.723 251.962 294.954 252.551 309.569H230.574Z" fill="url(#paint77_linear_239_8)"/>
<path d="M510.757 292.738H168.876C166.737 292.738 165.003 291.122 165.003 289.129V279.501H514.629V289.129C514.629 291.122 512.896 292.738 510.757 292.738Z" fill="url(#paint78_linear_239_8)"/>
<path d="M516.178 280.951H165.082C164.378 280.951 163.806 280.419 163.806 279.762V273.416C163.806 272.759 164.378 272.227 165.082 272.227H516.178C516.883 272.227 517.454 272.759 517.454 273.416V279.762C517.454 280.418 516.883 280.951 516.178 280.951Z" fill="url(#paint79_linear_239_8)"/>
<path d="M85.4962 201.689L23.9652 194.007L42.3884 230.05C44.3285 233.772 48.0827 236.145 51.9532 236.086C87.3753 235.547 117.996 228.165 139.658 208.012C141.632 206.175 142.671 203.45 142.546 200.543L140.576 159.646C140.576 159.646 86.3154 201.764 85.4962 201.689Z" fill="url(#paint80_linear_239_8)"/>
<path d="M1.26985 187.031L74.8959 140.72C75.5 140.224 163.257 134.412 163.257 134.412C166.631 134.59 168.267 139.166 165.673 141.174L94.4029 197.725C89.9501 201.259 84.113 202.893 78.3081 202.232L3.6208 193.729C0.354872 193.428 -1.1837 189.045 1.26985 187.031Z" fill="url(#paint81_linear_239_8)"/>
<path d="M159.216 160.15C159.216 160.15 150.077 188.341 171.724 197.551C172.502 197.882 173.315 197.438 173.429 196.604L175.302 182.883C176.694 172.697 159.216 160.15 159.216 160.15Z" fill="url(#paint82_linear_239_8)"/>
<path d="M160.488 163.805L158.73 164.368L153.128 149.172L156.064 147.056L160.488 163.805Z" fill="url(#paint83_linear_239_8)"/>
<path d="M81.4353 197.535C80.9202 197.535 80.4042 197.51 79.8891 197.46L1.72714 189.826C1.27404 189.782 0.945153 189.404 0.992885 188.981C1.03967 188.56 1.42817 188.24 1.89978 188.296L80.0617 195.93C83.6321 196.273 87.282 195.247 90.0455 193.094L162.129 136.98C162.479 136.708 162.999 136.752 163.292 137.078C163.584 137.404 163.538 137.888 163.187 138.161L91.1039 194.275C88.3976 196.383 84.9427 197.535 81.4353 197.535Z" fill="#7C5142"/>
<path d="M153.521 597.712C153.521 597.712 152.556 602.808 152.082 607.852C151.897 609.823 153.528 611.535 155.65 611.617C162.858 611.897 178.277 612.441 183.81 612.211C184.642 612.176 185.185 611.383 184.878 610.662C184.62 610.058 184.122 609.569 183.488 609.298L158.019 598.39L153.521 597.712Z" fill="url(#paint84_linear_239_8)"/>
<path d="M152.73 594.718L153.507 600.813C153.507 600.813 157.968 602.748 161.015 600.569L159.167 593.776L152.73 594.718Z" fill="url(#paint85_linear_239_8)"/>
<path d="M153.314 480.127C152.978 481.719 151.514 559.557 160.443 594.439C160.588 595.008 160.279 595.595 159.697 595.816C158.328 596.338 155.643 597.093 152.426 597.194C151.43 597.225 150.536 596.621 150.255 595.73C147.703 587.637 135.473 547.088 133.878 508.352C132.095 465.069 133.878 506.878 133.878 506.878L134.924 480.123L153.314 480.127Z" fill="url(#paint86_linear_239_8)"/>
<path d="M124.224 600.37C124.224 600.37 122.686 602.943 121.198 609.778C120.929 611.013 121.854 612.195 123.2 612.318C125.58 612.536 129.244 612.816 132.179 612.798C133.532 612.789 134.588 611.691 134.425 610.439C134.1 607.944 133.087 603.85 129.958 600.66L124.224 600.37Z" fill="url(#paint87_linear_239_8)"/>
<path d="M122.873 592.53L124.686 601.748C124.686 601.748 126.479 602.991 130.026 602.09L129.16 592.172L122.873 592.53Z" fill="url(#paint88_linear_239_8)"/>
<path d="M117.974 482.515C110.672 523.584 119.559 584.019 122.555 595.848C122.739 596.572 123.366 597.127 124.154 597.249C125.491 597.455 127.694 597.624 129.865 597.036C130.613 596.834 131.139 596.205 131.169 595.479C131.571 585.916 130.848 527.208 137.652 504.006C137.996 502.83 138.767 501.805 139.833 501.098L153.039 492.35L154.052 478.207L117.974 482.515Z" fill="url(#paint89_linear_239_8)"/>
<path d="M164.505 404.699C142.621 404.362 118.475 410.054 118.475 410.054C111.952 445.523 117.335 486.435 117.335 486.435C134.277 490.575 153.388 483.903 153.388 483.903C156.204 469.078 169.341 427.354 169.341 427.354C180.034 426.118 188.842 423.243 196.095 419.442C190.562 413.466 187.954 405.861 186.821 401.365C179.084 403.606 171.255 404.803 164.505 404.699Z" fill="url(#paint90_linear_239_8)"/>
<path d="M229.146 374.661C226.996 372.241 224.275 373.386 224.275 373.386C221.055 386.063 204.169 396.341 186.822 401.365C187.955 405.861 190.563 413.466 196.096 419.442C224.885 404.357 229.146 374.661 229.146 374.661Z" fill="url(#paint91_linear_239_8)"/>
<path d="M228.623 375.276C228.848 375.943 226.243 376.957 224.71 374.232C224.656 372.926 223.804 367.33 224.641 366.266C229.102 360.598 237.751 353.494 237.751 353.494C239.213 354.838 238.008 356.158 238.008 356.158L233.813 360.231C234.69 361.709 235.761 362.957 236.263 364.744C236.643 366.098 236.41 367.544 235.676 368.776C234.94 370.013 233.935 371.62 232.985 372.878C231.187 375.258 228.623 375.276 228.623 375.276Z" fill="url(#paint92_linear_239_8)"/>
<path d="M231.978 362.874L228.154 365.894L226.954 368.901L230.363 372.425C230.363 372.425 231.509 366.459 232.361 365.167C233.212 363.876 232.771 363.251 231.978 362.874Z" fill="url(#paint93_linear_239_8)"/>
<path d="M126.869 429.8L118.475 410.054C118.475 410.054 98.0348 422.996 94.6734 439.406C98.5356 439.671 105.564 440.607 112.443 443.844C113.954 436.095 126.869 429.8 126.869 429.8Z" fill="url(#paint94_linear_239_8)"/>
<path d="M144.731 448.381C144.731 448.381 121.782 460.467 114.038 450.147C112.43 448.004 112.046 445.874 112.442 443.844C105.563 440.607 98.5353 439.671 94.6731 439.406C93.6596 444.353 94.1953 449.614 97.315 454.932C110.879 478.054 147.769 453.654 147.769 453.654L144.731 448.381Z" fill="url(#paint95_linear_239_8)"/>
<path d="M156.166 424.978L199.685 421.752L194.81 417.012L153.905 422.081L156.166 424.978Z" fill="white"/>
<path d="M143.34 465.252L155.865 424.491C156.007 424.028 156.43 423.691 156.943 423.635C159.213 423.388 165.788 422.695 173.38 422.097C182.525 421.376 193.146 420.792 199.492 421.289C200.394 421.359 200.939 422.249 200.538 423.005C196.929 429.809 182.085 457.486 174.651 466.552C174.405 466.852 174.024 467.028 173.618 467.025L144.558 466.773C143.713 466.765 143.107 466.009 143.34 465.252Z" fill="url(#paint96_linear_239_8)"/>
<path d="M152.366 421.347L194.613 416.458C195.172 416.393 195.725 416.612 196.062 417.032C196.291 417.316 196.105 417.724 195.726 417.768L153.307 422.673L152.366 421.347Z" fill="url(#paint97_linear_239_8)"/>
<path d="M156.943 423.635L143.717 466.467L138.991 463.766C138.482 463.475 138.248 462.901 138.421 462.368L151.719 421.597C151.802 421.342 152.114 421.221 152.366 421.347L156.943 423.635Z" fill="url(#paint98_linear_239_8)"/>
<path d="M139.357 458.337C138.565 458.069 140.682 449.007 142.366 446.967C143.975 445.016 144.849 442.11 149.394 442.788C153.939 443.465 159.3 445.249 159.3 445.249C159.3 445.249 159.029 448.339 155.575 447.342L157.717 448.887C157.717 448.887 157.411 451.361 154.493 450.039L156.486 452.088C156.486 452.088 155.487 453.649 153.086 452.816C142.307 449.077 145.445 459.142 139.357 458.337Z" fill="url(#paint99_linear_239_8)"/>
<path d="M142.339 388.143L135.375 406.908C135.26 407.219 135.397 407.563 135.706 407.722C137.604 408.7 144.442 411.527 152.683 406.658C153.542 406.151 154.126 405.323 154.256 404.384L156.511 388.143L142.339 388.143Z" fill="url(#paint100_linear_239_8)"/>
<path d="M157.489 370.766C157.489 370.766 165.135 384.179 164.155 389.597C163.175 395.015 153.699 394.625 145.424 390.225L139.641 375.742L157.489 370.766Z" fill="url(#paint101_linear_239_8)"/>
<path d="M145.79 383.113C146.126 382.974 146.25 382.59 146.049 382.304C145.436 381.432 144.288 379.653 143.921 378.095C143.921 378.095 142.547 377.275 147.42 376.188C152.293 375.101 159.56 373.414 161.087 369.548C162.576 365.78 158.663 356.302 152.421 363.854C152.183 364.141 151.718 364.147 151.481 363.86C150.457 362.619 147.767 360.042 144.031 361.604C140.536 363.066 140.142 365.453 140.19 366.656C140.204 367.01 139.865 367.285 139.491 367.219C137.724 366.905 133.483 366.635 131.503 370.689C129.873 374.029 130.933 375.919 131.898 376.843C132.211 377.143 132.074 377.636 131.645 377.759C130.483 378.09 128.983 379.008 129.133 381.544C129.341 385.049 133.547 384.74 134.745 384.581C134.941 384.555 135.139 384.617 135.272 384.754C136.298 385.813 140.925 390.31 145.932 390.851C146.366 390.898 146.701 390.499 146.56 390.115L144.392 384.245C144.292 383.972 144.432 383.673 144.715 383.556L145.79 383.113Z" fill="url(#paint102_linear_239_8)"/>
<path d="M146.661 383.946C146.661 383.946 141.217 380.465 140.819 383.397C140.422 386.328 145.722 387.643 148.347 386.55L146.661 383.946Z" fill="url(#paint103_linear_239_8)"/>
<path d="M328.099 595.255L656.719 595.255V533.962L328.099 533.962C335.133 533.962 335.133 595.255 328.099 595.255Z" fill="#F5F5F5"/>
<path d="M656.719 579.917V551.866C656.719 541.978 650.224 533.962 642.214 533.962H329.485C323.185 533.962 318.078 529.203 318.078 523.332C318.078 521.548 319.63 520.103 321.544 520.103H663.332C671.17 520.103 683.615 531.587 683.615 545.753V584.929C683.615 598.286 671.534 609.114 664.143 609.114H323.342C320.435 609.114 318.078 606.918 318.078 604.209C318.078 599.263 322.38 595.255 327.686 595.255H644.293C651.155 595.255 656.719 588.388 656.719 579.917Z" fill="url(#paint104_linear_239_8)"/>
<path d="M647.605 547.307H339.479C339.023 547.307 338.653 546.963 338.653 546.538C338.653 546.113 339.023 545.769 339.479 545.769H647.605C648.061 545.769 648.43 546.113 648.43 546.538C648.43 546.963 648.061 547.307 647.605 547.307Z" fill="url(#paint105_linear_239_8)"/>
<path d="M647.605 556.405H339.479C339.023 556.405 338.653 556.061 338.653 555.636C338.653 555.211 339.023 554.867 339.479 554.867H647.605C648.061 554.867 648.43 555.211 648.43 555.636C648.43 556.061 648.061 556.405 647.605 556.405Z" fill="url(#paint106_linear_239_8)"/>
<path d="M647.605 565.503H339.479C339.023 565.503 338.653 565.159 338.653 564.734C338.653 564.309 339.023 563.964 339.479 563.964H647.605C648.061 563.964 648.43 564.309 648.43 564.734C648.43 565.159 648.061 565.503 647.605 565.503Z" fill="url(#paint107_linear_239_8)"/>
<path d="M647.605 574.601H339.479C339.023 574.601 338.653 574.257 338.653 573.832C338.653 573.407 339.023 573.062 339.479 573.062H647.605C648.061 573.062 648.43 573.407 648.43 573.832C648.43 574.257 648.061 574.601 647.605 574.601Z" fill="url(#paint108_linear_239_8)"/>
<path d="M647.605 583.699H339.479C339.023 583.699 338.653 583.355 338.653 582.929C338.653 582.504 339.023 582.16 339.479 582.16H647.605C648.061 582.16 648.43 582.504 648.43 582.929C648.43 583.355 648.061 583.699 647.605 583.699Z" fill="url(#paint109_linear_239_8)"/>
<path d="M393.932 525.311H654.609C656.473 525.311 657.984 523.903 657.984 522.165V468.3C657.984 466.563 656.473 465.155 654.609 465.155H393.932C392.068 465.155 390.557 466.563 390.557 468.3V522.165C390.557 523.903 392.068 525.311 393.932 525.311Z" fill="url(#paint110_linear_239_8)"/>
<path d="M602.322 518.397H621.783C625.085 518.397 627.761 515.903 627.761 512.826V477.639C627.761 474.562 625.085 472.068 621.783 472.068H602.322C599.021 472.068 596.345 474.563 596.345 477.639V512.826C596.345 515.903 599.021 518.397 602.322 518.397Z" fill="#DA7373"/>
<path d="M582.965 518.397H588.695C590.368 518.397 591.724 517.133 591.724 515.575V474.891C591.724 473.332 590.368 472.068 588.695 472.068H582.965C581.292 472.068 579.936 473.332 579.936 474.891V515.574C579.936 517.133 581.292 518.397 582.965 518.397Z" fill="#DA7373"/>
<path d="M479.626 344.509C479.626 344.509 479.634 346.955 488.112 346.802C492.839 346.717 501.604 345.756 506.557 352.647C509.113 356.205 513.771 357.829 518.14 356.503C529.022 353.201 547.234 350.777 558.565 365.952C567.214 377.534 562.948 385.471 556.671 390.472C552.061 394.145 551.144 400.556 554.885 405.005C558.473 409.273 559.919 415.475 553.441 423.96C538.924 442.973 501.455 419.487 501.455 419.487L466.467 364.182L479.626 344.509Z" fill="url(#paint111_linear_239_8)"/>
<path d="M549.875 384.402C549.767 384.402 549.659 384.379 549.554 384.327C549.503 384.303 549.484 384.244 549.511 384.198C549.536 384.151 549.599 384.133 549.649 384.157C550.115 384.381 550.626 383.833 550.853 383.47C553.918 378.556 553.257 371.691 549.245 366.778C546.842 363.836 543.603 361.847 540.123 361.18C537.649 360.705 535.109 360.896 532.716 361.131C528.665 361.531 524.588 362.122 520.597 362.886C520.273 362.949 519.949 363.012 519.625 363.075C517.279 363.534 514.853 364.008 512.418 364.015C512.405 364.015 512.39 364.015 512.376 364.015C509.257 364.015 506.524 363.171 504.678 361.635C503.528 360.678 502.674 359.434 501.849 358.231C500.856 356.785 499.83 355.29 498.298 354.336C498.251 354.307 498.238 354.247 498.27 354.203C498.302 354.158 498.365 354.147 498.413 354.177C499.981 355.152 501.018 356.665 502.022 358.127C502.84 359.319 503.686 360.552 504.815 361.492C506.624 362.996 509.308 363.823 512.376 363.823C512.39 363.823 512.404 363.823 512.418 363.823C514.831 363.816 517.247 363.343 519.583 362.887C519.907 362.824 520.231 362.76 520.555 362.698C524.554 361.932 528.637 361.34 532.695 360.939C535.102 360.701 537.66 360.511 540.165 360.991C543.694 361.668 546.976 363.682 549.409 366.661C553.47 371.634 554.137 378.586 551.032 383.566C550.749 384.02 550.311 384.402 549.875 384.402Z" fill="#BDD0FB"/>
<path d="M549.926 382.034C549.919 382.034 549.913 382.034 549.913 382.034C549.851 382.023 549.813 381.973 549.824 381.92C550.482 378.668 550.214 375.641 549.048 373.164C547.689 370.277 545.015 368.156 542.07 367.629C542.013 367.618 541.977 367.568 541.988 367.516C541.998 367.464 542.049 367.433 542.109 367.439C545.12 367.979 547.851 370.143 549.237 373.088C550.42 375.6 550.693 378.666 550.027 381.956C550.017 382.002 549.974 382.034 549.926 382.034Z" fill="#BDD0FB"/>
<path d="M383.681 518.263C383.768 518.232 430.244 442.385 436.524 435.247C437.58 434.046 439.216 433.435 440.87 433.619L453.842 435.059L469.082 465.783L443.693 452.004C446.205 468.195 413.59 492.258 402.404 501.038C401.269 501.929 401.176 503.525 402.201 504.525L406.667 508.881C399.335 515.807 390.875 520.253 381.327 522.31L383.681 518.263Z" fill="url(#paint112_linear_239_8)"/>
<path d="M404.084 506.53C404.084 506.53 406.933 507.388 407.899 509.754C408.36 510.886 407.863 512.167 406.806 512.873C402.113 516.006 386.633 526.122 379.489 528.103C378.904 528.265 378.347 527.771 378.478 527.215C378.845 525.669 380.031 522.581 383.851 518.06L383.508 518.706C383.075 519.523 384.03 520.375 384.882 519.926C389.66 517.413 399.392 511.911 404.084 506.53Z" fill="url(#paint113_linear_239_8)"/>
<path d="M401.784 536.879C401.862 536.832 408.835 521.176 408.913 521.13C415.306 484.855 430.904 453.789 435.505 445.614C436.279 444.24 437.747 443.332 439.408 443.2L452.424 442.165L474.021 469.378L446.165 460.673C452.141 476.055 425.426 505.771 416.379 516.479C415.461 517.565 415.716 519.146 416.937 519.932L422.257 523.356C416.581 531.521 409.262 537.471 400.358 541.286L401.784 536.879Z" fill="url(#paint114_linear_239_8)"/>
<path d="M419.216 521.541C419.216 521.541 422.194 521.843 423.653 523.978C424.35 524.999 424.141 526.348 423.26 527.238C419.345 531.192 406.382 544.018 399.816 547.305C399.278 547.574 398.625 547.196 398.633 546.627C398.656 545.043 399.147 541.795 401.906 536.647L401.711 537.344C401.464 538.227 402.584 538.88 403.322 538.28C407.455 534.918 415.791 527.695 419.216 521.541Z" fill="url(#paint115_linear_239_8)"/>
<path d="M513.353 436.433C513.353 436.433 525.129 452.755 526.095 460.2C527.061 467.645 522.839 470.219 510.514 471.169C473.838 473.994 455.758 463.751 455.758 463.751C453.249 448.843 451.463 445.051 430.51 436.946C430.51 436.946 457.013 438.907 462.346 436.977C467.68 435.049 513.353 436.433 513.353 436.433Z" fill="url(#paint116_linear_239_8)"/>
<path d="M481.508 434.273C481.508 434.273 467.796 422.105 461.046 414.046C457.397 409.689 456.251 403.954 457.939 398.656C461.02 388.981 466.497 378.96 466.997 377.401C467.762 375.01 483.137 375.11 483.137 375.11C483.137 375.11 513.393 393.408 525.28 424.405L511.93 428.278C511.93 428.278 504.03 415.927 496.224 408.075C496.224 408.075 509.731 424.702 510.206 431.509L481.508 434.273Z" fill="url(#paint117_linear_239_8)"/>
<path d="M465.137 364.04C465.298 364.538 469.311 376.935 469.625 377.192C469.939 377.45 478.425 377.875 482.42 375.331L474.267 358.522L465.137 364.04Z" fill="url(#paint118_linear_239_8)"/>
<path d="M455.382 439.074L465.685 428.627L477.585 431.613C477.585 431.613 491.457 433.616 499.397 431.613C507.338 429.61 507.338 429.61 507.338 429.61L525.28 424.405L528.098 431.826C528.814 433.711 528.095 435.803 526.346 436.96C524.794 437.988 522.974 439.118 521.815 439.591C519.452 440.554 467.383 439.895 467.383 439.895L455.382 439.074Z" fill="url(#paint119_linear_239_8)"/>
<path d="M489.489 443.209C489.452 443.21 489.416 443.211 489.38 443.211L441.988 443.163C440.817 443.162 439.868 442.276 439.869 441.184C439.87 440.092 440.824 439.189 441.993 439.209L489.384 439.257C490.556 439.258 491.505 440.144 491.503 441.236C491.502 442.294 490.609 443.157 489.489 443.209Z" fill="url(#paint120_linear_239_8)"/>
<path d="M399.385 403.111H438.853C441.764 403.111 444.414 404.676 445.656 407.131L463.902 443.185H414.854C412.978 443.185 411.292 442.117 410.602 440.491L396.453 407.128C395.636 405.2 397.16 403.111 399.385 403.111Z" fill="url(#paint121_linear_239_8)"/>
<path d="M427.19 421.597C428.045 424.073 427.414 426.478 425.779 426.968C424.144 427.459 422.126 425.849 421.27 423.372C420.415 420.896 421.047 418.491 422.681 418.001C424.316 417.511 426.335 419.121 427.19 421.597Z" fill="white"/>
<path d="M457.556 347.211C457.556 347.211 453.954 353.228 456.355 363.114C458.757 373 464.278 374.357 468.087 372.326C471.896 370.295 476.96 366.502 478.469 357.892C479.977 349.282 462.441 339.632 457.556 347.211Z" fill="url(#paint122_linear_239_8)"/>
<path d="M471.594 356.678C471.594 356.678 466.791 343.153 456.62 350.344L455.542 353.608C455.542 353.608 446.939 350.426 450.658 343.22C454.376 336.014 463.407 333.17 472.357 338.906C481.306 344.642 486.011 349.417 484.767 356.178C483.522 362.938 478.298 360.095 478.298 360.095C478.298 360.095 477.785 354.991 475.308 353.86C472.831 352.729 472.478 356.523 472.478 356.523L471.594 356.678Z" fill="url(#paint123_linear_239_8)"/>
<path d="M473.71 358.587C473.71 358.587 471.197 351.648 475.746 351.832C480.296 352.016 477.739 358.481 476.576 360.818L473.71 358.587Z" fill="url(#paint124_linear_239_8)"/>
<defs>
<linearGradient id="paint0_linear_239_8" x1="718.401" y1="623.323" x2="257.861" y2="190.898" gradientUnits="userSpaceOnUse">
<stop stop-color="#CAE2F4"/>
<stop offset="1" stop-color="#A8D8FE"/>
</linearGradient>
<linearGradient id="paint1_linear_239_8" x1="686.912" y1="123.471" x2="536.389" y2="517.091" gradientUnits="userSpaceOnUse">
<stop stop-color="#E0E0E0"/>
<stop offset="1" stop-color="#9B9E9F"/>
</linearGradient>
<linearGradient id="paint2_linear_239_8" x1="610.937" y1="435.085" x2="387.916" y2="628.943" gradientUnits="userSpaceOnUse">
<stop stop-color="#E0E0E0"/>
<stop offset="1" stop-color="#9B9E9F"/>
</linearGradient>
<linearGradient id="paint3_linear_239_8" x1="608.642" y1="519.829" x2="1008.2" y2="237.957" gradientUnits="userSpaceOnUse">
<stop stop-color="#E0E0E0"/>
<stop offset="1" stop-color="#9B9E9F"/>
</linearGradient>
<linearGradient id="paint4_linear_239_8" x1="627.753" y1="545.031" x2="1013.55" y2="272.869" gradientUnits="userSpaceOnUse">
<stop stop-color="#E0E0E0"/>
<stop offset="1" stop-color="#9B9E9F"/>
</linearGradient>
<linearGradient id="paint5_linear_239_8" x1="552.937" y1="291.688" x2="547.431" y2="365.651" gradientUnits="userSpaceOnUse">
<stop stop-color="#E0E0E0"/>
<stop offset="1" stop-color="#9B9E9F"/>
</linearGradient>
<linearGradient id="paint6_linear_239_8" x1="541.056" y1="290.659" x2="535.551" y2="364.622" gradientUnits="userSpaceOnUse">
<stop stop-color="#E0E0E0"/>
<stop offset="1" stop-color="#9B9E9F"/>
</linearGradient>
<linearGradient id="paint7_linear_239_8" x1="553.15" y1="356.614" x2="547.644" y2="430.576" gradientUnits="userSpaceOnUse">
<stop stop-color="#E0E0E0"/>
<stop offset="1" stop-color="#9B9E9F"/>
</linearGradient>
<linearGradient id="paint8_linear_239_8" x1="541.269" y1="355.584" x2="535.763" y2="429.547" gradientUnits="userSpaceOnUse">
<stop stop-color="#E0E0E0"/>
<stop offset="1" stop-color="#9B9E9F"/>
</linearGradient>
<linearGradient id="paint9_linear_239_8" x1="553.363" y1="425.111" x2="547.857" y2="499.074" gradientUnits="userSpaceOnUse">
<stop stop-color="#E0E0E0"/>
<stop offset="1" stop-color="#9B9E9F"/>
</linearGradient>
<linearGradient id="paint10_linear_239_8" x1="541.481" y1="424.082" x2="535.975" y2="498.045" gradientUnits="userSpaceOnUse">
<stop stop-color="#E0E0E0"/>
<stop offset="1" stop-color="#9B9E9F"/>
</linearGradient>
<linearGradient id="paint11_linear_239_8" x1="615.808" y1="290.999" x2="610.302" y2="364.962" gradientUnits="userSpaceOnUse">
<stop stop-color="#E0E0E0"/>
<stop offset="1" stop-color="#9B9E9F"/>
</linearGradient>
<linearGradient id="paint12_linear_239_8" x1="603.927" y1="289.97" x2="598.421" y2="363.933" gradientUnits="userSpaceOnUse">
<stop stop-color="#E0E0E0"/>
<stop offset="1" stop-color="#9B9E9F"/>
</linearGradient>
<linearGradient id="paint13_linear_239_8" x1="616.02" y1="356.656" x2="610.514" y2="430.619" gradientUnits="userSpaceOnUse">
<stop stop-color="#E0E0E0"/>
<stop offset="1" stop-color="#9B9E9F"/>
</linearGradient>
<linearGradient id="paint14_linear_239_8" x1="604.138" y1="355.626" x2="598.633" y2="429.589" gradientUnits="userSpaceOnUse">
<stop stop-color="#E0E0E0"/>
<stop offset="1" stop-color="#9B9E9F"/>
</linearGradient>
<linearGradient id="paint15_linear_239_8" x1="616.233" y1="425.154" x2="610.727" y2="499.117" gradientUnits="userSpaceOnUse">
<stop stop-color="#E0E0E0"/>
<stop offset="1" stop-color="#9B9E9F"/>
</linearGradient>
<linearGradient id="paint16_linear_239_8" x1="604.352" y1="424.124" x2="598.846" y2="498.087" gradientUnits="userSpaceOnUse">
<stop stop-color="#E0E0E0"/>
<stop offset="1" stop-color="#9B9E9F"/>
</linearGradient>
<linearGradient id="paint17_linear_239_8" x1="740.818" y1="347.725" x2="317.781" y2="77.2577" gradientUnits="userSpaceOnUse">
<stop stop-color="#455A64"/>
<stop offset="1" stop-color="#455A64"/>
</linearGradient>
<linearGradient id="paint18_linear_239_8" x1="513.591" y1="190.069" x2="590.676" y2="-47.1623" gradientUnits="userSpaceOnUse">
<stop stop-color="#455A64"/>
<stop offset="1" stop-color="#455A64"/>
</linearGradient>
<linearGradient id="paint19_linear_239_8" x1="112.549" y1="114.071" x2="128.244" y2="738.207" gradientUnits="userSpaceOnUse">
<stop stop-color="#E0E0E0"/>
<stop offset="1" stop-color="#9B9E9F"/>
</linearGradient>
<linearGradient id="paint20_linear_239_8" x1="73.3481" y1="438.688" x2="297.979" y2="633.946" gradientUnits="userSpaceOnUse">
<stop stop-color="#E0E0E0"/>
<stop offset="1" stop-color="#9B9E9F"/>
</linearGradient>
<linearGradient id="paint21_linear_239_8" x1="76.2618" y1="524.461" x2="-331.823" y2="236.576" gradientUnits="userSpaceOnUse">
<stop stop-color="#E0E0E0"/>
<stop offset="1" stop-color="#9B9E9F"/>
</linearGradient>
<linearGradient id="paint22_linear_239_8" x1="56.3288" y1="549.443" x2="-330.761" y2="276.369" gradientUnits="userSpaceOnUse">
<stop stop-color="#E0E0E0"/>
<stop offset="1" stop-color="#9B9E9F"/>
</linearGradient>
<linearGradient id="paint23_linear_239_8" x1="131.063" y1="294.019" x2="136.569" y2="367.982" gradientUnits="userSpaceOnUse">
<stop stop-color="#E0E0E0"/>
<stop offset="1" stop-color="#9B9E9F"/>
</linearGradient>
<linearGradient id="paint24_linear_239_8" x1="142.944" y1="292.989" x2="148.45" y2="366.952" gradientUnits="userSpaceOnUse">
<stop stop-color="#E0E0E0"/>
<stop offset="1" stop-color="#9B9E9F"/>
</linearGradient>
<linearGradient id="paint25_linear_239_8" x1="130.85" y1="358.944" x2="136.356" y2="432.907" gradientUnits="userSpaceOnUse">
<stop stop-color="#E0E0E0"/>
<stop offset="1" stop-color="#9B9E9F"/>
</linearGradient>
<linearGradient id="paint26_linear_239_8" x1="142.731" y1="357.915" x2="148.237" y2="431.877" gradientUnits="userSpaceOnUse">
<stop stop-color="#E0E0E0"/>
<stop offset="1" stop-color="#9B9E9F"/>
</linearGradient>
<linearGradient id="paint27_linear_239_8" x1="130.638" y1="427.442" x2="136.144" y2="501.405" gradientUnits="userSpaceOnUse">
<stop stop-color="#E0E0E0"/>
<stop offset="1" stop-color="#9B9E9F"/>
</linearGradient>
<linearGradient id="paint28_linear_239_8" x1="142.519" y1="426.412" x2="148.024" y2="500.375" gradientUnits="userSpaceOnUse">
<stop stop-color="#E0E0E0"/>
<stop offset="1" stop-color="#9B9E9F"/>
</linearGradient>
<linearGradient id="paint29_linear_239_8" x1="68.1925" y1="293.33" x2="73.6984" y2="367.293" gradientUnits="userSpaceOnUse">
<stop stop-color="#E0E0E0"/>
<stop offset="1" stop-color="#9B9E9F"/>
</linearGradient>
<linearGradient id="paint30_linear_239_8" x1="80.0732" y1="292.3" x2="85.5792" y2="366.263" gradientUnits="userSpaceOnUse">
<stop stop-color="#E0E0E0"/>
<stop offset="1" stop-color="#9B9E9F"/>
</linearGradient>
<linearGradient id="paint31_linear_239_8" x1="67.9798" y1="358.986" x2="73.4857" y2="432.949" gradientUnits="userSpaceOnUse">
<stop stop-color="#E0E0E0"/>
<stop offset="1" stop-color="#9B9E9F"/>
</linearGradient>
<linearGradient id="paint32_linear_239_8" x1="79.8608" y1="357.957" x2="85.3666" y2="431.92" gradientUnits="userSpaceOnUse">
<stop stop-color="#E0E0E0"/>
<stop offset="1" stop-color="#9B9E9F"/>
</linearGradient>
<linearGradient id="paint33_linear_239_8" x1="67.7674" y1="427.484" x2="73.2733" y2="501.447" gradientUnits="userSpaceOnUse">
<stop stop-color="#E0E0E0"/>
<stop offset="1" stop-color="#9B9E9F"/>
</linearGradient>
<linearGradient id="paint34_linear_239_8" x1="79.6484" y1="426.455" x2="85.1542" y2="500.418" gradientUnits="userSpaceOnUse">
<stop stop-color="#E0E0E0"/>
<stop offset="1" stop-color="#9B9E9F"/>
</linearGradient>
<linearGradient id="paint35_linear_239_8" x1="-54.9134" y1="351.737" x2="364.066" y2="83.8639" gradientUnits="userSpaceOnUse">
<stop stop-color="#455A64"/>
<stop offset="1" stop-color="#455A64"/>
</linearGradient>
<linearGradient id="paint36_linear_239_8" x1="190.248" y1="188.818" x2="308.011" y2="-65.5013" gradientUnits="userSpaceOnUse">
<stop stop-color="#455A64"/>
<stop offset="1" stop-color="#455A64"/>
</linearGradient>
<linearGradient id="paint37_linear_239_8" x1="387.227" y1="-94.1834" x2="349.911" y2="346.295" gradientUnits="userSpaceOnUse">
<stop stop-color="#E0E0E0"/>
<stop offset="1" stop-color="#9B9E9F"/>
</linearGradient>
<linearGradient id="paint38_linear_239_8" x1="457.189" y1="437.619" x2="233.993" y2="631.629" gradientUnits="userSpaceOnUse">
<stop stop-color="#E0E0E0"/>
<stop offset="1" stop-color="#9B9E9F"/>
</linearGradient>
<linearGradient id="paint39_linear_239_8" x1="454.897" y1="522.431" x2="854.716" y2="240.376" gradientUnits="userSpaceOnUse">
<stop stop-color="#E0E0E0"/>
<stop offset="1" stop-color="#9B9E9F"/>
</linearGradient>
<linearGradient id="paint40_linear_239_8" x1="474.027" y1="547.653" x2="859.964" y2="275.392" gradientUnits="userSpaceOnUse">
<stop stop-color="#E0E0E0"/>
<stop offset="1" stop-color="#9B9E9F"/>
</linearGradient>
<linearGradient id="paint41_linear_239_8" x1="328.022" y1="-174.363" x2="332.323" y2="8.73034" gradientUnits="userSpaceOnUse">
<stop stop-color="#455A64"/>
<stop offset="1" stop-color="#37474F"/>
</linearGradient>
<linearGradient id="paint42_linear_239_8" x1="424.019" y1="-74.839" x2="377.839" y2="141.963" gradientUnits="userSpaceOnUse">
<stop stop-color="#E0E0E0"/>
<stop offset="1" stop-color="#9B9E9F"/>
</linearGradient>
<linearGradient id="paint43_linear_239_8" x1="150.684" y1="437.021" x2="-71.7555" y2="630.375" gradientUnits="userSpaceOnUse">
<stop stop-color="#E0E0E0"/>
<stop offset="1" stop-color="#9B9E9F"/>
</linearGradient>
<linearGradient id="paint44_linear_239_8" x1="147.89" y1="521.664" x2="551.188" y2="237.155" gradientUnits="userSpaceOnUse">
<stop stop-color="#E0E0E0"/>
<stop offset="1" stop-color="#9B9E9F"/>
</linearGradient>
<linearGradient id="paint45_linear_239_8" x1="167.389" y1="546.66" x2="553.325" y2="274.399" gradientUnits="userSpaceOnUse">
<stop stop-color="#E0E0E0"/>
<stop offset="1" stop-color="#9B9E9F"/>
</linearGradient>
<linearGradient id="paint46_linear_239_8" x1="249.975" y1="445.53" x2="26.7788" y2="639.54" gradientUnits="userSpaceOnUse">
<stop stop-color="#E0E0E0"/>
<stop offset="1" stop-color="#9B9E9F"/>
</linearGradient>
<linearGradient id="paint47_linear_239_8" x1="246.998" y1="530.762" x2="653.278" y2="244.149" gradientUnits="userSpaceOnUse">
<stop stop-color="#E0E0E0"/>
<stop offset="1" stop-color="#9B9E9F"/>
</linearGradient>
<linearGradient id="paint48_linear_239_8" x1="266.813" y1="555.564" x2="652.75" y2="283.303" gradientUnits="userSpaceOnUse">
<stop stop-color="#E0E0E0"/>
<stop offset="1" stop-color="#9B9E9F"/>
</linearGradient>
<linearGradient id="paint49_linear_239_8" x1="368.102" y1="444.253" x2="144.907" y2="638.263" gradientUnits="userSpaceOnUse">
<stop stop-color="#E0E0E0"/>
<stop offset="1" stop-color="#9B9E9F"/>
</linearGradient>
<linearGradient id="paint50_linear_239_8" x1="365.057" y1="529.527" x2="771.995" y2="242.45" gradientUnits="userSpaceOnUse">
<stop stop-color="#E0E0E0"/>
<stop offset="1" stop-color="#9B9E9F"/>
</linearGradient>
<linearGradient id="paint51_linear_239_8" x1="384.941" y1="554.287" x2="770.877" y2="282.026" gradientUnits="userSpaceOnUse">
<stop stop-color="#E0E0E0"/>
<stop offset="1" stop-color="#9B9E9F"/>
</linearGradient>
<linearGradient id="paint52_linear_239_8" x1="250.711" y1="419.926" x2="244.655" y2="501.287" gradientUnits="userSpaceOnUse">
<stop stop-color="#FAFAFA"/>
<stop offset="1" stop-color="#9B9E9F"/>
</linearGradient>
<linearGradient id="paint53_linear_239_8" x1="238.839" y1="418.793" x2="232.782" y2="500.155" gradientUnits="userSpaceOnUse">
<stop stop-color="#E0E0E0"/>
<stop offset="1" stop-color="#9B9E9F"/>
</linearGradient>
<linearGradient id="paint54_linear_239_8" x1="250.107" y1="355.586" x2="244.05" y2="436.947" gradientUnits="userSpaceOnUse">
<stop stop-color="#E0E0E0"/>
<stop offset="1" stop-color="#9B9E9F"/>
</linearGradient>
<linearGradient id="paint55_linear_239_8" x1="238.235" y1="354.453" x2="232.178" y2="435.815" gradientUnits="userSpaceOnUse">
<stop stop-color="#E0E0E0"/>
<stop offset="1" stop-color="#9B9E9F"/>
</linearGradient>
<linearGradient id="paint56_linear_239_8" x1="463.045" y1="418.919" x2="456.988" y2="500.281" gradientUnits="userSpaceOnUse">
<stop stop-color="#E0E0E0"/>
<stop offset="1" stop-color="#9B9E9F"/>
</linearGradient>
<linearGradient id="paint57_linear_239_8" x1="451.172" y1="417.787" x2="445.115" y2="499.148" gradientUnits="userSpaceOnUse">
<stop stop-color="#E0E0E0"/>
<stop offset="1" stop-color="#9B9E9F"/>
</linearGradient>
<linearGradient id="paint58_linear_239_8" x1="462.439" y1="354.579" x2="456.383" y2="435.941" gradientUnits="userSpaceOnUse">
<stop stop-color="#E0E0E0"/>
<stop offset="1" stop-color="#9B9E9F"/>
</linearGradient>
<linearGradient id="paint59_linear_239_8" x1="450.567" y1="353.447" x2="444.51" y2="434.808" gradientUnits="userSpaceOnUse">
<stop stop-color="#E0E0E0"/>
<stop offset="1" stop-color="#9B9E9F"/>
</linearGradient>
<linearGradient id="paint60_linear_239_8" x1="347.336" y1="226.96" x2="356.912" y2="140.646" gradientUnits="userSpaceOnUse">
<stop stop-color="#E0E0E0"/>
<stop offset="1" stop-color="#E0E0E0"/>
</linearGradient>
<linearGradient id="paint61_linear_239_8" x1="366.537" y1="196.433" x2="333.607" y2="268.402" gradientUnits="userSpaceOnUse">
<stop stop-color="#455A64"/>
<stop offset="1" stop-color="#455A64"/>
</linearGradient>
<linearGradient id="paint62_linear_239_8" x1="324.482" y1="666.062" x2="371.918" y2="308.203" gradientUnits="userSpaceOnUse">
<stop stop-color="#E0E0E0"/>
<stop offset="1" stop-color="#E0E0E0"/>
</linearGradient>
<linearGradient id="paint63_linear_239_8" x1="617.082" y1="225.747" x2="296.277" y2="605.978" gradientUnits="userSpaceOnUse">
<stop stop-color="#E0E0E0"/>
<stop offset="1" stop-color="#9B9E9F"/>
</linearGradient>
<linearGradient id="paint64_linear_239_8" x1="348.148" y1="516.747" x2="350.852" y2="559.554" gradientUnits="userSpaceOnUse">
<stop stop-color="#E0E0E0"/>
<stop offset="1" stop-color="#9B9E9F"/>
</linearGradient>
<linearGradient id="paint65_linear_239_8" x1="349.161" y1="535.353" x2="351.865" y2="578.16" gradientUnits="userSpaceOnUse">
<stop stop-color="#E0E0E0"/>
<stop offset="1" stop-color="#9B9E9F"/>
</linearGradient>
<linearGradient id="paint66_linear_239_8" x1="462.046" y1="291.188" x2="455.99" y2="372.55" gradientUnits="userSpaceOnUse">
<stop stop-color="#E0E0E0"/>
<stop offset="1" stop-color="#9B9E9F"/>
</linearGradient>
<linearGradient id="paint67_linear_239_8" x1="450.174" y1="290.056" x2="444.118" y2="371.417" gradientUnits="userSpaceOnUse">
<stop stop-color="#E0E0E0"/>
<stop offset="1" stop-color="#9B9E9F"/>
</linearGradient>
<linearGradient id="paint68_linear_239_8" x1="456.84" y1="293.465" x2="447.835" y2="332.31" gradientUnits="userSpaceOnUse">
<stop stop-color="#E0E0E0"/>
<stop offset="1" stop-color="#9B9E9F"/>
</linearGradient>
<linearGradient id="paint69_linear_239_8" x1="332.146" y1="291.188" x2="326.089" y2="372.55" gradientUnits="userSpaceOnUse">
<stop stop-color="#E0E0E0"/>
<stop offset="1" stop-color="#9B9E9F"/>
</linearGradient>
<linearGradient id="paint70_linear_239_8" x1="320.274" y1="290.056" x2="314.217" y2="371.417" gradientUnits="userSpaceOnUse">
<stop stop-color="#E0E0E0"/>
<stop offset="1" stop-color="#9B9E9F"/>
</linearGradient>
<linearGradient id="paint71_linear_239_8" x1="326.939" y1="293.465" x2="317.934" y2="332.31" gradientUnits="userSpaceOnUse">
<stop stop-color="#E0E0E0"/>
<stop offset="1" stop-color="#9B9E9F"/>
</linearGradient>
<linearGradient id="paint72_linear_239_8" x1="380.025" y1="291.188" x2="373.968" y2="372.55" gradientUnits="userSpaceOnUse">
<stop stop-color="#E0E0E0"/>
<stop offset="1" stop-color="#9B9E9F"/>
</linearGradient>
<linearGradient id="paint73_linear_239_8" x1="368.152" y1="290.056" x2="362.096" y2="371.417" gradientUnits="userSpaceOnUse">
<stop stop-color="#E0E0E0"/>
<stop offset="1" stop-color="#9B9E9F"/>
</linearGradient>
<linearGradient id="paint74_linear_239_8" x1="374.818" y1="293.465" x2="365.813" y2="332.31" gradientUnits="userSpaceOnUse">
<stop stop-color="#E0E0E0"/>
<stop offset="1" stop-color="#9B9E9F"/>
</linearGradient>
<linearGradient id="paint75_linear_239_8" x1="250.909" y1="291.188" x2="244.852" y2="372.55" gradientUnits="userSpaceOnUse">
<stop stop-color="#E0E0E0"/>
<stop offset="1" stop-color="#9B9E9F"/>
</linearGradient>
<linearGradient id="paint76_linear_239_8" x1="239.036" y1="290.056" x2="232.98" y2="371.417" gradientUnits="userSpaceOnUse">
<stop stop-color="#E0E0E0"/>
<stop offset="1" stop-color="#9B9E9F"/>
</linearGradient>
<linearGradient id="paint77_linear_239_8" x1="245.702" y1="293.465" x2="236.697" y2="332.31" gradientUnits="userSpaceOnUse">
<stop stop-color="#E0E0E0"/>
<stop offset="1" stop-color="#9B9E9F"/>
</linearGradient>
<linearGradient id="paint78_linear_239_8" x1="341.466" y1="256.62" x2="327.702" y2="523.228" gradientUnits="userSpaceOnUse">
<stop stop-color="#E0E0E0"/>
<stop offset="1" stop-color="#D0CFCF"/>
</linearGradient>
<linearGradient id="paint79_linear_239_8" x1="330.863" y1="298.941" x2="249.812" y2="512.531" gradientUnits="userSpaceOnUse">
<stop stop-color="#E0E0E0"/>
<stop offset="1" stop-color="#EED9CE"/>
</linearGradient>
<linearGradient id="paint80_linear_239_8" x1="36.3855" y1="-2.76555" x2="72.4824" y2="159.922" gradientUnits="userSpaceOnUse">
<stop stop-color="#B78876"/>
<stop offset="1" stop-color="#7C5142"/>
</linearGradient>
<linearGradient id="paint81_linear_239_8" x1="60.0288" y1="186.723" x2="-64.5343" y2="325.088" gradientUnits="userSpaceOnUse">
<stop stop-color="#B78876"/>
<stop offset="1" stop-color="#7C5142"/>
</linearGradient>
<linearGradient id="paint82_linear_239_8" x1="162.438" y1="137.505" x2="169.051" y2="216.983" gradientUnits="userSpaceOnUse">
<stop stop-color="#F4C2C2"/>
<stop offset="1" stop-color="#AA6550"/>
</linearGradient>
<linearGradient id="paint83_linear_239_8" x1="155.048" y1="138.12" x2="161.661" y2="217.598" gradientUnits="userSpaceOnUse">
<stop stop-color="#7C5142"/>
<stop offset="1" stop-color="#7C5142"/>
</linearGradient>
<linearGradient id="paint84_linear_239_8" x1="183.004" y1="590.669" x2="96.8132" y2="691.272" gradientUnits="userSpaceOnUse">
<stop stop-color="#F0CB72"/>
<stop offset="1" stop-color="#0A2982"/>
</linearGradient>
<linearGradient id="paint85_linear_239_8" x1="152.73" y1="597.691" x2="161.015" y2="597.691" gradientUnits="userSpaceOnUse">
<stop stop-color="#A22B25"/>
<stop offset="1" stop-color="#C0423C"/>
</linearGradient>
<linearGradient id="paint86_linear_239_8" x1="133.086" y1="538.659" x2="160.478" y2="538.659" gradientUnits="userSpaceOnUse">
<stop stop-color="#263238"/>
<stop offset="1" stop-color="#1F2122"/>
</linearGradient>
<linearGradient id="paint87_linear_239_8" x1="162.081" y1="572.744" x2="75.8902" y2="673.347" gradientUnits="userSpaceOnUse">
<stop stop-color="#F0CB72"/>
<stop offset="1" stop-color="#A47665"/>
</linearGradient>
<linearGradient id="paint88_linear_239_8" x1="122.873" y1="597.295" x2="130.026" y2="597.295" gradientUnits="userSpaceOnUse">
<stop stop-color="#A22B25"/>
<stop offset="1" stop-color="#C0423C"/>
</linearGradient>
<linearGradient id="paint89_linear_239_8" x1="49.0362" y1="682.852" x2="108.373" y2="552.875" gradientUnits="userSpaceOnUse">
<stop stop-color="#263238"/>
<stop offset="1" stop-color="#263238"/>
</linearGradient>
<linearGradient id="paint90_linear_239_8" x1="181.286" y1="482.745" x2="130.675" y2="405.236" gradientUnits="userSpaceOnUse">
<stop stop-color="#FF9A6C"/>
<stop offset="1" stop-color="#EE9849"/>
</linearGradient>
<linearGradient id="paint91_linear_239_8" x1="165.474" y1="436.008" x2="235.943" y2="360.749" gradientUnits="userSpaceOnUse">
<stop stop-color="#A22B25"/>
<stop offset="1" stop-color="#C0423C"/>
</linearGradient>
<linearGradient id="paint92_linear_239_8" x1="161.145" y1="431.955" x2="231.613" y2="356.696" gradientUnits="userSpaceOnUse">
<stop stop-color="#A22B25"/>
<stop offset="1" stop-color="#C0423C"/>
</linearGradient>
<linearGradient id="paint93_linear_239_8" x1="231.238" y1="353.602" x2="229.12" y2="376.834" gradientUnits="userSpaceOnUse">
<stop stop-color="#A22B25"/>
<stop offset="1" stop-color="#C0423C"/>
</linearGradient>
<linearGradient id="paint94_linear_239_8" x1="160.433" y1="496.361" x2="109.823" y2="418.851" gradientUnits="userSpaceOnUse">
<stop stop-color="#FF9A6C"/>
<stop offset="1" stop-color="#EE9849"/>
</linearGradient>
<linearGradient id="paint95_linear_239_8" x1="104.876" y1="446.492" x2="153.991" y2="471.849" gradientUnits="userSpaceOnUse">
<stop stop-color="#A22B25"/>
<stop offset="1" stop-color="#C0423C"/>
</linearGradient>
<linearGradient id="paint96_linear_239_8" x1="269.05" y1="327.067" x2="235.251" y2="371.457" gradientUnits="userSpaceOnUse">
<stop stop-color="#347EE7"/>
<stop offset="1" stop-color="#347EE7"/>
</linearGradient>
<linearGradient id="paint97_linear_239_8" x1="209.952" y1="426.692" x2="163.538" y2="416.048" gradientUnits="userSpaceOnUse">
<stop stop-color="#347EE7"/>
<stop offset="1" stop-color="#347EE7"/>
</linearGradient>
<linearGradient id="paint98_linear_239_8" x1="108.53" y1="406.973" x2="146.734" y2="447.969" gradientUnits="userSpaceOnUse">
<stop stop-color="#347EE7"/>
<stop offset="1" stop-color="#1A0F91"/>
</linearGradient>
<linearGradient id="paint99_linear_239_8" x1="134.434" y1="443.991" x2="157.946" y2="458.175" gradientUnits="userSpaceOnUse">
<stop stop-color="#A22B25"/>
<stop offset="1" stop-color="#C0423C"/>
</linearGradient>
<linearGradient id="paint100_linear_239_8" x1="143.434" y1="411.251" x2="152.094" y2="370.983" gradientUnits="userSpaceOnUse">
<stop stop-color="#A22B25"/>
<stop offset="1" stop-color="#C0423C"/>
</linearGradient>
<linearGradient id="paint101_linear_239_8" x1="173.312" y1="403.331" x2="195.275" y2="429.756" gradientUnits="userSpaceOnUse">
<stop stop-color="#A22B25"/>
<stop offset="1" stop-color="#C0423C"/>
</linearGradient>
<linearGradient id="paint102_linear_239_8" x1="125.94" y1="359.047" x2="154.365" y2="383.139" gradientUnits="userSpaceOnUse">
<stop stop-color="#263238"/>
<stop offset="1" stop-color="#263238"/>
</linearGradient>
<linearGradient id="paint103_linear_239_8" x1="150.468" y1="382.216" x2="182.186" y2="367.467" gradientUnits="userSpaceOnUse">
<stop stop-color="#A22B25"/>
<stop offset="1" stop-color="#C0423C"/>
</linearGradient>
<linearGradient id="paint104_linear_239_8" x1="538.283" y1="-44.4584" x2="521.071" y2="272.608" gradientUnits="userSpaceOnUse">
<stop stop-color="#FBC006"/>
<stop offset="1" stop-color="#FBC006"/>
</linearGradient>
<linearGradient id="paint105_linear_239_8" x1="338.653" y1="546.538" x2="648.43" y2="546.538" gradientUnits="userSpaceOnUse">
<stop stop-color="#DAE3FE"/>
<stop offset="1" stop-color="#E9EFFD"/>
</linearGradient>
<linearGradient id="paint106_linear_239_8" x1="338.653" y1="555.636" x2="648.43" y2="555.636" gradientUnits="userSpaceOnUse">
<stop stop-color="#DAE3FE"/>
<stop offset="1" stop-color="#E9EFFD"/>
</linearGradient>
<linearGradient id="paint107_linear_239_8" x1="338.653" y1="564.734" x2="648.43" y2="564.734" gradientUnits="userSpaceOnUse">
<stop stop-color="#DAE3FE"/>
<stop offset="1" stop-color="#E9EFFD"/>
</linearGradient>
<linearGradient id="paint108_linear_239_8" x1="338.653" y1="573.832" x2="648.43" y2="573.832" gradientUnits="userSpaceOnUse">
<stop stop-color="#DAE3FE"/>
<stop offset="1" stop-color="#E9EFFD"/>
</linearGradient>
<linearGradient id="paint109_linear_239_8" x1="338.653" y1="582.929" x2="648.43" y2="582.929" gradientUnits="userSpaceOnUse">
<stop stop-color="#DAE3FE"/>
<stop offset="1" stop-color="#E9EFFD"/>
</linearGradient>
<linearGradient id="paint110_linear_239_8" x1="527.359" y1="401.06" x2="516.059" y2="797.879" gradientUnits="userSpaceOnUse">
<stop stop-color="#442312"/>
<stop offset="1" stop-color="#442312"/>
</linearGradient>
<linearGradient id="paint111_linear_239_8" x1="462.409" y1="308.289" x2="573.919" y2="468.634" gradientUnits="userSpaceOnUse">
<stop stop-color="#263238"/>
<stop offset="1" stop-color="#263238"/>
</linearGradient>
<linearGradient id="paint112_linear_239_8" x1="372.541" y1="454.725" x2="443.184" y2="497.994" gradientUnits="userSpaceOnUse">
<stop stop-color="#FEBBBA"/>
<stop offset="1" stop-color="#FF928E"/>
</linearGradient>
<linearGradient id="paint113_linear_239_8" x1="382.119" y1="493.695" x2="411.342" y2="569.591" gradientUnits="userSpaceOnUse">
<stop stop-color="#09005D"/>
<stop offset="1" stop-color="#1A0F91"/>
</linearGradient>
<linearGradient id="paint114_linear_239_8" x1="448.474" y1="485.671" x2="536.244" y2="462.542" gradientUnits="userSpaceOnUse">
<stop stop-color="#FEBBBA"/>
<stop offset="1" stop-color="#FF928E"/>
</linearGradient>
<linearGradient id="paint115_linear_239_8" x1="394.92" y1="513.115" x2="438.846" y2="582.664" gradientUnits="userSpaceOnUse">
<stop stop-color="#09005D"/>
<stop offset="1" stop-color="#1A0F91"/>
</linearGradient>
<linearGradient id="paint116_linear_239_8" x1="4298.87" y1="2678.73" x2="4496.01" y2="2811.37" gradientUnits="userSpaceOnUse">
<stop stop-color="#9A2323"/>
<stop offset="1" stop-color="#9A2323"/>
</linearGradient>
<linearGradient id="paint117_linear_239_8" x1="449.749" y1="367.893" x2="509.585" y2="442.159" gradientUnits="userSpaceOnUse">
<stop stop-color="#9A2323"/>
<stop offset="1" stop-color="#9A2323"/>
</linearGradient>
<linearGradient id="paint118_linear_239_8" x1="475.947" y1="382.652" x2="471.61" y2="352.79" gradientUnits="userSpaceOnUse">
<stop stop-color="#FEBBBA"/>
<stop offset="1" stop-color="#FF928E"/>
</linearGradient>
<linearGradient id="paint119_linear_239_8" x1="508.905" y1="432.26" x2="581.896" y2="432.26" gradientUnits="userSpaceOnUse">
<stop stop-color="#FEBBBA"/>
<stop offset="1" stop-color="#FF928E"/>
</linearGradient>
<linearGradient id="paint120_linear_239_8" x1="497.529" y1="431.474" x2="460.454" y2="444.523" gradientUnits="userSpaceOnUse">
<stop stop-color="#FAFAFA"/>
<stop offset="1" stop-color="#9B9E9F"/>
</linearGradient>
<linearGradient id="paint121_linear_239_8" x1="445.849" y1="408.488" x2="420.762" y2="436.941" gradientUnits="userSpaceOnUse">
<stop stop-color="#FAFAFA"/>
<stop offset="1" stop-color="#9B9E9F"/>
</linearGradient>
<linearGradient id="paint122_linear_239_8" x1="121.182" y1="-825.681" x2="107.641" y2="-879.05" gradientUnits="userSpaceOnUse">
<stop stop-color="#FEBBBA"/>
<stop offset="1" stop-color="#FF928E"/>
</linearGradient>
<linearGradient id="paint123_linear_239_8" x1="444.357" y1="320.843" x2="555.867" y2="481.187" gradientUnits="userSpaceOnUse">
<stop stop-color="#263238"/>
<stop offset="1" stop-color="#263238"/>
</linearGradient>
<linearGradient id="paint124_linear_239_8" x1="130.028" y1="-827.928" x2="116.487" y2="-881.297" gradientUnits="userSpaceOnUse">
<stop stop-color="#FEBBBA"/>
<stop offset="1" stop-color="#FF928E"/>
</linearGradient>
</defs>
</svg>
